<svg width="44" height="64" viewBox="0 0 44 64" fill="none" xmlns="http://www.w3.org/2000/svg">
<path d="M32.5901 45.6228C31.0192 45.6228 29.5938 44.8228 28.7776 43.4827C28.471 42.9795 27.8146 42.82 27.3117 43.1266C26.8088 43.433 26.6492 44.0894 26.9557 44.5924C27.5234 45.5244 28.292 46.277 29.1866 46.8155L28.0812 51.8324L25.416 48.7635C25.8998 48.2072 25.783 47.5574 25.3662 47.195C24.922 46.8086 24.2481 46.8554 23.8615 47.2999L21.986 49.4567L17.2617 44.2075C17.6637 43.4355 17.9075 42.588 17.9771 41.7048C27.1202 44.3963 36.2665 37.4957 36.2665 28.0166V19.2C36.2665 18.6109 35.7889 18.1333 35.1998 18.1333C34.6108 18.1333 34.1332 18.6109 34.1332 19.2V28.0166C34.1332 34.7069 28.6902 40.1499 21.9999 40.1499C15.3095 40.1499 9.86655 34.707 9.86655 28.0166V18.9642C12.4669 18.8166 14.6788 17.184 15.4671 14.225C19.9084 17.0693 24.8868 18.9121 30.1113 19.6434C30.6969 19.725 31.2342 19.3166 31.3156 18.7349C31.3972 18.1516 30.9905 17.6124 30.4072 17.5306C25.0872 16.786 19.8957 14.7949 15.2828 11.5293C14.5776 11.0298 13.5956 11.538 13.5999 12.4068C13.6 12.4333 13.59 15.0788 11.5833 16.286C10.3144 17.0494 9.03095 16.8029 8.81015 16.8005C8.26495 16.7953 7.80295 17.2044 7.74082 17.744C7.72909 17.8472 7.73322 17.4958 7.73322 26.2794C7.02069 25.9098 6.53322 25.1743 6.53322 24.328V11.3333C6.53322 9.93638 7.66962 8.79998 9.06655 8.79998C9.50268 8.79998 9.89495 8.53438 10.0569 8.12945C11.514 4.48692 14.9903 2.13333 18.9135 2.13333H28.061C33.3209 2.13333 37.5998 6.41239 37.5998 11.6721V24.328C37.5998 24.917 38.0774 25.3946 38.6665 25.3946C39.2556 25.3946 39.7332 24.917 39.7332 24.328V11.6721C39.7332 5.23612 34.4972 0 28.061 0H18.9135C14.3375 0 10.2579 2.61733 8.34215 6.72279C6.11176 7.07199 4.39989 9.00651 4.39989 11.3333V24.328C4.39989 26.3686 5.82762 28.0837 7.74402 28.5441C7.94309 33.9919 11.2107 38.6698 15.8665 40.8959V41.1772C15.8665 42.3656 15.4031 43.4822 14.5616 44.3214C13.0692 45.8095 11.1885 45.6228 11.4093 45.6228C5.32456 45.6228 0.399902 50.5468 0.399902 56.6323V62.9332C0.399902 63.5223 0.877501 63.9999 1.46657 63.9999C2.05563 63.9999 2.53323 63.5223 2.53323 62.9332V56.6323C2.53323 51.7263 6.50322 47.756 11.4096 47.7562C11.8764 47.7562 12.3424 47.7066 12.8032 47.608L14.2916 54.3627C14.48 55.218 15.5651 55.4928 16.1387 54.8326L18.2401 52.4128L16.9416 62.8009C16.8685 63.3855 17.2833 63.9185 17.8677 63.9916C18.4533 64.0645 18.9855 63.6492 19.0585 63.0655L20.5592 51.06C20.6271 51.1354 21.22 51.8003 21.296 51.8674C21.7363 52.2538 22.4069 52.2146 22.7984 51.7731C23.0093 51.5316 22.4637 52.1587 23.4381 51.0382L24.9415 63.0653C25.0144 63.6491 25.5464 64.0645 26.1322 63.9915C26.7168 63.9184 27.1314 63.3853 27.0584 62.8008L25.7599 52.4127L27.8613 54.8324C28.4357 55.4939 29.5202 55.2164 29.7084 54.3626L31.1968 47.6076C31.6486 47.7036 32.1145 47.7559 32.5902 47.7559C37.4961 47.756 41.4665 51.7259 41.4665 56.6323V62.9332C41.4665 63.5223 41.9441 63.9999 42.5331 63.9999C43.1222 63.9999 43.5998 63.5223 43.5998 62.9332V56.6323C43.5998 50.5474 38.6757 45.6226 32.5901 45.6228ZM15.9185 51.8324L14.8128 46.814C15.2195 46.5684 15.6009 46.276 15.9525 45.9416L18.5387 48.8152L15.9185 51.8324Z" fill="url(#paint0_linear)"/>
<defs>
<linearGradient id="paint0_linear" x1="8.32288" y1="1.01682" x2="46.7198" y2="25.9857" gradientUnits="userSpaceOnUse">
<stop stop-color="#3741A1"/>
<stop offset="1" stop-color="#152085"/>
</linearGradient>
</defs>
</svg>
