<svg width="87" height="87" viewBox="0 0 87 87" fill="none" xmlns="http://www.w3.org/2000/svg">
<g clip-path="url(#clip0)">
<path d="M80.6597 32.973H5.34873C2.27028 32.973 1.10006 28.9516 3.69675 27.2996L11.7568 22.1745L12.9868 21.3921L41.3523 3.35358C42.3602 2.71124 43.6466 2.71124 44.6546 3.35358L57.8823 11.7655L79.0882 25.2513L82.3101 27.2996C84.9083 28.9516 83.7381 32.973 80.6597 32.973Z" fill="#F9F3F1"/>
<path d="M21.3538 38.7969H65.6002V77.5765H21.3538V38.7969Z" fill="#CDBFBA"/>
<path d="M32.7307 77.2348V58.4183C32.7307 55.6944 34.4286 53.4885 36.5212 53.4885H49.5923C51.6851 53.4885 53.3828 55.6942 53.3828 58.4183V77.2348H32.7307Z" fill="#F9F3F1"/>
<path d="M41.6459 53.4885C39.5532 53.4885 37.855 55.694 37.855 58.4188V77.2347H32.73V58.4188C32.73 55.694 34.4281 53.4885 36.5208 53.4885H41.6459Z" fill="#E1D3CE"/>
<path d="M79.732 32.926V37.8878C79.732 38.4807 79.2501 38.9625 78.6573 38.9625H74.335H63.496H24.4392H13.6004H7.95241C7.35773 38.9625 6.87769 38.4806 6.87769 37.8878V32.926H79.732Z" fill="#F9F3F1"/>
<path d="M80.0289 85.5368H7.19615C5.67452 85.5368 4.44092 84.3031 4.44092 82.7815V79.6481C4.44092 78.1264 5.67452 76.8928 7.19615 76.8928H80.0289C81.5506 76.8928 82.7842 78.1264 82.7842 79.6481V82.7815C82.7842 84.3031 81.5506 85.5368 80.0289 85.5368Z" fill="#F9F3F1"/>
<path d="M43.5704 28.0497C47.9148 28.0497 51.4367 24.5279 51.4367 20.1834C51.4367 15.839 47.9148 12.3171 43.5704 12.3171C39.226 12.3171 35.7041 15.839 35.7041 20.1834C35.7041 24.5279 39.226 28.0497 43.5704 28.0497Z" fill="#FAF8F8"/>
<path d="M10.7568 38.9624H21.5963V72.1096H10.7568V38.9624Z" fill="#F9F3F1"/>
<path d="M65.3252 38.9624H76.1647V71.9388H65.3252V38.9624Z" fill="#F9F3F1"/>
<path d="M8.02856 74.9574V73.8743C8.02856 72.8054 8.89521 71.9387 9.96413 71.9387H21.639C22.7079 71.9387 23.5746 72.8054 23.5746 73.8743V74.9574C23.5746 76.0263 22.7079 76.893 21.639 76.893H9.96413C8.89504 76.893 8.02856 76.0263 8.02856 74.9574Z" fill="#F9F3F1"/>
<path d="M62.6958 74.9574V73.8743C62.6958 72.8054 63.5624 71.9387 64.6314 71.9387H76.3063C77.3752 71.9387 78.2418 72.8054 78.2418 73.8743V74.9574C78.2418 76.0263 77.3752 76.893 76.3063 76.893H64.6314C63.5623 76.893 62.6958 76.0263 62.6958 74.9574Z" fill="#F9F3F1"/>
<path d="M72.7123 25.6387C79.3515 25.6387 84.7335 20.2268 84.7335 13.5509C84.7335 6.87503 79.3515 1.46313 72.7123 1.46313C66.0732 1.46313 60.6912 6.87503 60.6912 13.5509C60.6912 20.2268 66.0732 25.6387 72.7123 25.6387Z" fill="#FFE177"/>
<path d="M72.7685 20.7693C76.7162 20.7693 79.9166 17.5512 79.9166 13.5815C79.9166 9.61186 76.7162 6.3938 72.7685 6.3938C68.8207 6.3938 65.6204 9.61186 65.6204 13.5815C65.6204 17.5512 68.8207 20.7693 72.7685 20.7693Z" fill="#FFC344"/>
<path d="M12.3203 85.5373H7.19527C5.67484 85.5373 4.44141 84.3039 4.44141 82.7818V79.6486C4.44141 78.1265 5.67484 76.8931 7.19527 76.8931H12.3203C10.7999 76.8931 9.56647 78.1265 9.56647 79.6486V82.7818C9.56647 84.3039 10.7999 85.5373 12.3203 85.5373Z" fill="#E1D3CE"/>
<path d="M15.0897 76.893H9.96462C8.89519 76.893 8.02905 76.0268 8.02905 74.9574V73.8743C8.02905 72.8049 8.89519 71.9387 9.96462 71.9387H15.0897C14.0203 71.9387 13.1541 72.8049 13.1541 73.8743V74.9574C13.1541 76.0268 14.0204 76.893 15.0897 76.893Z" fill="#E1D3CE"/>
<path d="M10.7571 38.9624H15.8821V72.1096H10.7571V38.9624Z" fill="#E1D3CE"/>
<path d="M13.0773 38.9624H7.95224C7.35773 38.9624 6.87769 38.4806 6.87769 37.8878V32.9268H12.0027V37.8878C12.0026 38.4806 12.4828 38.9624 13.0773 38.9624Z" fill="#E1D3CE"/>
<path d="M46.1321 27.6223C45.3292 27.899 44.4665 28.0494 43.5696 28.0494C39.2253 28.0494 35.7043 24.5285 35.7043 20.1841C35.7043 15.8398 39.2253 12.3171 43.5696 12.3171C44.4665 12.3171 45.3292 12.4675 46.1321 12.7442C43.0469 13.8068 40.8294 16.7367 40.8294 20.1841C40.8294 23.6316 43.0469 26.5597 46.1321 27.6223Z" fill="#F3EAE6"/>
<path d="M10.4738 32.9729H5.34873C2.27028 32.9729 1.10006 28.9514 3.69675 27.2995L9.33432 23.7153L8.82182 24.2176C6.22495 26.7665 7.39534 32.9729 10.4738 32.9729Z" fill="#E1D3CE"/>
<path d="M75.007 25.4185C74.2618 25.5638 73.4907 25.6388 72.7026 25.6388C66.0634 25.6342 60.6866 20.2176 60.6912 13.5416C60.6958 6.86574 66.0832 1.45828 72.7226 1.46289C73.503 1.46289 74.2664 1.53943 75.0055 1.68481C69.4695 2.7621 65.2861 7.65995 65.2815 13.5418C65.2771 19.431 69.4619 24.3412 75.007 25.4185Z" fill="#FFD064"/>
<path d="M65.3254 38.9624H70.4505V71.9388H65.3254V38.9624Z" fill="#E1D3CE"/>
<path d="M69.7572 76.893H64.6321C63.5627 76.893 62.6965 76.0268 62.6965 74.9574V73.8743C62.6965 72.8049 63.5627 71.9387 64.6321 71.9387H69.7572C68.6877 71.9387 67.8216 72.8049 67.8216 73.8743V74.9574C67.8214 76.0268 68.6877 76.893 69.7572 76.893Z" fill="#E1D3CE"/>
<path d="M83.0293 26.3228L80.5387 24.739C83.9889 22.2592 86.2422 18.2143 86.2422 13.6508C86.242 6.12377 80.1185 0 72.5913 0C65.9179 0 60.3516 4.81466 59.1739 11.152L45.2472 2.29466C43.8268 1.3918 41.9905 1.3918 40.5702 2.29483L2.78807 26.3228C1.11132 27.389 0.386462 29.3106 0.941677 31.2185C1.49467 33.119 3.127 34.3487 5.10357 34.3579V38.0522C5.10357 39.3531 6.1619 40.4115 7.46281 40.4115H8.99349V70.3613C7.57095 70.5617 6.47196 71.782 6.47196 73.2566V75.8075C4.49881 76.0708 2.97154 77.7636 2.97154 79.8077V82.963C2.97154 85.189 4.78257 86.9998 7.00839 86.9998H66.4796C67.1874 86.9998 67.7609 86.4262 67.7609 85.7186C67.7609 85.011 67.1874 84.4373 66.4796 84.4373H7.00839C6.19538 84.4373 5.53408 83.776 5.53408 82.963V79.8077C5.53408 78.9948 6.19538 78.3334 7.00839 78.3334H80.0474C80.8604 78.3334 81.5217 78.9948 81.5217 79.8077V82.963C81.5217 83.776 80.8604 84.4373 80.0474 84.4373H72.288C71.5803 84.4373 71.0068 85.011 71.0068 85.7186C71.0068 86.4262 71.5803 86.9998 72.288 86.9998H80.0474C82.2732 86.9998 84.0842 85.189 84.0842 82.963V79.8077C84.0842 77.5817 82.2732 75.7708 80.0474 75.7708H79.6126V73.2566C79.6126 71.7454 78.4596 70.4982 76.986 70.3453V40.4115H78.3544C79.6553 40.4115 80.7138 39.3531 80.7138 38.0522V34.3579C82.6904 34.3487 84.3227 33.119 84.8755 31.2185C85.4307 29.3106 84.7061 27.389 83.0293 26.3228ZM72.5913 2.56253C78.7053 2.56253 83.6795 7.53675 83.6795 13.6508C83.6795 19.765 78.7053 24.739 72.5913 24.739C66.4772 24.739 61.5032 19.7648 61.5032 13.6508C61.5032 7.53675 66.4772 2.56253 72.5913 2.56253ZM19.7563 40.4115V70.3292H11.5562V40.4115H19.7563ZM22.338 75.771H9.03467V73.2568C9.03467 73.0556 9.20038 72.8919 9.40401 72.8919H21.9669C22.1714 72.8919 22.338 73.0556 22.338 73.2568V75.771ZM52.1146 75.771H33.9705V58.4068C33.9705 56.4533 35.1241 54.803 36.4896 54.803H49.5953C50.9609 54.803 52.1146 56.4534 52.1146 58.4068V75.771ZM77.0502 75.771H63.7471V73.2568C63.7471 73.0556 63.9128 72.8919 64.1163 72.8919H76.6811C76.8845 72.8919 77.0502 73.0556 77.0502 73.2568V75.771ZM74.4236 70.3294H66.2235V40.4115H74.4236V70.3294ZM82.4152 30.5027C82.2332 31.1281 81.6848 31.7964 80.6916 31.7964H32.569C31.8612 31.7964 31.2877 32.3701 31.2877 33.0777C31.2877 33.7853 31.8612 34.3589 32.569 34.3589H78.1513V37.8491H57.938C57.2303 37.8491 56.6568 38.4228 56.6568 39.1304C56.6568 39.838 57.2303 40.4116 57.938 40.4116H63.661V70.3685C62.2605 70.588 61.1846 71.7979 61.1846 73.257V75.7712H54.6771V58.4068C54.6771 55.0066 52.3973 52.2405 49.5953 52.2405H36.4896C33.6876 52.2405 31.408 55.0066 31.408 58.4068V75.7712H24.9005V73.257C24.9005 71.7618 23.7708 70.527 22.3188 70.3526V40.4115H52.1296C52.8374 40.4115 53.4109 39.8378 53.4109 39.1302C53.4109 38.4226 52.8374 37.8489 52.1296 37.8489H7.66627V34.3588H26.7606C27.4683 34.3588 28.0418 33.7851 28.0418 33.0775C28.0418 32.3699 27.4683 31.7962 26.7606 31.7962H5.12595C4.13271 31.7962 3.58433 31.1279 3.40222 30.5025C3.22028 29.8769 3.32449 29.0185 4.16312 28.4851L41.9449 4.45744C42.5305 4.08519 43.2872 4.08536 43.8721 4.45727L58.9506 14.0469C59.1615 21.391 65.1972 27.3016 72.5911 27.3016C74.5191 27.3016 76.3539 26.8975 78.0184 26.1734L81.6539 28.4854C82.4929 29.0185 82.5971 29.8771 82.4152 30.5027Z" fill="black"/>
<path d="M43.5278 11.0427C38.4725 11.0427 34.3596 15.1556 34.3596 20.211C34.3596 25.2663 38.4725 29.3792 43.5278 29.3792C48.5834 29.3792 52.6962 25.2663 52.6962 20.211C52.6962 15.1556 48.5834 11.0427 43.5278 11.0427ZM43.5278 26.8168C39.8855 26.8168 36.9222 23.8535 36.9222 20.2111C36.9222 16.5687 39.8855 13.6054 43.5278 13.6054C47.1702 13.6054 50.1337 16.5687 50.1337 20.2111C50.1337 23.8535 47.1702 26.8168 43.5278 26.8168Z" fill="black"/>
<path d="M72.5913 22.0556C77.2257 22.0556 80.9961 18.2852 80.9961 13.6506C80.9961 9.01619 77.2257 5.24585 72.5913 5.24585C67.9569 5.24585 64.1865 9.01619 64.1865 13.6506C64.1865 18.2852 67.9569 22.0556 72.5913 22.0556ZM72.5913 7.80855C75.8127 7.80855 78.4335 10.4293 78.4335 13.6508C78.4335 16.8722 75.8127 19.4932 72.5913 19.4932C69.3698 19.4932 66.7491 16.8724 66.7491 13.6508C66.7491 10.4293 69.3698 7.80855 72.5913 7.80855Z" fill="black"/>
</g>
<defs>
<clipPath id="clip0">
<rect width="87" height="87" fill="white"/>
</clipPath>
</defs>
</svg>
