<svg width="87" height="87" viewBox="0 0 87 87" fill="none" xmlns="http://www.w3.org/2000/svg">
<g clip-path="url(#clip0)">
<path d="M31.4812 29.9399L31.5292 5.01C31.5309 2.9518 33.2049 1.28466 35.2683 1.28638L72.6674 1.3567C74.7291 1.36185 76.3979 3.03585 76.3945 5.09404L76.3619 30.638L67.6797 34.7527L38.522 33.7236L31.4812 29.9399Z" fill="#6CF5C2"/>
<path d="M64.4531 34.1734C65.1125 30.2307 63.5152 26.0788 60.0128 23.6466C55.172 20.2843 48.5226 21.4827 45.1623 26.3238C43.5612 28.6298 42.9926 31.3444 43.3617 33.9189L64.4531 34.1734Z" fill="#05E39C"/>
<path d="M40.1617 1.29495C38.2167 1.42531 36.6764 3.06672 36.6747 5.07518L36.6267 30.0205L31.4812 29.9399L31.5292 5.01C31.5309 2.9518 33.2049 1.28466 35.2683 1.28638L40.1617 1.29495Z" fill="#05E39C"/>
<path d="M78.9773 67.1238L78.9679 80.2774C78.9648 83.2823 76.698 85.7172 73.9045 85.7139L17.0038 85.6669C14.2101 85.6635 11.9466 83.2254 11.9497 80.2204L11.9825 35.3668C11.984 32.3601 14.2508 29.9253 17.0458 29.9287L73.945 29.9774C76.7387 29.9791 79.0022 32.4172 79.0006 35.4222L78.9897 50.2073L78.9999 67.1694" fill="#BC7C63"/>
<path d="M77.432 67.221L68.8281 67.2138C65.5219 67.2111 62.844 64.5289 62.8464 61.2228L62.8502 56.0824C62.8526 52.7758 65.5353 50.0974 68.842 50.1001L77.4459 50.1073C80.7521 50.11 83.43 52.7922 83.4276 56.0984L83.4238 61.2387C83.4214 64.5454 80.7387 67.2238 77.432 67.221Z" fill="#AA6A51"/>
<path d="M20.4545 85.6708L17.0036 85.6674C14.2096 85.664 11.9473 83.225 11.949 80.22L11.9816 35.3668C11.9833 32.3601 14.2507 29.9246 17.0464 29.928L21.9895 29.9331C19.2864 30.0446 17.1288 32.4476 17.1271 35.3976L17.0945 80.5116C17.0928 82.8905 18.494 84.9144 20.4545 85.6708Z" fill="#AA6A51"/>
<path d="M18.9475 44.1855C27.4432 44.1855 34.3303 37.2984 34.3303 28.8027C34.3303 20.307 27.4432 13.4199 18.9475 13.4199C10.4518 13.4199 3.5647 20.307 3.5647 28.8027C3.5647 37.2984 10.4518 44.1855 18.9475 44.1855Z" fill="#FFE177"/>
<path d="M18.9473 37.4377C23.7162 37.4377 27.5823 33.5717 27.5823 28.8027C27.5823 24.0337 23.7162 20.1677 18.9473 20.1677C14.1783 20.1677 10.3123 24.0337 10.3123 28.8027C10.3123 33.5717 14.1783 37.4377 18.9473 37.4377Z" fill="#FFC344"/>
<path d="M13.2148 39.6805C15.5612 42.0268 18.4787 43.4572 21.5179 43.9701C16.7755 44.7693 11.7295 43.3406 8.06933 39.6805C2.06283 33.6722 2.06283 23.9335 8.06933 17.9253C11.7295 14.2651 16.7755 12.8364 21.5179 13.6357C18.4787 14.1485 15.5612 15.579 13.2148 17.9253C7.20832 23.9335 7.20832 33.6722 13.2148 39.6805Z" fill="#FFD064"/>
<path d="M72.7826 67.2172L68.8275 67.2138C65.5223 67.2103 62.845 64.5295 62.8467 61.2227L62.8501 56.0824C62.8535 52.7755 65.5361 50.0964 68.8429 50.0999L73.7774 50.1033C70.5684 50.2113 67.999 52.8458 67.9956 56.0824L67.9922 61.3462C67.9887 64.2431 70.0487 66.6632 72.7826 67.2172Z" fill="#935B44"/>
<path d="M20.7714 84.3844L17.0053 84.381C14.9253 84.3784 13.2342 82.5121 13.2355 80.2208L13.2616 44.4674C15.0948 45.1296 17.0207 45.4639 18.9477 45.4639C23.2162 45.4639 27.4849 43.8391 30.7345 40.5894C33.3662 37.9576 34.9315 34.6576 35.432 31.2306C35.432 31.2306 75.1633 31.427 75.7104 31.7468C76.9474 32.4739 77.7151 33.8815 77.7139 35.4209L77.7122 39.0399C77.7118 39.7503 78.2874 40.3264 78.9979 40.3268H78.9985C79.7088 40.3268 80.2846 39.7513 80.2849 39.0409L80.2866 35.4223C80.2883 33.2442 79.2939 31.2181 77.6496 29.9598L77.6811 5.09593C77.6858 2.33142 75.4384 0.0768394 72.6701 0.0699787L35.2696 0C35.268 0 35.267 0 35.2654 0C32.4984 0 30.2455 2.24618 30.2431 5.00742L30.2397 6.70715C30.2383 7.41757 30.8131 7.99472 31.5235 7.9961H31.5262C32.2354 7.9961 32.811 7.42186 32.8126 6.7123L32.816 5.01102C32.817 3.66616 33.9156 2.57275 35.2641 2.57275H35.2661L72.6646 2.64307C74.0144 2.6465 75.1108 3.74489 75.1084 5.09232L75.0782 28.8012C74.7055 28.7295 65.2875 28.6837 65.2875 28.6837C64.4809 26.2214 62.8959 24.0833 60.7473 22.5904C58.124 20.7676 54.9483 20.0758 51.8048 20.6425C48.6614 21.2092 45.9272 22.9666 44.1071 25.5897C43.4433 26.5441 42.9298 27.575 42.5707 28.664L35.6054 28.658C35.5779 25.4602 34.6387 22.2702 32.7874 19.5138L32.8004 12.5437C32.8018 11.8333 32.2269 11.2563 31.5164 11.2549C31.5156 11.2549 31.5147 11.2549 31.5139 11.2549C30.8046 11.2549 30.2289 11.8293 30.2275 12.5389L30.2201 16.527C23.6889 10.5234 13.4916 10.6846 7.16059 17.0158C0.661314 23.5151 0.661314 34.0903 7.16059 40.5895C8.23685 41.6658 9.42666 42.5599 10.6895 43.2798L10.6626 80.2193C10.6606 83.9283 13.5043 86.9496 17.0024 86.9539L20.7689 86.9573H20.7701C21.48 86.9573 22.0558 86.382 22.0564 85.6721C22.0573 84.9615 21.4819 84.3851 20.7714 84.3844ZM46.2202 27.0577C47.6491 24.9985 49.7948 23.6194 52.2615 23.1746C54.7276 22.7297 57.2204 23.2727 59.2793 24.7033C60.7274 25.7095 61.8491 27.0888 62.5383 28.6813L45.3213 28.6664C45.5659 28.1062 45.8652 27.5682 46.2202 27.0577ZM8.98003 18.8349C11.7281 16.0869 15.338 14.7129 18.9477 14.7129C22.5574 14.7129 26.1672 16.0869 28.9154 18.8349C34.4115 24.3312 34.4115 33.274 28.9154 38.7703C23.4191 44.2667 14.4763 44.2665 8.98003 38.7703C3.48379 33.2742 3.48379 24.3312 8.98003 18.8349Z" fill="black"/>
<path d="M80.2767 49.3967L80.2797 44.8729C80.2802 44.1625 79.7044 43.5862 78.9941 43.5857C78.9938 43.5857 78.9936 43.5857 78.9933 43.5857C78.2832 43.5857 77.7074 44.1611 77.7069 44.8712L77.7045 48.8276C77.6189 48.8245 68.8433 48.8135 68.8433 48.8135C68.8412 48.8135 68.8393 48.8135 68.8371 48.8135C66.8967 48.8135 65.0718 49.5685 63.6985 50.9396C62.3234 52.3123 61.5655 54.1382 61.5643 56.0812L61.5605 61.2217C61.5576 65.2316 64.8176 68.4967 68.8273 68.5C68.8273 68.5 77.6064 68.5039 77.6906 68.5012L77.6814 80.2758C77.6807 81.4032 77.2761 82.4582 76.5418 83.2466C75.8328 84.008 74.8985 84.4272 73.9099 84.4272C73.9085 84.4272 73.9068 84.4272 73.9056 84.4272L26.6031 84.3895C26.6027 84.3895 26.6024 84.3895 26.602 84.3895C25.8921 84.3895 25.3162 84.9647 25.3157 85.6748C25.3152 86.3852 25.8906 86.9615 26.601 86.9622L73.903 86.9999H73.9106C75.6206 86.9999 77.2234 86.2897 78.4245 84.9997C79.6032 83.7339 80.2529 82.0567 80.2539 80.2774L80.2637 67.9386C81.1168 67.5788 81.9012 67.0548 82.5761 66.3809C83.951 65.0083 84.7089 63.1823 84.7103 61.2394L84.7139 56.099C84.7161 53.0927 82.884 50.5048 80.2767 49.3967ZM82.1374 61.2376C82.1363 62.4933 81.6466 63.6734 80.758 64.5606C79.8696 65.4477 78.6899 65.9293 77.433 65.9346L68.8291 65.9274C66.2378 65.9252 64.1309 63.8152 64.1328 61.2238L64.1365 56.0832C64.1374 54.8276 64.6272 53.6475 65.5157 52.7605C66.4035 51.8742 67.5826 51.3864 68.8366 51.3864H68.8405L77.4445 51.3936C80.0359 51.3959 82.1428 53.5059 82.1408 56.0973L82.1374 61.2376Z" fill="black"/>
<path d="M28.8689 28.8027C28.8689 23.332 24.4182 18.8813 18.9475 18.8813C13.4768 18.8813 9.02612 23.332 9.02612 28.8027C9.02612 34.2734 13.4768 38.7241 18.9475 38.7241C24.4182 38.7241 28.8689 34.2734 28.8689 28.8027ZM18.9475 36.1513C14.8954 36.1513 11.5989 32.8548 11.5989 28.8027C11.5989 24.7506 14.8954 21.4541 18.9475 21.4541C22.9996 21.4541 26.2961 24.7506 26.2961 28.8027C26.2961 32.8548 22.9996 36.1513 18.9475 36.1513Z" fill="black"/>
</g>
<defs>
<clipPath id="clip0">
<rect width="87" height="87" fill="white"/>
</clipPath>
</defs>
</svg>
