<svg width="87" height="87" viewBox="0 0 87 87" fill="none" xmlns="http://www.w3.org/2000/svg">
<path d="M54.9619 59.9672L52.1483 61.7095C51.2841 62.2446 50.1499 61.9779 49.6148 61.1137L45.1223 53.8586C44.5871 52.9944 44.8539 51.8603 45.7181 51.3251L48.5316 49.5829C49.3958 49.0477 50.53 49.3144 51.0652 50.1786L55.5577 57.4337C56.0928 58.2977 55.8259 59.4321 54.9619 59.9672Z" fill="#685E68"/>
<path d="M37.5566 57.0762C49.7477 57.0762 59.6305 47.1934 59.6305 35.0023C59.6305 22.8113 49.7477 12.9285 37.5566 12.9285C25.3656 12.9285 15.4828 22.8113 15.4828 35.0023C15.4828 47.1934 25.3656 57.0762 37.5566 57.0762Z" fill="#7A6D79"/>
<path d="M52.9852 38.1531C52.9526 38.3175 52.915 38.4801 52.8773 38.6427C51.9477 42.5511 49.5322 46.1068 45.8463 48.3889C43.3452 49.9382 40.5804 50.7017 37.8378 50.7479C37.7659 50.7496 37.694 50.7496 37.6221 50.7496C37.5314 50.7496 37.439 50.7496 37.3465 50.7462C36.6309 50.7376 35.9187 50.6777 35.2117 50.5716C30.8017 49.9056 26.7016 47.3805 24.1697 43.2907C19.5919 35.8985 21.8739 26.1935 29.2661 21.614C33.5032 18.9896 38.5004 18.6215 42.8556 20.1742C42.9258 20.1982 42.9959 20.2239 43.0644 20.2496C45.4971 21.1552 47.7209 22.6651 49.4876 24.7229C49.4962 24.7332 49.5048 24.7434 49.515 24.7537C50.032 25.3597 50.5114 26.0137 50.9445 26.7122C53.1444 30.2662 53.7607 34.356 52.9852 38.1531Z" fill="#8AC9FE"/>
<path d="M40.1404 50.5373C38.4969 50.8112 36.8329 50.8163 35.2117 50.5715C30.8017 49.9056 26.7016 47.3805 24.1697 43.2906C19.5919 35.8984 21.8739 26.1934 29.2661 21.6139C32.6369 19.5271 36.4854 18.8662 40.1113 19.4654C38.1426 19.7907 36.2029 20.4977 34.402 21.6139C27.0098 26.1934 24.7277 35.8984 29.3055 43.2906C31.7981 47.3171 35.8092 49.8251 40.1404 50.5373Z" fill="#60B7FF"/>
<path d="M46.4336 32.8136L52.9853 38.1532C52.9528 38.3175 52.9151 38.4802 52.8774 38.6428C51.9478 42.5512 49.5323 46.1069 45.8465 48.3889C43.3453 49.9382 40.5805 50.7018 37.838 50.748C37.7661 50.7497 37.6942 50.7497 37.6222 50.7497C37.5298 50.7497 37.4374 50.748 37.3466 50.7463C36.6379 50.7326 35.9326 50.6727 35.2341 50.5682L42.8232 41.7654C43.4412 41.0481 43.347 39.9679 42.616 39.367L34.8438 32.9968C34.1316 32.4147 34.0203 31.3687 34.5938 30.6497L42.8557 20.1743L43.2614 19.6607L43.2631 19.659L47.4026 14.4119L50.1982 10.8699L55.2433 15.059L49.8302 24.2196L49.5152 24.7538L46.0331 30.6497C45.6085 31.3705 45.7797 32.2932 46.4336 32.8136Z" fill="#6CF5C2"/>
<path d="M59.3076 16.0998C58.6382 16.3959 55.6235 14.5761 52.821 12.515C50.0682 10.4932 47.5174 8.23509 47.5961 7.5195C47.7536 6.07633 59.7116 0.810375 60.8826 1.66806C60.9082 1.68689 60.9322 1.71086 60.9562 1.74167C61.9936 3.09069 60.6069 15.528 59.3076 16.0998Z" fill="#6CF5C2"/>
<path d="M70.5066 81.2376L64.2614 85.1049C63.2566 85.727 61.9376 85.417 61.3155 84.4121L48.7712 64.1541C48.149 63.1493 48.4591 61.8303 49.464 61.2081L55.7092 57.3409C56.7139 56.7187 58.033 57.0288 58.6551 58.0337L71.1994 78.2917C71.8215 79.2964 71.5113 80.6155 70.5066 81.2376Z" fill="#BC7C63"/>
<path d="M65.8916 84.0967L64.2619 85.105C63.257 85.7264 61.937 85.4166 61.3156 84.4117L48.7705 64.1542C48.149 63.1493 48.4589 61.8294 49.4638 61.2079L51.1997 60.1328C50.9258 60.756 50.9549 61.4972 51.3401 62.1204L64.3303 83.0986C64.6847 83.6738 65.2702 84.0213 65.8916 84.0967Z" fill="#AA6A51"/>
<path d="M53.3123 13.4549L52.5385 14.4427L48.399 19.7361L48.3973 19.7378L47.9915 20.2565L39.7297 30.8243C39.1562 31.5485 39.2674 32.6048 39.9796 33.192L47.7519 39.6169C48.4829 40.2247 48.577 41.3134 47.959 42.0376L40.8013 50.4142C39.8187 50.6213 38.8275 50.7309 37.838 50.748C37.7661 50.7497 37.6942 50.7497 37.6222 50.7497C37.5298 50.7497 37.4374 50.748 37.3466 50.7463C36.6379 50.7326 35.9326 50.6727 35.2341 50.5682L42.8231 41.7654C43.4412 41.0481 43.347 39.9679 42.616 39.367L34.8438 32.9968C34.1316 32.4147 34.0203 31.3687 34.5938 30.6497L42.8557 20.1743L43.2614 19.6607L43.2631 19.659L47.4026 14.4119L50.1982 10.8699L53.3123 13.4549Z" fill="#05E39C"/>
<path d="M61.2729 6.06605C57.6847 7.23018 52.0387 9.9128 51.0474 11.1557C49.0667 9.5687 47.5345 8.07588 47.5962 7.5195C47.7537 6.07633 59.7116 0.810375 60.8826 1.66806C60.9083 1.68689 60.9322 1.71086 60.9562 1.74167C61.3089 2.20048 61.3808 3.94324 61.2729 6.06605Z" fill="#05E39C"/>
<path d="M49.904 63.6196C49.651 63.2105 49.7773 62.6722 50.1863 62.4194L56.4765 58.5242C56.6739 58.4018 56.9071 58.3636 57.133 58.417C57.3599 58.4706 57.5527 58.6093 57.6706 58.7996L64.3032 69.6787C64.6725 70.2841 65.4622 70.4758 66.0679 70.1067C66.6734 69.7376 66.865 68.9476 66.4959 68.342L59.8581 57.4547C59.374 56.6739 58.6154 56.1282 57.722 55.9176C57.1993 55.7945 56.6679 55.7983 56.1603 55.916L53.7225 51.9799C57.4563 48.4341 59.9371 43.7206 60.7465 38.5906C61.6228 33.0365 60.4732 27.3421 57.5097 22.5562C56.6409 21.1537 55.6313 19.8532 54.5047 18.675L55.9708 16.1855C56.0133 16.1136 56.0472 16.039 56.0742 15.9631C57.8213 16.9733 58.7582 17.2163 59.3033 17.2163C59.6197 17.2163 59.8045 17.1348 59.9403 17.075C60.4436 16.8533 61.6223 16.3344 62.437 8.87633C63.2521 1.41566 62.2131 0.654361 61.7693 0.329262C61.3256 0.00416334 60.2866 -0.756969 53.4197 2.26702C46.5522 5.29117 46.4123 6.57154 46.3526 7.11816C46.3072 7.5328 46.2185 8.37114 48.8183 10.6864L46.7533 13.312C39.7006 10.2988 31.6956 10.8838 25.1395 14.9442C19.7989 18.2508 16.0658 23.439 14.6278 29.5529C13.1897 35.6668 14.219 41.9748 17.5256 47.3145C20.4891 52.1008 25.0746 55.6682 30.4371 57.359C32.7501 58.0883 35.1441 58.4511 37.5319 58.4511C40.2575 58.4511 42.9746 57.9777 45.5533 57.0386L47.9919 60.976C47.0834 62.0814 46.9261 63.6867 47.7204 64.971L51.1015 70.4313C51.3444 70.8237 51.7646 71.0396 52.1944 71.0396C52.425 71.0396 52.6585 70.9774 52.8691 70.847C53.472 70.4736 53.6581 69.6823 53.2848 69.0794L49.904 63.6196ZM47.9382 56.0123C48.6074 55.6806 49.2639 55.3208 49.8977 54.9284C50.5331 54.5348 51.1476 54.1077 51.7413 53.6576L53.8803 57.1115L50.0774 59.4664L47.9382 56.0123ZM54.4544 4.61718C57.1771 3.41813 59.159 2.78779 60.0995 2.60786C60.2111 3.55902 60.2072 5.6387 59.8843 8.59609C59.5614 11.5535 59.1162 13.5852 58.8019 14.4896C57.9224 14.1108 56.1232 13.0675 53.7235 11.309C51.3237 9.5505 49.7869 8.14927 49.1609 7.42477C49.9287 6.85247 51.7319 5.81606 54.4544 4.61718ZM52.2057 13.3805C52.8441 13.8482 53.4265 14.2592 53.9613 14.623C53.8846 14.6992 44.6855 30.2883 44.6855 30.2883C43.9517 31.54 44.2517 33.1687 45.3829 34.0767L51.5141 38.9991C50.5102 42.4719 48.2866 45.4095 45.1905 47.3262C42.9569 48.7091 40.4006 49.4534 37.8046 49.5048L43.6071 42.7544C44.1277 42.1479 44.3763 41.3754 44.3071 40.5796C44.238 39.7833 43.8598 39.065 43.242 38.5569L35.5868 32.2631C35.4283 32.1331 35.4033 31.8964 35.5348 31.7308L50.7995 12.3209C51.2275 12.6529 51.6927 13.0045 52.2057 13.3805ZM49.9093 27.2633C51.5744 29.9526 52.3076 33.0379 52.046 36.1329L46.9906 32.0743C46.8451 31.9573 46.8066 31.748 46.8995 31.5891L49.6674 26.8891C49.7494 27.0129 49.8312 27.137 49.9093 27.2633ZM25.1278 42.6075C20.8976 35.7767 23.0138 26.7765 29.8446 22.5447C33.1887 20.4744 37.132 19.8542 40.8973 20.7585L33.52 30.1389C32.526 31.391 32.7227 33.2346 33.9572 34.2476L41.611 40.5404C41.7135 40.6247 41.7426 40.7292 41.749 40.8018C41.7553 40.8742 41.7447 40.9817 41.6593 41.0815L34.6595 49.2247C30.7064 48.4338 27.2599 46.0515 25.1278 42.6075ZM19.7088 45.9626C16.7633 41.206 15.8465 35.5872 17.1274 30.141C18.4083 24.6947 21.7339 20.073 26.4912 17.1274C32.133 13.6337 38.9792 13.0288 45.1022 15.4112L42.6178 18.5701C37.8587 17.0836 32.7609 17.7187 28.4923 20.3615C20.4575 25.3389 17.9688 35.9251 22.9443 43.9593C25.5885 48.2306 29.9513 51.1144 34.9188 51.8781C34.9317 51.8805 34.9445 51.8824 34.9573 51.8844C34.9597 51.8847 34.962 51.8853 34.9644 51.8856C35.8131 52.014 36.666 52.0775 37.5167 52.0775C40.686 52.0775 43.8187 51.196 46.5424 49.5096C50.4354 47.0993 53.1567 43.3173 54.2049 38.8601C55.2532 34.403 54.503 29.8046 52.0927 25.9112C51.7842 25.4132 51.4478 24.9323 51.0919 24.47L53.1439 20.9856C53.9493 21.8897 54.6815 22.8669 55.3266 23.9081C60.7814 32.7166 59.0581 44.0158 51.2285 50.7757C50.3962 51.4956 49.4937 52.1581 48.5459 52.745C47.6021 53.3295 46.6065 53.8424 45.5863 54.2695C36.0461 58.266 25.1631 54.7721 19.7088 45.9626Z" fill="black"/>
<path d="M72.4913 77.857L69.7568 73.4398C69.3838 72.8371 68.5925 72.6506 67.9893 73.024C67.3863 73.3972 67.2002 74.1886 67.5734 74.7916L70.3084 79.2096C70.5611 79.6172 70.4337 80.1553 70.0253 80.4085L63.7364 84.3028C63.5385 84.4251 63.3047 84.4632 63.0784 84.4102C62.8522 84.3569 62.6605 84.2188 62.5398 84.0236L56.4933 74.1996C56.1217 73.5958 55.3309 73.4073 54.727 73.7792C54.1232 74.1508 53.9348 74.9417 54.3065 75.5455L60.3543 85.3718C61.0036 86.4217 62.1305 87 63.2833 87C63.9004 87 64.5251 86.8343 65.0878 86.4864L71.3781 82.5912C72.9904 81.5913 73.4897 79.4671 72.4913 77.857Z" fill="black"/>
</svg>
