<svg width="87" height="87" viewBox="0 0 87 87" fill="none" xmlns="http://www.w3.org/2000/svg">
<g clip-path="url(#clip0)">
<path d="M17.5395 27.0322L37.1561 5.71883C38.7223 4.01879 41.3637 3.91489 43.0576 5.4865L49.3577 11.3405C51.0516 12.914 51.1531 15.568 49.589 17.2701L31.1982 37.2515L17.2881 37.0753L17.5395 27.0322Z" fill="#F9F3F1"/>
<path d="M45.0719 7.35837C43.7382 7.14205 42.3262 7.57979 41.3417 8.64945L21.7251 29.9625L21.5446 37.1299L17.2881 37.0754L17.5385 27.0329L37.1551 5.71811C38.7221 4.01825 41.3639 3.91435 43.0569 5.48647L45.0719 7.35837Z" fill="#E1D3CE"/>
<path d="M13.3521 59.8515L18.4619 62.0658L25.7859 62.5768L31.1981 59.899V29.5986C31.1981 28.1803 30.085 27.032 28.7127 27.032H15.8548C14.4823 27.032 13.3713 28.1803 13.3713 29.5986V59.897" fill="#F9F3F1"/>
<path d="M20.9638 27.033C19.5927 27.033 18.4804 28.181 18.4804 29.5981V59.8976H13.3706V29.5981C13.3706 28.181 14.4828 27.033 15.854 27.033H20.9638Z" fill="#E1D3CE"/>
<path d="M9.95386 69.6335C9.95386 61.6719 15.52 55.1206 22.2842 55.1206C29.0484 55.1206 34.6145 61.6719 34.6145 69.6335H9.95386Z" fill="#8AC9FE"/>
<path d="M24.8388 55.4384C19.2827 56.8385 15.0637 62.7029 15.0637 69.6335V69.7476L9.95386 69.7783V69.6335C9.95386 61.6724 15.5202 55.1199 22.2839 55.1199C23.1593 55.1199 24.0144 55.2289 24.8388 55.4384Z" fill="#60B7FF"/>
<path d="M61.2292 40.015L69.0534 37.4385C69.4015 37.3239 69.7831 37.3738 70.09 37.5741L76.2064 41.5657C76.727 41.9053 77.4205 41.7939 77.8084 41.3082L79.3166 39.4194C79.7401 38.8892 79.643 38.114 79.1017 37.7045L71.2867 31.7935C70.9624 31.5482 70.5362 31.4828 70.1533 31.6196L59.7351 35.3394L61.2292 40.015Z" fill="#766E6E"/>
<path d="M39.6735 82.3026H4.89468C2.89674 82.3026 1.2771 80.683 1.2771 78.685V73.029C1.2771 71.031 2.89674 69.4114 4.89468 69.4114H39.6735C41.6714 69.4114 43.2911 71.031 43.2911 73.029V78.685C43.2911 80.683 41.6714 82.3026 39.6735 82.3026Z" fill="#F9F3F1"/>
<path d="M42.3743 25.1088L48.0802 34.3031C48.7888 35.446 50.1293 35.9485 51.3642 35.6453C51.6724 35.5721 51.9722 35.4443 52.255 35.2689L55.9221 32.9695C56.273 32.7497 56.5625 32.4704 56.7874 32.1519C57.4772 31.181 57.5607 29.8491 56.893 28.7743L49.6864 17.1597L42.3743 25.1088Z" fill="#F9F3F1"/>
<path d="M73.0084 82.6283C80.0304 82.6283 85.7228 76.9359 85.7228 69.9139C85.7228 62.8919 80.0304 57.1995 73.0084 57.1995C65.9864 57.1995 60.2939 62.8919 60.2939 69.9139C60.2939 76.9359 65.9864 82.6283 73.0084 82.6283Z" fill="#FFE177"/>
<path d="M73.0083 77.4082C77.1474 77.4082 80.5027 74.0529 80.5027 69.9138C80.5027 65.7748 77.1474 62.4194 73.0083 62.4194C68.8693 62.4194 65.5139 65.7748 65.5139 69.9138C65.5139 74.0529 68.8693 77.4082 73.0083 77.4082Z" fill="#FFC344"/>
<path d="M51.364 35.6447L52.7593 33.8205L56.7878 32.1521L60.6567 37.7675C61.4629 38.9369 61.1703 40.545 60.0042 41.3569L58.9359 42.0997C57.7699 42.9117 56.1691 42.6211 55.3638 41.4499L51.365 35.6455" fill="#F9F3F1"/>
<path d="M10.0052 82.3025H4.89534C2.8974 82.3025 1.27759 80.6827 1.27759 78.6847V73.0299C1.27759 71.0319 2.8974 69.4121 4.89534 69.4121H10.0052C8.00722 69.4121 6.38741 71.0319 6.38741 73.0299V78.6847C6.38741 80.6827 8.00722 82.3025 10.0052 82.3025Z" fill="#E1D3CE"/>
<path d="M56.6134 32.376C56.4175 32.6008 56.1876 32.8018 55.9219 32.9688L52.2547 35.2682C51.972 35.4436 51.6722 35.5714 51.3639 35.6446C50.129 35.9478 48.7886 35.4453 48.08 34.3024L42.374 25.1081L45.6596 21.5364L51.6228 31.5465C52.3995 32.8512 53.8677 33.4235 55.2201 33.0778C55.5574 32.9943 55.8861 32.8495 56.1944 32.6485L56.6134 32.376Z" fill="#E1D3CE"/>
<path d="M75.564 82.3704C74.7397 82.5391 73.8846 82.6276 73.0091 82.6276C65.9865 82.6276 60.2942 76.9353 60.2942 69.9144C60.2942 62.8918 65.9865 57.1995 73.0091 57.1995C73.8846 57.1995 74.7397 57.288 75.564 57.4567C69.7661 58.6387 65.404 63.7673 65.404 69.9144C65.404 76.0598 69.7661 81.1884 75.564 82.3704Z" fill="#FFD064"/>
<path d="M57.384 42.5667L52.3416 49.1151C52.1198 49.4031 52.0398 49.7758 52.1236 50.1294L53.802 57.2078C53.9515 57.8384 53.576 58.4745 52.9517 58.6483L50.366 59.3679C49.7257 59.5461 49.0619 59.1729 48.8816 58.5331L46.2801 49.3094C46.1739 48.9323 46.2572 48.5269 46.504 48.2225L53.5031 39.5842L57.384 42.5667Z" fill="#766E6E"/>
<path d="M53.3745 49.8673L58.0503 43.7948C58.624 43.7078 59.1745 43.4898 59.6647 43.1484L60.7336 42.4051C61.2204 42.0662 61.6013 41.6318 61.8769 41.1466L69.4203 38.6625L75.5084 42.6356C75.9287 42.9098 76.4007 43.0425 76.8679 43.0425C77.5984 43.0425 78.3169 42.7185 78.8064 42.1055L80.3147 40.2168C80.7366 39.6886 80.9224 39.0284 80.8382 38.3578C80.7543 37.6872 80.4109 37.0935 79.872 36.6859L72.057 30.7748C71.3869 30.2679 70.5142 30.1341 69.7237 30.4165L59.6265 34.0214L58.2848 32.0743C58.8294 30.7951 58.7325 29.3153 57.9779 28.1007L51.2175 17.205C52.5125 15.0219 52.151 12.1913 50.2263 10.4049L43.9257 4.55037C42.8569 3.5577 41.47 3.04297 40.0104 3.09884C38.5534 3.15556 37.2056 3.77828 36.2125 4.85543L28.6755 13.0856C28.1991 13.606 28.2345 14.414 28.7548 14.8906C29.2752 15.3672 30.0831 15.3316 30.5598 14.8112L38.0939 6.58408C38.6204 6.01297 39.3363 5.68185 40.1097 5.65171C40.8813 5.62173 41.6197 5.89562 42.1869 6.42227L48.4878 12.2769C49.6438 13.35 49.7441 15.1291 48.716 16.3271C48.7102 16.334 48.6537 16.399 48.6486 16.4046L32.4763 33.9765V29.5265C32.4763 27.4463 30.7877 25.7537 28.7119 25.7537H20.4504L26.5895 19.0836C27.0672 18.5644 27.0337 17.7564 26.5147 17.2784C25.9954 16.8005 25.1875 16.8342 24.7096 17.3532L16.9781 25.7536H15.8541C13.7803 25.7536 12.0932 27.4461 12.0932 29.5263V58.9657C10.0415 61.5334 8.85277 64.7359 8.69504 68.1327H4.89504C2.19603 68.1329 0 70.3289 0 73.0281V78.6847C0 81.3839 2.19603 83.5799 4.89504 83.5799H39.6742C42.3209 83.5799 44.5154 81.4276 44.5658 78.7823C44.5791 78.0768 44.0182 77.4941 43.3129 77.4806C42.6096 77.4655 42.0247 78.0281 42.0113 78.7334C41.9872 79.9969 40.9389 81.0248 39.6742 81.0248H4.89504C3.60464 81.0248 2.55491 79.9749 2.55491 78.6845V73.0279C2.55491 71.7375 3.60464 70.6876 4.89504 70.6876H39.6742C40.9419 70.6876 41.9905 71.7193 42.0113 72.9876C42.0227 73.6931 42.6066 74.2523 43.3095 74.2439C44.015 74.2323 44.5772 73.6512 44.5658 72.9457C44.5224 70.2918 42.3279 68.1327 39.6742 68.1327H35.873C35.7153 64.7366 34.5271 61.5348 32.4762 58.9674V49.9724C32.4762 49.2669 31.9044 48.695 31.1987 48.695C30.493 48.695 29.9212 49.2669 29.9212 49.9724V56.4622C27.6801 54.7597 25.0432 53.8428 22.2839 53.8428C19.5253 53.8428 16.8888 54.7593 14.648 56.4612V29.5265C14.648 28.8551 15.1889 28.3087 15.8539 28.3087H28.7118C29.3786 28.3087 29.9212 28.8551 29.9212 29.5265V44.1815C29.9212 44.887 30.493 45.4589 31.1987 45.4589C31.9044 45.4589 32.4762 44.887 32.4762 44.1815V37.7492L42.1754 27.2109L46.9945 34.976C47.7929 36.2638 49.18 37.0119 50.638 37.0119C50.6762 37.0119 50.7145 37.0095 50.7528 37.0085L52.2202 39.1382L45.5115 47.4182C45.0041 48.0443 44.832 48.881 45.0507 49.656L47.6522 58.8799C47.9605 59.9724 48.9606 60.6894 50.0449 60.6894C50.2643 60.6894 50.4873 60.66 50.7085 60.5985L53.2943 59.8788C54.5853 59.5196 55.3545 58.2168 55.0452 56.9129L53.3745 49.8673ZM22.2841 56.3977C28.1476 56.3977 32.9568 61.5944 33.3135 68.1329H11.2547C11.6114 61.5944 16.4206 56.3977 22.2841 56.3977ZM59.2748 40.3077L58.2056 41.051C57.9229 41.2481 57.5809 41.3232 57.2428 41.2612C56.905 41.1997 56.6115 41.0096 56.4157 40.7248L53.2057 36.0655C53.6097 35.8182 54.1275 35.4937 54.7955 35.0666C55.5274 34.5985 56.073 34.241 56.4843 33.963L59.6049 38.4922C60.0121 39.0831 59.8638 39.8977 59.2748 40.3077ZM70.5469 32.8356L78.2731 38.6796L76.8505 40.4607L70.7881 36.5043C70.1529 36.0897 69.375 35.9879 68.6539 36.2251L62.2771 38.3251C62.1697 37.878 61.9842 37.4426 61.7084 37.0425L61.1273 36.1989L70.5469 32.8356ZM49.1655 33.6293L43.9714 25.2598L49.4893 19.2646L55.8079 29.4483C56.1646 30.0222 56.1631 30.7408 55.8108 31.3141C55.1203 31.8552 51.6899 34.0369 50.9577 34.4265C50.2554 34.5558 49.5465 34.2435 49.1655 33.6293ZM50.8807 50.424L52.5434 57.4358L50.0918 58.118L47.5196 48.998L53.7311 41.3317L54.3109 42.1735C54.584 42.5705 54.9234 42.9033 55.3092 43.167L51.3294 48.3356C50.8708 48.9312 50.7073 49.6924 50.8807 50.424Z" fill="black"/>
<path d="M73.0083 55.9219C65.2932 55.9219 59.0166 62.1986 59.0166 69.9136C59.0166 77.6286 65.2933 83.9055 73.0083 83.9055C80.7233 83.9055 87 77.6287 87 69.9136C87 62.1984 80.7235 55.9219 73.0083 55.9219ZM73.0083 81.3506C66.7021 81.3506 61.5715 76.22 61.5715 69.9136C61.5715 63.6072 66.7021 58.4768 73.0083 58.4768C79.3145 58.4768 84.4451 63.6074 84.4451 69.9136C84.4451 76.2198 79.3145 81.3506 73.0083 81.3506Z" fill="black"/>
<path d="M61.0004 57.053C61.1786 57.053 61.3594 57.0155 61.5322 56.9363C62.1734 56.6421 62.4548 55.8838 62.1607 55.2426L60.5282 51.6832C60.2339 51.0418 59.4761 50.7606 58.8345 51.0546C58.1932 51.3487 57.9118 52.107 58.206 52.7483L59.8384 56.3076C60.0534 56.7765 60.5163 57.053 61.0004 57.053Z" fill="black"/>
<path d="M70.7071 45.8636C70.0658 46.1578 69.7844 46.9161 70.0786 47.5573L71.711 51.1165C71.9261 51.5852 72.3889 51.8617 72.873 51.8617C73.0511 51.8617 73.232 51.8242 73.4047 51.745C74.046 51.4509 74.3274 50.6926 74.0332 50.0513L72.4008 46.4921C72.1066 45.851 71.3489 45.5696 70.7071 45.8636Z" fill="black"/>
<path d="M63.8304 45.9704C63.1891 46.2646 62.9077 47.0229 63.2018 47.6641L65.7654 53.2536C65.9806 53.7223 66.4433 53.9988 66.9274 53.9988C67.1056 53.9988 67.2865 53.9613 67.4592 53.8821C68.1005 53.588 68.3818 52.8297 68.0877 52.1884L65.5241 46.5989C65.2299 45.9576 64.4723 45.6762 63.8304 45.9704Z" fill="black"/>
<path d="M73.0082 61.1418C68.1714 61.1418 64.2363 65.0769 64.2363 69.9137C64.2363 74.7505 68.1714 78.6856 73.0082 78.6856C77.845 78.6856 81.7801 74.7505 81.7801 69.9137C81.7801 65.0769 77.845 61.1418 73.0082 61.1418ZM73.0082 76.1307C69.5802 76.1307 66.7912 73.3417 66.7912 69.9137C66.7912 66.4857 69.5802 63.6968 73.0082 63.6968C76.4362 63.6968 79.2251 66.4857 79.2251 69.9137C79.2251 73.3417 76.4362 76.1307 73.0082 76.1307Z" fill="black"/>
</g>
<defs>
<clipPath id="clip0">
<rect width="87" height="87" fill="white"/>
</clipPath>
</defs>
</svg>
