<svg width="87" height="87" viewBox="0 0 87 87" fill="none" xmlns="http://www.w3.org/2000/svg">
<g clip-path="url(#clip0)">
<path d="M76.6488 61.9165H4.18601C2.58059 61.9165 1.2793 60.615 1.2793 59.0097V18.946C1.2793 17.3406 2.58076 16.0393 4.18601 16.0393H76.6488C78.2543 16.0393 79.5556 17.3408 79.5556 18.946V59.0097C79.5556 60.615 78.2543 61.9165 76.6488 61.9165Z" fill="#8AC9FE"/>
<path d="M9.33532 61.9165H4.18645C2.58 61.9165 1.27905 60.6155 1.27905 59.0091V18.9457C1.27905 17.341 2.58 16.04 4.18645 16.04H9.33532C7.72887 16.04 6.42793 17.341 6.42793 18.9457V59.0091C6.42793 60.6154 7.72887 61.9165 9.33532 61.9165Z" fill="#60B7FF"/>
<path d="M78.867 57.1941C79.3421 57.1941 79.7272 57.578 79.7272 58.0516V62.9505C79.7272 66.1222 77.2065 68.7087 74.0609 68.81C73.9972 68.8117 73.9335 68.8134 73.868 68.8134H6.98206C6.93211 68.8134 6.88045 68.8134 6.83051 68.8117C3.66412 68.731 1.12109 66.1377 1.12109 62.9505V58.0516C1.12109 57.578 1.50623 57.1941 1.9813 57.1941H78.867Z" fill="#F9F3F1"/>
<path d="M59.7099 85.7206H20.9566C19.7576 85.7206 18.7856 84.7487 18.7856 83.5497V81.4563C18.7856 80.2573 19.7576 79.2854 20.9566 79.2854H59.7099C60.9089 79.2854 61.8809 80.2573 61.8809 81.4563V83.5497C61.8809 84.7485 60.9087 85.7206 59.7099 85.7206Z" fill="#F9F3F1"/>
<path d="M46.5278 79.1808V68.9009H34.4185V69.3693V79.1808H46.5278Z" fill="#F9F3F1"/>
<path d="M11.5352 57.1939V50.1758C11.5352 47.5356 13.6668 45.3958 16.297 45.3958H19.595C22.2252 45.3958 24.3569 47.5355 24.3569 50.1758V57.1939H11.5352Z" fill="#FE646F"/>
<path d="M34.0623 57.194V44.0982C34.0623 41.458 36.1939 39.3181 38.8241 39.3181H42.1221C44.7523 39.3181 46.884 41.4578 46.884 44.0982V57.194H34.0623Z" fill="#FFE177"/>
<path d="M56.5891 57.1939V42.3106C56.5891 39.6704 58.7208 37.5305 61.351 37.5305H64.649C67.2792 37.5305 69.4108 39.6702 69.4108 42.3106V57.1939H56.5891Z" fill="#6CF5C2"/>
<path d="M72.3492 14.7902L66.8614 27.013C62.081 24.8503 58.9934 20.0536 58.9934 14.7902C58.9934 10.2682 61.2726 6.04041 65.0439 3.56689L72.3492 14.7902Z" fill="#6CF5C2"/>
<path d="M72.3492 14.7903L85.6884 14.1177C85.6995 14.3417 85.7052 14.566 85.7052 14.7903C85.7052 22.1451 79.676 28.1971 72.3492 28.1971C70.2227 28.1971 68.1268 27.6874 66.2361 26.7104L72.3492 14.7903Z" fill="#FE646F"/>
<path d="M72.3492 14.7904L64.9829 3.607C67.1678 2.15691 69.73 1.38354 72.3492 1.38354C79.6761 1.38354 85.7053 7.43553 85.7053 14.7904H72.3492Z" fill="#FFE177"/>
<path d="M12.1311 68.8144H6.98223C6.93246 68.8144 6.88097 68.8144 6.83119 68.8126C3.66464 68.732 1.12109 66.1387 1.12109 62.9515V58.0515C1.12109 57.5778 1.50554 57.1951 1.98096 57.1951H7.12983C6.65442 57.1951 6.26997 57.5778 6.26997 58.0515V62.9515C6.26997 66.1387 8.81351 68.732 11.9801 68.8126C12.0298 68.8144 12.0813 68.8144 12.1311 68.8144Z" fill="#E1D3CE"/>
<path d="M34.4187 68.9016H39.5676V79.1805H34.4187V68.9016Z" fill="#E1D3CE"/>
<path d="M26.1051 85.7215H20.9563C19.7566 85.7215 18.7852 84.7484 18.7852 83.5504V81.4565C18.7852 80.2568 19.7566 79.2854 20.9563 79.2854H26.1051C24.9054 79.2854 23.934 80.2568 23.934 81.4565V83.5504C23.934 84.7484 24.9054 85.7215 26.1051 85.7215Z" fill="#E1D3CE"/>
<path d="M20.5204 45.4865C18.3339 45.919 16.6845 47.8532 16.6845 50.1754V57.1933H11.5356V50.1754C11.5356 47.5357 13.6673 45.3955 16.2966 45.3955H19.5953C19.9129 45.3955 20.2218 45.4262 20.5204 45.4865Z" fill="#FD4755"/>
<path d="M43.0483 39.4091C40.86 39.8416 39.2106 41.7758 39.2106 44.098V57.1933H34.0618V44.098C34.0618 41.4583 36.1934 39.3181 38.8245 39.3181H42.1215C42.439 39.3181 42.7479 39.349 43.0483 39.4091Z" fill="#FFD064"/>
<path d="M65.5746 37.6222C63.3881 38.053 61.7387 39.9873 61.7387 42.3111V57.1931H56.5898V42.3111C56.5898 39.6698 58.7215 37.5313 61.3508 37.5313H64.6496C64.9671 37.5311 65.276 37.5621 65.5746 37.6222Z" fill="#00E499"/>
<path d="M79.6584 36.0339C78.9473 36.0339 78.3712 36.6103 78.3712 37.3212V55.9067H70.7059V42.3106C70.7059 38.9652 67.9923 36.2433 64.6568 36.2433H61.3588C58.0232 36.2433 55.3097 38.965 55.3097 42.3106V55.9067H48.1789V44.0981C48.1789 40.7527 45.4652 38.0308 42.1298 38.0308H38.8318C35.4962 38.0308 32.7827 40.7525 32.7827 44.0981V55.9067H25.6517V50.1758C25.6517 46.8304 22.9381 44.1086 19.6028 44.1086H16.3046C12.9692 44.1086 10.2557 46.8303 10.2557 50.1758V55.9067H2.59006V49.8501C2.59006 49.1392 2.0139 48.5629 1.30284 48.5629C0.591784 48.5629 0.015625 49.1392 0.015625 49.8501V57.1941C0.015625 57.1975 0.0161399 57.2006 0.0161399 57.204V62.9502C0.0161399 66.8929 3.21376 70.1003 7.1439 70.1003H33.1388V77.8938H21.104C19.1972 77.8938 17.6461 79.4451 17.6461 81.3519V83.4453C17.6461 85.3521 19.1972 86.9034 21.104 86.9034H59.8574C61.7642 86.9034 63.3155 85.3521 63.3155 83.4453V81.3519C63.3155 79.4451 61.7642 77.8938 59.8574 77.8938H47.8227V70.1003H73.8175C77.7478 70.1003 80.9454 66.8929 80.9454 62.9502V57.1973C80.9454 57.1963 80.9456 57.1951 80.9456 57.1941V37.3212C80.9456 36.6103 80.3693 36.0339 79.6584 36.0339ZM57.8842 42.3106C57.8842 40.3847 59.4429 38.8178 61.3588 38.8178H64.6568C66.5727 38.8178 68.1314 40.3846 68.1314 42.3106V55.9067H57.8842V42.3106ZM35.3572 44.0981C35.3572 42.1723 36.9159 40.6053 38.8318 40.6053H42.1298C44.0457 40.6053 45.6044 42.1721 45.6044 44.0981V55.9067H35.3572V44.0981ZM12.8301 50.1758C12.8301 48.25 14.3887 46.683 16.3046 46.683H19.6028C21.5187 46.683 23.0773 48.2498 23.0773 50.1758V55.9067H12.8301V50.1758ZM60.7411 81.3519V83.4453C60.7411 83.9325 60.3446 84.329 59.8574 84.329H21.104C20.6168 84.329 20.2205 83.9325 20.2205 83.4453V81.3519C20.2205 80.8647 20.617 80.4682 21.104 80.4682H59.8574C60.3448 80.4682 60.7411 80.8647 60.7411 81.3519ZM45.2483 77.8938H35.7133V70.1003H45.2483V77.8938ZM78.371 62.9502C78.371 65.4733 76.3283 67.5258 73.8175 67.5258H7.1439C4.63313 67.5258 2.59058 65.4733 2.59058 62.9502V58.481H78.371V62.9502Z" fill="black"/>
<path d="M12.1567 38.9468C12.1951 38.9503 12.2334 38.952 12.2717 38.952C12.629 38.952 12.9726 38.803 13.2174 38.5378L17.3365 34.0755C17.8187 33.5532 17.7861 32.7387 17.2637 32.2565C16.7411 31.7743 15.927 31.8069 15.4448 32.3293L12.4596 35.563L8.55162 29.4219C8.16975 28.8219 7.37424 28.6456 6.77457 29.027C6.17473 29.4087 5.99795 30.2044 6.37965 30.8041L11.1853 38.3557C11.4 38.6928 11.7589 38.9111 12.1567 38.9468Z" fill="black"/>
<path d="M19.6508 29.1689C20.0252 29.1689 20.3964 29.0066 20.6507 28.6933L24.1882 24.3395L26.2688 26.5358C26.7576 27.0517 27.5724 27.0737 28.0886 26.585C28.6047 26.0961 28.6267 25.2814 28.1377 24.7653L25.0484 21.5043C24.7937 21.2355 24.4369 21.09 24.0651 21.1034C23.6949 21.1175 23.3486 21.2905 23.115 21.5779L18.6526 27.0701C18.2045 27.6219 18.2883 28.4325 18.8401 28.8808C19.0786 29.0747 19.3656 29.1689 19.6508 29.1689Z" fill="black"/>
<path d="M32.1667 30.0091C31.7304 29.448 30.9215 29.3469 30.3605 29.7834C29.7993 30.2198 29.6983 31.0286 30.1348 31.5896L32.5376 34.6789C32.7774 34.9874 33.1445 35.1701 33.5353 35.1758C33.5413 35.1758 33.5475 35.176 33.5535 35.176C33.9374 35.176 34.3018 35.0043 34.5465 34.7076L42.6131 24.9247C42.6311 24.9029 42.6469 24.8799 42.6632 24.8571L43.3211 26.7579C43.5054 27.2905 44.004 27.6245 44.5376 27.6245C44.6771 27.6245 44.8194 27.6016 44.9586 27.5532C45.6303 27.3207 45.9865 26.5876 45.7541 25.9157L44.2094 21.4534C44.005 20.8624 43.4057 20.5034 42.788 20.6036L37.4675 21.4618C36.7657 21.575 36.2886 22.2357 36.4017 22.9376C36.5149 23.6394 37.1754 24.1176 37.8775 24.0034L40.367 23.6018L33.5826 31.8295L32.1667 30.0091Z" fill="black"/>
<path d="M87 14.7905C87 6.6882 80.4312 0.0964355 72.3569 0.0964355C64.5209 0.0964355 58.1035 6.30529 57.7317 14.0777H6.93227C3.11833 14.0777 0.0156186 17.1806 0.0156186 20.9933L3.44933e-07 43.6707C-0.000514542 44.3817 0.575473 44.9582 1.28636 44.9587H1.28722C1.99776 44.9587 2.57392 44.3829 2.57444 43.6724L2.59006 20.9942C2.59006 18.5999 4.53805 16.652 6.93227 16.652H57.8354C58.7505 23.8779 64.9115 29.4843 72.3571 29.4843C74.5088 29.4843 76.5517 29.0123 78.3938 28.1722L78.427 31.3276C78.4345 32.0339 79.0093 32.6013 79.7138 32.6013H79.7276C80.4386 32.5939 81.0088 32.0116 81.0014 31.3007L80.953 26.6756C84.6138 24.002 87 19.6718 87 14.7905ZM84.3569 13.5032H73.046L66.7536 4.06141C68.4294 3.17529 70.3352 2.67087 72.3569 2.67087C78.5785 2.67087 83.7147 7.42346 84.3569 13.5032ZM60.2882 14.7905C60.2882 11.063 61.9737 7.72449 64.6182 5.49949L70.8854 14.9036L66.1253 25.1656C62.6297 23.0403 60.2882 19.185 60.2882 14.7905ZM68.457 26.257L73.1789 16.0777H84.3569C83.7147 22.1575 78.5787 26.9101 72.3569 26.9101C70.9923 26.9101 69.6813 26.678 68.457 26.257Z" fill="black"/>
</g>
<defs>
<clipPath id="clip0">
<rect width="87" height="87" fill="white"/>
</clipPath>
</defs>
</svg>
