<svg width="87" height="87" viewBox="0 0 87 87" fill="none" xmlns="http://www.w3.org/2000/svg">
<g clip-path="url(#clip0)">
<path d="M33.1799 63.9919L37.8614 64.0691C43.9971 64.057 48.9817 68.9918 48.9937 75.0898L49.0097 83.2439C49.0122 84.5731 47.9368 85.6528 46.6078 85.6554L4.7701 85.7376C3.44089 85.7402 2.36124 84.6648 2.35869 83.3358L2.34267 75.1816C2.33075 69.0836 7.29583 64.1292 13.4315 64.1173L17.6208 64.1091L33.1799 63.9919Z" fill="#FE646F"/>
<path d="M55.9876 40.1842L75.8842 42.9005C76.3564 42.9651 76.6846 43.409 76.6017 43.8783C74.7544 54.3392 65.5833 62.1241 54.8972 62.1452C42.7817 62.169 32.7926 52.2053 32.7687 40.0729C32.7484 29.7408 39.9614 20.7439 49.951 18.4656C50.4157 18.3596 50.875 18.6662 50.9622 19.1347L54.6442 38.9044C54.7693 39.576 55.3106 40.0918 55.9876 40.1842Z" fill="#8AC9FE"/>
<path d="M32.2669 57.1502L32.2831 65.4069C32.2896 68.6916 29.0446 71.3586 25.0338 71.3664C21.023 71.3743 17.7676 68.7201 17.7612 65.4353L17.7444 56.9088L21.6485 56.4932L28.5494 56.6381L32.2669 57.1502Z" fill="#FFCEBF"/>
<path d="M27.5914 70.982C26.7958 71.229 25.9356 71.3652 25.0345 71.3669C21.0228 71.3738 17.7675 68.7198 17.7607 65.4355L17.7437 56.9097L22.8557 56.9948L22.8711 65.2515C22.8762 67.88 24.8386 70.1166 27.5914 70.982Z" fill="#FFB09E"/>
<path d="M62.2676 28.1103L59.0048 8.94683C58.9247 8.47668 59.2503 8.03071 59.7231 7.96905C60.6532 7.84793 61.5903 7.7861 62.5287 7.78422C74.6443 7.76037 84.6334 17.7241 84.6572 29.8565C84.6594 30.9475 84.5809 32.0369 84.4226 33.1155C84.3533 33.5876 83.9017 33.9054 83.4329 33.8174L64.3566 30.235C63.2844 30.0336 62.4507 29.1858 62.2676 28.1103Z" fill="#FE646F"/>
<path d="M67.9718 57.7903C64.289 60.5261 59.7509 62.1359 54.8978 62.1444C42.7811 62.1682 32.792 52.2047 32.7681 40.0726C32.7511 31.1039 38.1851 23.1402 46.1539 19.7061C40.6671 23.7875 37.1801 30.3305 37.1937 37.5174C37.2175 49.6495 47.2066 59.613 59.3234 59.5892C62.376 59.5841 65.3042 58.9453 67.9718 57.7903Z" fill="#60B7FF"/>
<path d="M40.7191 36.3018L40.7406 47.2026C40.7515 52.7545 36.2596 57.2639 30.7079 57.2748L20.5261 57.2949C14.9739 57.3058 10.4627 52.8144 10.4518 47.2622L10.4348 32.2378L10.4185 23.8909L40.229 23.8323L40.7191 36.3018Z" fill="#FFCEBF"/>
<path d="M22.4298 57.2911L20.5253 57.2945C14.9738 57.3064 10.463 52.8144 10.4511 47.2628L10.434 32.2383L10.4187 23.8913L15.5274 23.8811L15.5632 47.5422C15.5717 52.0819 18.4471 55.9283 22.4298 57.2911Z" fill="#FFB09E"/>
<path d="M17.9481 11.6452L33.2839 11.6839C33.5861 10.704 33.7087 9.64363 33.6072 8.54387C33.2464 4.63375 30.0403 1.52391 26.1213 1.27844C21.4395 0.985277 17.5553 4.7007 17.5643 9.3169C17.5659 10.1208 17.685 10.895 17.9061 11.6276" fill="#BC7C63"/>
<path d="M42.2738 35.5073C36.3047 37.4685 31.9556 31.4548 30.1675 28.3557C29.7377 27.6108 28.7129 27.4697 28.1133 28.0862C22.9673 33.377 12.2338 31.9124 8.67118 31.2465C8.00087 31.1213 7.536 30.5065 7.59443 29.8271L8.38705 20.5912C8.83455 15.3777 14.2303 11.3437 20.6998 11.3858L30.7337 11.4509C37.1846 11.4928 42.4823 15.5733 42.8397 20.7755L43.7047 33.3659C43.7703 34.3221 43.184 35.2084 42.2738 35.5073Z" fill="#BC7C63"/>
<path d="M25.5921 45.1966L18.5541 45.2104C18.5617 49.0713 21.745 52.2421 25.6059 52.2344C29.4668 52.2268 32.6376 49.0435 32.6299 45.1826L25.5921 45.1966Z" fill="#F2F2F2"/>
<path d="M22.6752 9.53802C22.6769 10.2671 22.7706 10.974 22.9444 11.6469L17.9055 11.6282C17.6858 10.8957 17.5665 10.1206 17.5648 9.31657C17.5546 4.70019 21.4402 0.984942 26.1213 1.27794C26.8334 1.32223 27.5233 1.46191 28.1757 1.68336C24.9749 2.77698 22.6667 5.88239 22.6752 9.53802Z" fill="#AA6A51"/>
<path d="M13.7814 31.247C14.8359 31.4446 16.5172 31.712 18.4949 31.8517C14.473 32.1788 10.5619 31.6013 8.67105 31.247C8.00159 31.1209 7.53655 30.506 7.59447 29.828L8.38657 20.5918C8.83459 15.3775 14.2294 11.3437 20.6992 11.3863L24.7977 11.4136C18.7862 11.7713 13.9228 15.6518 13.497 20.5918L12.7048 29.828C12.6469 30.506 13.112 31.1209 13.7814 31.247Z" fill="#AA6A51"/>
<path d="M7.45305 75.0668L7.46839 83.3098C7.47179 84.5806 8.43595 85.6197 9.66244 85.727L4.7701 85.7373C3.44141 85.7407 2.36141 84.6641 2.358 83.3354L2.34267 75.1809C2.33075 69.0842 7.29634 64.1289 13.4322 64.1169L16.3162 64.1118C11.2484 65.1577 7.44283 69.6685 7.45305 75.0668Z" fill="#FD4755"/>
<path d="M84.6437 30.6592C84.6165 31.482 84.5415 32.3031 84.4223 33.1156C84.3541 33.5875 83.901 33.906 83.4326 33.8174L64.3572 30.2351C63.284 30.0341 62.451 29.1857 62.267 28.1108L59.0049 8.94691C58.9249 8.47676 59.2502 8.03045 59.7238 7.96912C60.6539 7.84818 61.5908 7.78515 62.5294 7.78345C62.9127 7.78345 63.2942 7.79196 63.6724 7.8107L66.6926 25.5557C66.8766 26.6305 67.7096 27.4789 68.7828 27.6799L84.6437 30.6592Z" fill="#FD4755"/>
<path d="M76.3919 41.7495L56.5005 38.9931C56.369 38.9749 56.2649 38.8763 56.2412 38.7461L52.5972 18.9676C52.4922 18.4018 52.1565 17.8959 51.6758 17.5796C51.1978 17.2651 50.6044 17.1568 50.0493 17.2833C48.0387 17.7377 46.1128 18.4523 44.3013 19.4142C43.4278 15.332 39.8628 12.0251 35.2075 10.7579C35.3251 10.0028 35.3494 9.23416 35.2796 8.46027C34.8716 3.94116 31.1479 0.31262 26.6178 0.0199658C24.0109 -0.147144 21.5294 0.738997 19.6311 2.5186C17.7588 4.27385 16.6851 6.75153 16.6851 9.3166C16.6851 9.76989 16.7178 10.2206 16.7824 10.6657C11.7017 12.0384 7.89647 15.839 7.49053 20.461L6.67969 29.6954C6.56198 31.0357 7.4689 32.2345 8.78908 32.4838C9.01292 32.5261 9.2543 32.5697 9.51016 32.6136L9.49789 47.2476C9.49789 52.0653 12.5224 56.1878 16.7715 57.8235V62.8414H13.0949C9.99973 62.8414 7.03639 63.9831 4.75103 66.056C2.47912 68.1167 1.06457 70.9212 0.767995 73.9529C0.699345 74.6552 1.21294 75.2802 1.91511 75.3489C1.95752 75.3528 1.99943 75.355 2.04099 75.355C2.69052 75.355 3.24653 74.8617 3.31109 74.2016C3.8022 69.1817 8.00838 65.3964 13.0951 65.3964H16.7718V65.4353C16.7718 69.4179 20.6022 72.6581 25.3104 72.6581C30.0186 72.6581 33.849 69.4179 33.849 65.4353V65.3298L37.503 65.3962C37.5106 65.3964 37.5185 65.3964 37.5261 65.3964C42.9477 65.3964 47.3585 69.7774 47.3585 75.1624V76.2917C47.3585 76.9975 47.9305 77.5693 48.6361 77.5693C49.3417 77.5693 49.9137 76.9975 49.9137 76.2917V75.1624C49.9137 68.3727 44.363 62.848 37.538 62.8412L33.8489 62.7741V58.2179C35.4453 57.8048 36.9056 57.0503 38.1487 56.0391C42.5822 60.7937 48.7211 63.4954 55.1908 63.4954C60.6509 63.4954 65.9778 61.5457 70.1905 58.0056C74.3911 54.4755 77.2319 49.5793 78.1899 44.2176C78.2899 43.6541 78.154 43.0652 77.8167 42.6022C77.4788 42.138 76.9587 41.8272 76.3919 41.7495ZM19.2403 9.3166C19.2403 7.42764 19.9997 5.67546 21.3787 4.3827C22.7563 3.09131 24.5578 2.44774 26.4531 2.56971C29.7384 2.78196 32.4387 5.41295 32.7346 8.6899C32.7833 9.22871 32.7682 9.76342 32.6924 10.2891C32.182 10.236 31.6642 10.2034 31.1387 10.199L21.1049 10.1142C21.0581 10.1138 21.0119 10.1137 20.9651 10.1137C20.4017 10.1137 19.8469 10.1455 19.3006 10.2016C19.2625 9.90924 19.2403 9.61403 19.2403 9.3166ZM9.22517 29.9191L10.036 20.6847C10.374 16.8362 13.9114 13.7194 18.5046 12.8879C18.5199 12.8854 18.5351 12.8835 18.5504 12.8804C19.3659 12.7356 20.2137 12.6615 21.0833 12.6695L31.117 12.7544C36.8844 12.8031 41.6388 16.3855 41.9406 20.9102L42.7808 33.5023C42.806 33.8812 42.5772 34.226 42.2243 34.3411C42.2243 34.3411 42.2243 34.3411 42.2241 34.3411C37.2423 35.9669 33.4521 30.9058 31.6362 27.744C31.2283 27.0335 30.5283 26.567 29.7158 26.464C29.605 26.45 29.4948 26.443 29.3853 26.443C28.6993 26.443 28.0481 26.7151 27.5609 27.2138C22.8058 32.0834 12.3537 30.5569 9.26383 29.9733C9.23982 29.9687 9.22295 29.9448 9.22517 29.9191ZM12.0533 47.2486L12.0652 32.976C17.2267 33.5562 24.9929 33.5008 29.3868 28.9989C29.3872 28.9989 29.4079 28.9948 29.4207 29.0166C32.3425 34.1037 35.9986 36.9403 39.787 37.1873V47.2477C39.787 52.0863 35.8506 56.0228 31.0119 56.0228H20.83C15.9905 56.0226 12.0533 52.0863 12.0533 47.2486ZM31.2935 65.4354C31.2935 68.0092 28.6094 70.1031 25.3101 70.1031C22.0108 70.1031 19.3267 68.0092 19.3267 65.4354V58.4751C19.819 58.5407 20.32 58.5778 20.83 58.5778C20.83 58.5778 31.1996 58.573 31.2935 58.5706V65.4354ZM55.1908 60.9403C49.3958 60.9403 43.8964 58.5005 39.9396 54.2115C41.4429 52.2886 42.3421 49.8719 42.3421 47.2476V36.9622C42.5672 36.9074 42.7922 36.8435 43.0169 36.7701C44.4824 36.2921 45.4338 34.8784 45.3305 33.3322L44.587 22.1874C46.3281 21.1468 48.1993 20.3719 50.1675 19.8813L53.7281 39.2072C53.9502 40.4232 54.9236 41.3543 56.1501 41.5241L75.5894 44.2178C73.6363 53.9352 65.1297 60.9403 55.1908 60.9403Z" fill="black"/>
<path d="M79.4199 13.4777C74.9873 9.03902 69.1312 6.59473 62.9301 6.59473C61.9412 6.59473 60.9425 6.65844 59.9614 6.78415C59.3944 6.85706 58.8736 7.16266 58.5324 7.62259C58.19 8.08406 58.0485 8.67346 58.1439 9.23969L61.369 28.4094C61.6375 30.005 62.8858 31.2801 64.4754 31.5816L83.5447 35.2015C83.6746 35.2263 83.8061 35.2384 83.9373 35.2384C84.3758 35.2384 84.81 35.1027 85.1708 34.8463C85.6377 34.5145 85.9537 33.9998 86.0378 33.4345C86.207 32.2967 86.2929 31.1372 86.2929 29.9878C86.2927 23.7792 83.852 17.9159 79.4199 13.4777ZM83.5726 32.6061L64.9519 29.0714C64.4078 28.9682 63.9806 28.5317 63.8888 27.9856L60.7394 9.26575C61.4665 9.18893 62.2013 9.14992 62.9301 9.14992C74.4034 9.14992 83.7375 18.4978 83.7375 29.9878C83.7375 30.8598 83.6821 31.7385 83.5726 32.6061Z" fill="black"/>
<path d="M34.2354 45.2119C34.2354 44.5062 33.6634 43.9343 32.9578 43.9343H18.882C18.1764 43.9343 17.6044 44.5062 17.6044 45.2119C17.6044 49.7971 21.3348 53.5275 25.92 53.5275C30.5052 53.5275 34.2354 49.7971 34.2354 45.2119ZM20.3023 46.4895H31.5375C30.9549 49.0532 28.6573 50.9723 25.92 50.9723C23.1827 50.9723 20.8851 49.0532 20.3023 46.4895Z" fill="black"/>
<path d="M48.6358 80.806C47.9303 80.806 47.3582 81.3779 47.3582 82.0836V83.3169C47.3582 83.9387 46.8516 84.4446 46.2289 84.4446H4.39186C3.76908 84.4446 3.26247 83.9387 3.26247 83.3169V79.8691C3.26247 79.1634 2.69044 78.5916 1.98487 78.5916C1.2793 78.5916 0.707275 79.1634 0.707275 79.8691V83.3169C0.707275 85.3476 2.36014 86.9998 4.39186 86.9998H46.2289C48.2606 86.9998 49.9134 85.3476 49.9134 83.3169V82.0836C49.9134 81.3781 49.3414 80.806 48.6358 80.806Z" fill="black"/>
<path d="M18.9009 40.0837C19.6065 40.0837 20.1785 39.5119 20.1785 38.8061V37.2056C20.1785 36.4998 19.6065 35.928 18.9009 35.928C18.1953 35.928 17.6233 36.4998 17.6233 37.2056V38.8061C17.6233 39.5117 18.1953 40.0837 18.9009 40.0837Z" fill="black"/>
<path d="M32.5431 40.0837C33.2487 40.0837 33.8207 39.5119 33.8207 38.8061V37.2056C33.8207 36.4998 33.2487 35.928 32.5431 35.928C31.8375 35.928 31.2655 36.4998 31.2655 37.2056V38.8061C31.2655 39.5117 31.8374 40.0837 32.5431 40.0837Z" fill="black"/>
</g>
<defs>
<clipPath id="clip0">
<rect width="87" height="87" fill="white"/>
</clipPath>
</defs>
</svg>
