<svg width="34" height="34" viewBox="0 0 34 34" fill="none" xmlns="http://www.w3.org/2000/svg">
<path d="M17 29.1958C23.7354 29.1958 29.1956 23.7357 29.1956 17.0003C29.1956 10.2648 23.7354 4.80469 17 4.80469C10.2646 4.80469 4.80444 10.2648 4.80444 17.0003C4.80444 23.7357 10.2646 29.1958 17 29.1958Z" fill="#A4FCC4"/>
<path d="M29.0208 4.97914C25.8099 1.76833 21.5409 0 17 0C12.4591 0 8.19008 1.76833 4.97921 4.97914C1.76827 8.19008 0 12.4591 0 17C0 21.5409 1.76827 25.8099 4.97921 29.0209C8.19008 32.2317 12.4591 34 17 34C21.5409 34 25.8099 32.2317 29.0208 29.0209C32.2317 25.8099 34 21.5409 34 17C34 12.4591 32.2317 8.19008 29.0208 4.97914ZM17 32.6719C8.35849 32.6719 1.32812 25.6415 1.32812 17C1.32812 8.35849 8.35849 1.32812 17 1.32812C25.6415 1.32812 32.6719 8.35849 32.6719 17C32.6719 25.6415 25.6415 32.6719 17 32.6719Z" fill="#5A86EB"/>
<path d="M22.735 16.3361H19.335C19.1056 15.5306 18.4696 14.8946 17.664 14.6652V8.59766C17.664 8.23089 17.3667 7.93359 17 7.93359C16.6332 7.93359 16.3359 8.23096 16.3359 8.59766V14.6652C15.3192 14.9547 14.5726 15.8919 14.5726 17.0002C14.5726 18.3386 15.6616 19.4275 17 19.4275C18.1082 19.4275 19.0455 18.6809 19.335 17.6642H22.735C23.1017 17.6642 23.399 17.3669 23.399 17.0002C23.399 16.6334 23.1017 16.3361 22.735 16.3361ZM17 18.0994C16.3939 18.0994 15.9008 17.6062 15.9008 17.0002C15.9008 16.3941 16.3939 15.9009 17 15.9009C17.6061 15.9009 18.0992 16.3941 18.0992 17.0002C18.0992 17.6062 17.6061 18.0994 17 18.0994Z" fill="#5A86EB"/>
</svg>
