<svg width="177" height="378" viewBox="0 0 177 378" fill="none" xmlns="http://www.w3.org/2000/svg">
<path d="M176.291 136.797C176.104 139.839 175.267 142.806 173.836 145.497C172.405 148.187 170.413 150.54 167.996 152.395L156.897 138.227C157.32 137.933 157.67 137.546 157.919 137.096C158.169 136.645 158.311 136.143 158.336 135.629C158.338 135.614 158.338 135.599 158.336 135.584C158.336 135.545 158.336 135.516 158.336 135.481C158.38 134.858 158.429 128.969 146.092 114.58C143.46 111.505 140.793 108.662 138.46 106.295L138.087 105.921C134.335 102.125 131.565 99.6449 131.457 99.5369L142.571 85.8938C144.471 87.1805 151.706 93.4913 159.622 102.709C171.517 116.539 176.963 127.687 176.291 136.797Z" fill="#FF6248"/>
<path d="M158.439 135.594H158.34C158.34 135.555 158.34 135.525 158.34 135.491C158.385 134.867 158.434 128.979 146.097 114.589C143.465 111.515 140.798 108.672 138.465 106.304L141.024 99.9199C151.548 104.055 161.336 123.454 158.439 135.594Z" fill="#C6392A"/>
<path d="M125.181 349.611H110.919V359.428H125.181V349.611Z" fill="#3D201C"/>
<g style="mix-blend-mode:multiply">
<path d="M0.163452 371.652C0.163452 373.309 0.821458 374.898 1.99284 376.071C3.16423 377.243 4.75314 377.902 6.41039 377.904H159.205C160.026 377.904 160.838 377.742 161.597 377.428C162.355 377.113 163.044 376.653 163.624 376.072C164.204 375.492 164.664 374.802 164.978 374.044C165.291 373.285 165.452 372.472 165.452 371.652C165.452 369.995 164.794 368.406 163.622 367.234C162.451 366.063 160.862 365.405 159.205 365.405H6.41039C4.75399 365.406 3.16583 366.065 1.99458 367.236C0.823337 368.407 0.164753 369.995 0.163452 371.652Z" fill="#D2D3D6"/>
</g>
<path d="M117.505 201.998L124.808 253.333C126.466 264.972 126.477 276.786 124.842 288.428L115.904 352.091" stroke="#823C33" stroke-width="57.58" stroke-miterlimit="10"/>
<path d="M91.9717 349.611H76.2267V359.428H91.9717V349.611Z" fill="#3D201C"/>
<path d="M131.708 229.549H109.608C109.386 229.548 109.172 229.47 109.001 229.329C108.831 229.187 108.716 228.991 108.674 228.773L108.557 228.095C108.552 228.049 108.552 228.003 108.557 227.958C108.547 226.444 107.937 224.996 106.861 223.933C105.784 222.869 104.329 222.276 102.815 222.285C101.302 222.294 99.8541 222.904 98.7903 223.981C97.7265 225.058 97.134 226.513 97.1432 228.026L97.1088 351.138C97.1094 351.263 97.0854 351.386 97.038 351.502C96.9906 351.617 96.9208 351.722 96.8326 351.81C96.7445 351.898 96.6397 351.968 96.5244 352.015C96.4091 352.063 96.2856 352.087 96.1609 352.086H70.2204C70.0958 352.087 69.9722 352.063 69.8569 352.015C69.7417 351.968 69.6369 351.898 69.5488 351.81C69.4606 351.722 69.3908 351.617 69.3434 351.502C69.296 351.386 69.2719 351.263 69.2726 351.138V316.839L69.2972 198.516V192.396C69.2965 192.272 69.3206 192.148 69.368 192.033C69.4154 191.918 69.4852 191.813 69.5733 191.725C69.6615 191.637 69.7662 191.567 69.8815 191.519C69.9968 191.472 70.1203 191.448 70.245 191.448H131.452C131.702 191.448 131.942 191.548 132.119 191.725C132.296 191.902 132.395 192.141 132.395 192.391L132.434 197.794L132.655 228.616C132.652 228.865 132.55 229.102 132.373 229.276C132.195 229.451 131.956 229.549 131.708 229.549Z" fill="#823C33"/>
<g style="mix-blend-mode:multiply">
<g style="mix-blend-mode:multiply">
<path d="M89.3984 324.427V352.086H70.0437L66.0068 334.863L61.7783 316.839H81.8156C83.8272 316.84 85.7559 317.64 87.1778 319.063C88.5997 320.486 89.3984 322.415 89.3984 324.427Z" fill="#A5AAB5"/>
</g>
</g>
<g style="mix-blend-mode:multiply">
<path d="M105.566 194.547L104.092 193.712C104.229 194.218 104.264 194.746 104.195 195.266C104.126 195.785 103.954 196.285 103.69 196.738C102.673 198.506 100.625 199.237 99.0732 198.378C100.605 199.262 101.038 201.403 100.026 203.181C99.0142 204.959 96.9417 205.686 95.3997 204.812C96.9417 205.686 97.3641 207.842 96.3819 209.624C95.3997 211.407 93.2977 212.134 91.7507 211.255L83.8929 206.806C83.1523 207.54 82.1944 208.015 81.1617 208.161C80.129 208.307 79.0768 208.116 78.1617 207.616L76.4919 206.663C75.5933 206.135 74.8896 205.33 74.486 204.368C74.0824 203.407 74.0005 202.341 74.2524 201.33L69.2971 198.516V191.448H107.314L105.566 194.547Z" fill="#D2D3D6"/>
</g>
<path d="M58.9494 126.99C61.7782 118.911 66.7286 110.744 71.2271 104.443C64.3074 107.007 58.3993 113.205 58.9494 126.99Z" fill="white"/>
<g style="mix-blend-mode:multiply">
<path d="M69.307 191.448V205.671L132.43 195.358L132.39 191.448H69.307Z" fill="#D2D3D6"/>
</g>
<path d="M145.92 114.678L144.152 143.329L90.1891 191.458H69.3071C69.3071 191.458 63.4138 182.019 63.4138 181.788L63.0062 154.777L62.8293 143.398L62.2351 103.476L62.6034 87.0824C66.6404 77.2602 93.18 76.5088 93.18 76.5088C96.2345 76.0863 99.3145 75.8747 102.398 75.8753C106.88 75.8704 111.351 76.3213 115.742 77.2209C116.326 77.3486 116.906 77.4763 117.475 77.6138L118.516 77.8692C122.118 78.2856 125.695 78.8922 129.232 79.6863C135.804 81.1596 141.51 84.1063 144.948 88.1678C151.514 95.8439 145.92 114.678 145.92 114.678Z" fill="#FF6248"/>
<path d="M90.189 191.448H132.39C132.557 191.291 141.849 180.693 141.849 180.693V143.324L90.189 191.448Z" fill="#C6392A"/>
<path d="M96.6716 82.9817C96.6716 85.2198 97.5604 87.3664 99.1426 88.9494C100.725 90.5325 102.871 91.4225 105.109 91.4238C107.348 91.4238 109.495 90.5344 111.078 88.9512C112.662 87.368 113.551 85.2207 113.551 82.9817V71.5535C113.55 69.3153 112.66 67.1693 111.077 65.5871C109.494 64.005 107.347 63.1162 105.109 63.1162C102.871 63.1162 100.725 64.0051 99.1428 65.5874C97.5605 67.1697 96.6716 69.3158 96.6716 71.5535V82.9817Z" fill="#F48967"/>
<path d="M73.9872 44.5424C74.1211 45.3796 74.5001 46.1583 75.0765 46.78C75.6528 47.4018 76.4005 47.8388 77.2252 48.0357C78.0498 48.2326 78.9143 48.1806 79.7093 47.8863C80.5044 47.5919 81.1944 47.0685 81.692 46.3821C82.1897 45.6957 82.4726 44.8772 82.5051 44.03C82.5377 43.1828 82.3183 42.345 81.8748 41.6225C81.4312 40.9 80.7834 40.3252 80.0132 39.9707C79.2431 39.6163 78.3851 39.4982 77.5478 39.6313C76.9914 39.7197 76.458 39.917 75.9778 40.2117C75.4977 40.5064 75.0804 40.8929 74.7497 41.349C74.4191 41.8051 74.1815 42.3219 74.0507 42.8698C73.9199 43.4177 73.8983 43.9861 73.9872 44.5424Z" fill="#F48967"/>
<path d="M117.907 36.4389C118.041 37.2759 118.42 38.0545 118.996 38.6763C119.572 39.2982 120.319 39.7353 121.144 39.9325C121.968 40.1297 122.832 40.0781 123.628 39.7843C124.423 39.4904 125.113 38.9675 125.611 38.2816C126.109 37.5957 126.392 36.7775 126.425 35.9305C126.458 35.0836 126.24 34.2457 125.797 33.523C125.354 32.8002 124.707 32.2249 123.937 31.8698C123.168 31.5146 122.31 31.3956 121.473 31.5277C120.349 31.7064 119.342 32.3242 118.673 33.2451C118.005 34.166 117.729 35.3148 117.907 36.4389Z" fill="#F48967"/>
<path d="M120.029 16.0234L123.58 52.3657C123.919 54.525 123.648 56.7361 122.799 58.7501C121.912 60.8654 120.507 62.7233 118.713 64.1523L113.861 68.2138C111.371 70.1996 108.409 71.5059 105.264 72.0052C102.118 72.5044 98.8976 72.1795 95.9154 71.0623L90.022 67.8357C87.9346 67.0445 86.0777 65.7447 84.6198 64.0541C83.2278 62.4402 82.3114 60.4713 81.9727 58.367L73.9725 23.3263L120.029 16.0234Z" fill="#F48967"/>
<path d="M119.872 16.0579L122.912 49.1637C123.247 51.3231 122.977 53.5331 122.131 55.5481C121.239 57.6619 119.833 59.519 118.04 60.9503L113.183 65.0118C110.694 66.9964 107.732 68.3013 104.587 68.7988C101.443 69.2964 98.2231 68.9696 95.2427 67.8504L89.3493 64.6189C87.2622 63.8296 85.4052 62.5314 83.9471 60.8423C82.9679 59.7209 82.2127 58.4222 81.7224 57.0165L73.9333 21.7351L119.872 16.0579Z" fill="#FFB287"/>
<path d="M105.296 42.5337C105.296 42.5337 102.894 47.6707 97.5262 43.7664L105.296 42.5337Z" fill="#F48967"/>
<path d="M96.0186 53.5003C96.1637 54.4177 96.4881 55.2976 96.9732 56.0896C97.4584 56.8817 98.0948 57.5704 98.8461 58.1165C99.5974 58.6626 100.449 59.0554 101.352 59.2724C102.255 59.4894 103.192 59.5264 104.11 59.3813C105.027 59.2362 105.907 58.9118 106.699 58.4267C107.491 57.9415 108.18 57.3051 108.726 56.5538C109.272 55.8025 109.665 54.951 109.882 54.0478C110.099 53.1447 110.136 52.2077 109.991 51.2903L96.0186 53.5003Z" fill="white"/>
<path d="M93.1798 178.596L91.5494 191.448H69.3069L63.4234 181.774L63.1975 168.278L103.14 170.429L93.1798 178.596Z" fill="#C6392A"/>
<path d="M58.9495 126.995C58.9495 127.216 58.9495 127.442 58.974 127.673C58.974 127.805 58.974 127.928 58.974 128.051C59.5879 126.209 60.3098 124.358 61.1104 122.516C61.8052 117.508 64.2515 112.907 68.0154 109.531C69.1449 107.709 70.2843 105.985 71.404 104.384C64.4204 106.914 58.3945 113.077 58.9495 126.995Z" fill="#FF6248"/>
<path d="M56.7345 141.129C56.5872 137.038 57.4761 132.569 58.9838 128.051C58.9838 127.928 58.9838 127.805 58.9838 127.673C58.9838 127.442 58.9838 127.216 58.9593 126.995C58.4092 113.21 64.3222 107.007 71.2371 104.448L71.4286 104.379C73.5554 101.264 75.8695 98.2807 78.3582 95.446L65.2259 83.6299C62.9373 85.8399 57.6185 91.6301 50.9198 102.66C41.4266 118.307 37.3946 132.294 38.9465 144.243C39.281 146.546 40.0707 148.76 41.2695 150.755L56.7345 141.129Z" fill="#FF6248"/>
<path d="M112.058 357.149H127.032C127.523 359.684 135.101 361.235 137.945 361.569L155.183 364.742C155.645 365.736 155.884 366.819 155.885 367.915C155.885 372.123 151.465 372.335 147.281 372.335H127.145L123.329 368.185V372.379H112.034C107.83 372.379 107.25 368.97 107.25 364.767C107.25 360.563 107.854 357.149 112.058 357.149Z" fill="#4F2F29"/>
<path d="M123.329 368.18H106.661V372.379H123.329V368.18Z" fill="black"/>
<path d="M155.428 369.737H127.032V372.374H155.428V369.737Z" fill="black"/>
<path d="M127.032 369.737L123.329 368.18L127.032 372.374V369.737Z" fill="black"/>
<path d="M77.3613 357.149H92.3401C92.8558 359.684 100.404 361.235 103.253 361.569L120.491 364.742C120.949 365.737 121.187 366.819 121.188 367.915C121.188 372.123 116.793 372.335 112.589 372.335H92.4236L88.6323 368.185V372.379H77.3613C73.1574 372.379 72.5828 372.673 72.5828 368.45C72.5828 364.226 73.1574 357.149 77.3613 357.149Z" fill="#4F2F29"/>
<path d="M88.6322 368.18H71.9639V372.379H88.6322V368.18Z" fill="black"/>
<path d="M120.736 369.737H92.3401V372.374H120.736V369.737Z" fill="black"/>
<path d="M92.3402 369.737L88.6323 368.18L92.3402 372.374V369.737Z" fill="black"/>
<path d="M39.5112 312.905C39.497 313.212 39.545 313.518 39.6525 313.805C39.7599 314.093 39.9246 314.355 40.1365 314.577C40.3483 314.799 40.603 314.976 40.8851 315.097C41.1672 315.217 41.4709 315.279 41.7777 315.279C42.0846 315.279 42.3882 315.217 42.6703 315.097C42.9524 314.976 43.2071 314.799 43.419 314.577C43.6309 314.355 43.7955 314.093 43.903 313.805C44.0104 313.518 44.0585 313.212 44.0442 312.905C44.0468 310.705 44.9221 308.595 46.478 307.039C48.034 305.483 50.1435 304.608 52.344 304.605H53.8566C56.0588 304.605 58.1709 305.479 59.7289 307.036C61.287 308.592 62.1636 310.703 62.1662 312.905C62.1649 313.203 62.2224 313.498 62.3353 313.773C62.4481 314.049 62.6143 314.299 62.8241 314.511C63.034 314.722 63.2834 314.889 63.5582 315.004C63.8329 315.119 64.1276 315.178 64.4253 315.179C64.7243 315.18 65.0206 315.122 65.297 315.008C65.5735 314.895 65.8247 314.727 66.0361 314.516C66.2475 314.304 66.4149 314.053 66.5287 313.777C66.6425 313.5 66.7005 313.204 66.6992 312.905C66.694 309.501 65.3389 306.239 62.9313 303.833C60.5237 301.427 57.2602 300.075 53.8566 300.072H52.344C48.9417 300.076 45.6799 301.429 43.2742 303.835C40.8684 306.241 39.5151 309.503 39.5112 312.905Z" fill="#442E2C"/>
<path d="M18.6439 320.503C18.6426 319.506 18.8378 318.519 19.2184 317.599C19.5989 316.678 20.1574 315.841 20.8617 315.136C21.566 314.431 22.4024 313.873 23.323 313.491C24.2436 313.11 25.2303 312.914 26.2267 312.915H75.5932V335.816H18.6243L18.6439 320.503Z" fill="#612F26"/>
<path d="M75.5932 335.815V373.587H27.7394C26.743 373.587 25.7563 373.391 24.8357 373.009C23.9151 372.628 23.0787 372.069 22.3741 371.364C21.6695 370.66 21.1106 369.823 20.7293 368.903C20.348 367.982 20.1517 366.996 20.1517 365.999V335.815H75.5932Z" fill="#612F26"/>
<path d="M83.1956 320.498V365.984C83.1453 367.964 82.3235 369.846 80.9056 371.228C79.4876 372.61 77.5858 373.384 75.6055 373.384C73.6253 373.384 71.7234 372.61 70.3054 371.228C68.8875 369.846 68.0657 367.964 68.0154 365.984V320.498C68.0657 318.518 68.8875 316.636 70.3054 315.254C71.7234 313.872 73.6253 313.098 75.6055 313.098C77.5858 313.098 79.4876 313.872 80.9056 315.254C82.3235 316.636 83.1453 318.518 83.1956 320.498Z" fill="#893C31"/>
<path d="M68.0007 335.815H20.1517V339.342H68.0007V335.815Z" fill="#301D1B"/>
<path d="M43.1259 338.168C43.1259 338.913 43.4218 339.627 43.9486 340.154C44.4755 340.681 45.19 340.977 45.935 340.977C46.6796 340.976 47.3934 340.679 47.9199 340.153C48.4465 339.626 48.7429 338.912 48.7442 338.168V336.041C48.7429 335.297 48.4463 334.584 47.9196 334.058C47.393 333.532 46.6792 333.237 45.935 333.237C45.1908 333.237 44.477 333.532 43.9504 334.058C43.4237 334.584 43.1272 335.297 43.1259 336.041V338.168Z" fill="#C0BCBD"/>
<path d="M110.555 89.425L105.109 102.931L99.476 89.592L110.555 89.425Z" fill="#F48967"/>
<path d="M105.109 102.935L109.475 92.1308L117.372 98.4564C121.134 90.8392 118.099 79.6861 117.475 77.6136C116.906 77.4761 116.326 77.3435 115.742 77.2207C115.496 79.2343 115.049 82.9471 114.853 84.5874C114.578 86.9005 107.511 86.8367 107.511 86.8367L105.109 102.935Z" fill="#C6392A"/>
<path d="M105.109 102.936L100.198 92.1311L92.2959 98.4566C88.5389 90.8395 92.2272 78.5912 92.846 76.5187C93.4157 76.3861 94.3783 76.4155 94.9627 76.2878C95.2082 78.3014 94.6238 82.9473 94.8203 84.5876C95.0904 86.9008 102.305 87.7946 102.305 87.7946L105.109 102.936Z" fill="#C6392A"/>
<path d="M113.551 74.4509C113.551 74.4509 113.399 84.5776 107.506 86.822C109.617 88.0449 115.599 94.7093 115.599 94.7093C115.599 94.7093 118.963 81.022 116.429 77.3632C115.39 76.4747 114.427 75.5005 113.551 74.4509Z" fill="white"/>
<path d="M96.6521 74.4509C96.6521 74.4509 95.2278 84.5776 102.285 87.7846L94.5992 94.7093C94.5992 94.7093 91.2351 81.022 93.7692 77.3632C94.8105 76.4754 95.7749 75.5012 96.6521 74.4509Z" fill="white"/>
<path d="M107.898 35.162C107.898 35.4429 107.982 35.7175 108.138 35.951C108.294 36.1845 108.516 36.3665 108.776 36.4737C109.035 36.581 109.321 36.6088 109.596 36.5537C109.872 36.4985 110.125 36.3628 110.323 36.1638C110.521 35.9649 110.656 35.7115 110.71 35.4359C110.765 35.1602 110.736 34.8747 110.628 34.6154C110.519 34.3562 110.337 34.1349 110.103 33.9795C109.869 33.8241 109.594 33.7417 109.313 33.7427C109.127 33.7427 108.942 33.7794 108.77 33.8508C108.599 33.9222 108.442 34.0268 108.311 34.1587C108.18 34.2906 108.075 34.4471 108.005 34.6192C107.934 34.7914 107.898 34.9758 107.898 35.162Z" fill="#40231D" stroke="#40231D" stroke-width="1.11" stroke-miterlimit="10"/>
<path d="M90.7881 39.9308C91.6018 39.9308 92.2615 39.2712 92.2615 38.4575C92.2615 37.6438 91.6018 36.9841 90.7881 36.9841C89.9745 36.9841 89.3148 37.6438 89.3148 38.4575C89.3148 39.2712 89.9745 39.9308 90.7881 39.9308Z" fill="#40231D" stroke="#40231D" stroke-width="1.11" stroke-miterlimit="10"/>
<path d="M114.435 31.4296C113.453 30.3884 109.986 29.3375 107.889 30.2853" stroke="#4F2F29" stroke-width="3.32" stroke-miterlimit="10" stroke-linecap="round"/>
<path d="M85.4498 35.7711C86.1374 34.5236 89.2559 32.6525 91.5249 33.0601" stroke="#4F2F29" stroke-width="3.32" stroke-miterlimit="10" stroke-linecap="round"/>
<path d="M94.943 150.647C94.9882 150.757 95.0547 150.857 95.1388 150.942C95.2228 151.026 95.3227 151.093 95.4327 151.139C95.5427 151.184 95.6606 151.208 95.7797 151.208C95.8988 151.208 96.0167 151.184 96.1266 151.138L96.932 150.799C97.154 150.706 97.3302 150.529 97.4221 150.306C97.5141 150.083 97.5145 149.834 97.4231 149.611C97.3779 149.5 97.3112 149.399 97.2268 149.314C97.1424 149.23 97.0421 149.163 96.9315 149.117C96.8209 149.071 96.7024 149.048 96.5828 149.048C96.4632 149.049 96.3448 149.073 96.2346 149.12L95.4292 149.454C95.3184 149.499 95.2177 149.565 95.133 149.65C95.0482 149.734 94.981 149.835 94.9353 149.945C94.8896 150.056 94.8664 150.174 94.8668 150.294C94.8673 150.414 94.8915 150.532 94.9381 150.642L94.943 150.647Z" fill="white"/>
<path d="M72.2292 25.3595C68.3249 1.86968 101.696 -4.24957 107.501 3.50017C119.464 1.11337 122.264 12.8313 122.725 21.7302L122.342 39.587H121.326L120.142 30.2559L120.029 29.809C119.764 29.0576 118.87 27.4075 115.845 24.947C113.194 23.0783 110.778 20.8968 108.65 18.4496C105.546 21.3324 99.201 25.5167 87.2277 27.6727H87.1786L86.3732 27.8151C84.1583 28.2571 78.373 29.8728 77.7837 34.6612L79.7088 45.2397H78.8739L73.1869 29.2786C72.7817 28.0191 72.4666 26.7324 72.2439 25.4283L72.2292 25.3595Z" fill="#4F2F29"/>
<path d="M42.4334 129.225C36.5892 121.45 23.9333 111.441 15.7268 108.622L15.7907 105.676L43.0866 90.4758L60.688 124.932L42.4334 129.225Z" fill="#9BD880"/>
<path d="M40.0565 121.956C34.2122 114.182 25.2838 107.105 15.7072 105.656L43.0719 87.4851L60.6733 121.937L40.0565 121.956Z" fill="#68A55B"/>
<path d="M121.984 201.108L100.311 216.52L20.574 97.1943L42.2516 81.7832L121.984 201.108Z" fill="#9BD880"/>
<path d="M82.0373 55.2012L42.0237 81.9375L121.755 201.264L161.769 174.528L82.0373 55.2012Z" fill="#68A55B"/>
<path d="M79.5809 64.5746L152.172 173.213L124.218 191.876L51.6268 83.2516L79.5809 64.5893V64.5746ZM80.1751 61.5837L48.6409 82.6573L123.624 194.876L155.158 173.803L80.1751 61.5837Z" fill="#3C7233"/>
<path d="M50.134 82.952L58.0753 77.6479C60.2902 81.3116 58.7481 86.488 54.559 89.5721L50.134 82.952Z" fill="#3C7233"/>
<path d="M57.6578 79.2293C58.1286 80.6137 58.1458 82.1121 57.7069 83.5069C57.1758 85.2416 56.1745 86.7952 54.8143 87.9956L51.6417 83.2515L57.6578 79.2293ZM58.3601 76.1697L48.6558 82.6573L54.2741 91.0651C54.4263 90.9767 54.5786 90.8834 54.7259 90.7802C59.858 87.3425 61.6898 81.0857 58.8168 76.7836C58.6769 76.57 58.5244 76.365 58.3601 76.1697Z" fill="#3C7233"/>
<path d="M77.9211 71.5533C75.3084 71.5533 73.0444 70.571 71.6152 68.7883L79.8512 63.283L84.1042 69.6674C82.2655 70.8734 80.1199 71.5278 77.9211 71.5533Z" fill="#3C7233"/>
<path d="M79.5565 64.7809L82.5768 69.2991C81.1402 70.0554 79.5445 70.4594 77.9211 70.4778C76.2517 70.5201 74.6191 69.984 73.2997 68.9603L79.5565 64.7809ZM80.1507 61.79L70.1124 68.4986C70.1829 68.6301 70.2599 68.758 70.3432 68.8817C71.9934 71.3372 74.832 72.6289 77.9211 72.6289C80.3928 72.6037 82.802 71.8485 84.8458 70.4582C85.1011 70.2863 85.3369 70.1095 85.5824 69.9228L80.1507 61.79Z" fill="#3C7233"/>
<path d="M145.567 178.846C143.357 175.183 144.894 170.006 149.083 166.917L153.503 173.542L145.567 178.846Z" fill="#3C7233"/>
<path d="M148.862 168.499L152.03 173.243L146.014 177.265C144.997 174.461 146.132 170.964 148.862 168.499ZM149.397 165.424C149.245 165.518 149.098 165.611 148.946 165.714C143.813 169.152 141.982 175.409 144.855 179.711C144.996 179.923 145.148 180.128 145.311 180.325L155.021 173.837L149.397 165.424Z" fill="#3C7233"/>
<path d="M119.538 186.842C121.376 185.63 123.524 184.97 125.726 184.941C128.338 184.941 130.598 185.923 132.027 187.706L123.791 193.206L119.538 186.842Z" fill="#3C7233"/>
<path d="M125.74 183.861V186.017C127.408 185.974 129.04 186.51 130.357 187.534L124.105 191.713L121.085 187.195C122.521 186.438 124.117 186.034 125.74 186.017V183.861ZM125.74 183.861C123.268 183.887 120.859 184.644 118.816 186.036C118.56 186.208 118.325 186.385 118.074 186.572L123.511 194.704L133.549 187.996C133.475 187.863 133.397 187.74 133.313 187.613C131.663 185.157 128.83 183.861 125.74 183.861Z" fill="#3C7233"/>
<path d="M112.786 144.514C118.264 140.854 117.834 130.598 111.826 121.606C105.818 112.615 96.5067 108.293 91.0288 111.953C85.5509 115.613 85.9805 125.869 91.9885 134.861C97.9965 143.853 107.308 148.174 112.786 144.514Z" fill="#4A843E"/>
<path d="M81.9213 98.3272C83.6285 97.1865 83.494 93.9893 81.6209 91.186C79.7479 88.3828 76.8455 87.035 75.1383 88.1758C73.4311 89.3165 73.5655 92.5137 75.4386 95.3169C77.3117 98.1202 80.2141 99.4679 81.9213 98.3272Z" fill="#D8E6EA"/>
<path d="M128.668 168.302C126.963 169.447 124.061 168.096 122.185 165.297C120.309 162.497 120.181 159.295 121.885 158.156C123.589 157.017 126.497 158.362 128.368 161.162C130.239 163.961 130.377 167.138 128.668 168.302Z" fill="#D8E6EA"/>
<path d="M131.835 129.721L70.3824 171.711L57.0341 151.732L118.487 109.742L131.835 129.721Z" fill="#3C7233"/>
<path d="M130.824 127.434L113.577 101.623L73.0203 128.722L90.2669 154.533L130.824 127.434Z" fill="#D3C4AE"/>
<path d="M68.6488 169.908L51.401 144.1L73.393 128.478L90.6358 154.286L68.6488 169.908Z" fill="white"/>
<path d="M118.206 108.552L116.582 106.122L76.0257 133.221L77.6491 135.651L118.206 108.552Z" fill="#AD3B3B"/>
<path d="M127.815 122.931L126.192 120.501L85.6352 147.601L87.2587 150.03L127.815 122.931Z" fill="#AD3B3B"/>
<path d="M56.0814 150.995L54.4558 148.564L76.3937 132.981L78.0144 135.412L56.0814 150.995Z" fill="#FF4A4A"/>
<path d="M65.6875 165.38L64.0619 162.949L85.9998 147.361L87.6254 149.792L65.6875 165.38Z" fill="#FF4A4A"/>
<path opacity="0.33" d="M48.582 104.512C48.2067 104.763 47.7472 104.855 47.3044 104.767C46.8615 104.68 46.4714 104.42 46.2197 104.045L34.713 86.8219L37.5369 84.9312L49.0485 102.154C49.2993 102.529 49.391 102.988 49.3035 103.43C49.216 103.872 48.9564 104.261 48.582 104.512Z" fill="#4A843E"/>
<path opacity="0.33" d="M47.7717 115.577C47.3931 115.824 46.9319 115.911 46.4892 115.819C46.0464 115.727 45.6582 115.463 45.4095 115.086L29.0408 90.6085L31.8696 88.7227L48.2383 113.214C48.4893 113.59 48.5811 114.049 48.4937 114.492C48.4062 114.935 48.1465 115.325 47.7717 115.577Z" fill="#4A843E"/>
<path opacity="0.33" d="M99.1419 194.302C99.329 194.178 99.5387 194.092 99.759 194.05C99.9793 194.008 100.206 194.009 100.425 194.055C100.645 194.101 100.853 194.189 101.038 194.316C101.224 194.443 101.382 194.605 101.504 194.793L111.189 209.256L108.36 211.147L98.6803 196.659C98.4291 196.285 98.3366 195.827 98.4232 195.385C98.5097 194.943 98.7682 194.553 99.1419 194.302Z" fill="#4A843E"/>
<path d="M157.486 137.854C152.575 140.844 139.447 137.009 130.671 135.216L128.216 149.228C128.284 149.252 129.06 150.47 129.831 151.683C130.603 152.896 131.324 154.109 131.324 154.109C133.855 154.905 136.438 155.523 139.055 155.961H139.143C150.895 158.092 161.705 157.557 168.118 152.253L157.486 137.854Z" fill="#FF6248"/>
<path d="M41.2548 150.755C46.9418 160.577 61.9109 169.506 79.1194 173.965C79.1194 173.965 84.9489 172.354 85.5039 172.388L87.6157 159.462L87.7974 158.372C87.7974 158.372 87.4389 158.259 86.8151 158.048C85.1699 157.483 81.6045 156.201 77.484 154.551C71.5907 152.184 64.5187 149.046 60.3639 146.109C58.257 144.636 56.8917 143.162 56.7984 141.91C56.7788 141.645 56.7641 141.38 56.7542 141.115L41.2548 150.755Z" fill="#FF6248"/>
<path d="M95.2819 175.757C94.9491 175.705 94.6302 175.586 94.3435 175.409C94.0569 175.232 93.8082 175 93.6121 174.726C93.3816 174.403 93.2287 174.032 93.1652 173.641L85.494 172.388L87.7826 158.392L95.3703 159.629C95.5618 158.958 96.0075 158.387 96.6128 158.038L102.899 154.404C103.258 154.222 103.665 154.158 104.063 154.222L104.171 154.247H104.294L109.981 155.175C110.227 155.215 110.462 155.303 110.674 155.434C110.885 155.565 111.069 155.736 111.215 155.938C111.36 156.14 111.464 156.369 111.522 156.611C111.579 156.854 111.587 157.105 111.547 157.351C111.507 157.596 111.419 157.832 111.288 158.043C111.158 158.255 110.986 158.439 110.784 158.584C110.582 158.73 110.353 158.834 110.111 158.891C109.869 158.948 109.618 158.957 109.372 158.917L104.338 158.092L102.825 159.86L106.705 160.494L117.726 162.291C117.971 162.331 118.207 162.419 118.418 162.55C118.63 162.681 118.814 162.852 118.96 163.054C119.105 163.256 119.209 163.485 119.266 163.728C119.323 163.97 119.332 164.221 119.292 164.467C119.252 164.712 119.164 164.948 119.033 165.16C118.902 165.371 118.731 165.555 118.529 165.701C118.327 165.846 118.098 165.95 117.856 166.007C117.614 166.065 117.362 166.073 117.117 166.033L106.096 164.231L106.003 164.815L117.912 166.78C118.168 166.808 118.414 166.889 118.638 167.016C118.861 167.143 119.056 167.314 119.212 167.518C119.367 167.723 119.479 167.957 119.541 168.206C119.603 168.456 119.614 168.715 119.572 168.969C119.531 169.222 119.438 169.465 119.301 169.681C119.163 169.898 118.982 170.085 118.77 170.23C118.558 170.374 118.318 170.475 118.066 170.524C117.814 170.573 117.554 170.571 117.303 170.517L105.389 168.553L105.296 169.137L115.663 170.827C115.909 170.867 116.144 170.955 116.356 171.086C116.568 171.217 116.751 171.388 116.897 171.59C117.042 171.792 117.147 172.021 117.204 172.263C117.261 172.505 117.27 172.757 117.23 173.002C117.19 173.248 117.102 173.483 116.971 173.695C116.84 173.907 116.668 174.091 116.466 174.236C116.264 174.382 116.036 174.486 115.793 174.543C115.551 174.6 115.3 174.609 115.054 174.569L104.687 172.875L104.593 173.439L113.252 174.854C113.748 174.935 114.191 175.21 114.485 175.619C114.778 176.027 114.897 176.536 114.816 177.032C114.734 177.528 114.459 177.972 114.051 178.265C113.642 178.558 113.134 178.677 112.638 178.596L103.984 177.177L95.2819 175.757Z" fill="#FFB287"/>
<path d="M117.647 148.903C118.173 149.01 118.719 148.949 119.208 148.729C119.697 148.509 120.104 148.14 120.373 147.676L127.995 149.203L130.789 135.3L123.251 133.787C123.311 133.09 123.096 132.397 122.651 131.857L118.064 126.239C117.795 125.94 117.437 125.737 117.043 125.659H116.925L116.812 125.63L111.159 124.495C110.666 124.396 110.154 124.497 109.736 124.776C109.317 125.054 109.026 125.488 108.927 125.981C108.828 126.474 108.929 126.986 109.208 127.404C109.486 127.823 109.92 128.114 110.413 128.213L115.412 129.195L116.203 131.381L112.353 130.605L101.411 128.409C100.929 128.336 100.438 128.451 100.039 128.73C99.6397 129.01 99.3634 129.432 99.2674 129.91C99.1714 130.387 99.2629 130.884 99.523 131.296C99.7831 131.708 100.192 132.003 100.664 132.122L111.606 134.322L111.488 134.902L99.6576 132.525C99.176 132.452 98.6846 132.567 98.2855 132.846C97.8864 133.125 97.6102 133.548 97.5141 134.025C97.4181 134.503 97.5096 134.999 97.7698 135.411C98.0299 135.823 98.4386 136.119 98.9111 136.238L110.742 138.619L110.634 139.179L100.321 137.107C99.8276 137.008 99.3155 137.109 98.8969 137.387C98.4783 137.666 98.1875 138.099 98.0885 138.592C97.9895 139.085 98.0904 139.598 98.369 140.016C98.6477 140.435 99.0811 140.726 99.5741 140.825L109.887 142.892L109.775 143.452L101.175 141.723C100.682 141.624 100.17 141.725 99.7514 142.004C99.3328 142.282 99.042 142.716 98.9431 143.209C98.8441 143.702 98.945 144.214 99.2236 144.633C99.5022 145.051 99.9357 145.342 100.429 145.441L109.013 147.184L117.647 148.903Z" fill="#FFB287"/>
<path opacity="0.19" d="M92.4923 159.163L91.8195 173.395L89.8256 173.12L92.4923 159.163Z" fill="#465B66"/>
<path d="M87.7769 158.384L85.4897 172.382L90.2009 173.152L92.4881 159.154L87.7769 158.384Z" fill="white"/>
<path opacity="0.19" d="M126.109 134.357L121.458 147.833L123.634 148.378L126.109 134.357Z" fill="#465B66"/>
<path d="M123.314 148.26L126.109 134.357L130.789 135.295L128.348 149.37L123.314 148.26Z" fill="white"/>
<path d="M68.9828 322.885V320.498C68.9854 318.746 69.6828 317.066 70.9221 315.828C72.1613 314.59 73.8412 313.894 75.5931 313.892C76.4616 313.891 77.3219 314.061 78.1247 314.392C78.9275 314.724 79.6572 315.21 80.272 315.823C80.8868 316.437 81.3747 317.165 81.7078 317.967C82.0409 318.769 82.2127 319.629 82.2133 320.498V322.885H68.9828Z" fill="#301D1B"/>
<path d="M75.5932 314.875C77.0863 314.873 78.5189 315.465 79.5761 316.519C80.6332 317.574 81.2285 319.005 81.2311 320.498V321.902H69.9651V320.498C69.9677 319.006 70.5616 317.577 71.6167 316.523C72.6717 315.469 74.1018 314.876 75.5932 314.875ZM75.5932 312.91C73.5808 312.911 71.6511 313.711 70.2276 315.134C68.8041 316.556 68.0032 318.485 68.0006 320.498V323.867H83.1956V320.498C83.1956 318.485 82.3962 316.556 80.9732 315.133C79.5502 313.71 77.6203 312.91 75.6079 312.91H75.5932Z" fill="#893C31"/>
<path d="M69.9602 339.347H72.0867V319.28L69.9602 320.9V339.347Z" fill="#301D1B"/>
<path d="M72.0868 335.825H62.348V339.346H72.0868V335.825Z" fill="#301D1B"/>
</svg>
