<svg width="334" height="141" viewBox="0 0 334 141" fill="none" xmlns="http://www.w3.org/2000/svg">
<path opacity="0.1" d="M2.8966 115.287V113.343H0.952897V115.287H2.8966ZM37.3002 115.287V117.23H39.2439V115.287H37.3002ZM37.3002 26.6538H39.2439V24.7101H37.3002V26.6538ZM2.8966 26.6538H0.952897V28.5975H2.8966V26.6538ZM2.8966 2.94054V0.996838H0.952897V2.94054H2.8966ZM98.527 2.94054H100.471V0.996838H98.527V2.94054ZM98.527 26.6538V28.5975H100.471V26.6538H98.527ZM63.929 26.6538V24.7101H61.9853V26.6538H63.929ZM63.929 115.287H61.9853V117.23H63.929V115.287ZM98.527 115.287H100.471V113.343H98.527V115.287ZM98.527 139V140.944H100.471V139H98.527ZM2.8966 139H0.952897V140.944H2.8966V139ZM2.8966 117.23H37.3002V113.343H2.8966V117.23ZM39.2439 115.287V26.6538H35.3565V115.287H39.2439ZM37.3002 24.7101H2.8966V28.5975H37.3002V24.7101ZM4.84031 26.6538V2.94054H0.952897V26.6538H4.84031ZM2.8966 4.88425H98.527V0.996838H2.8966V4.88425ZM96.5833 2.94054V26.6538H100.471V2.94054H96.5833ZM98.527 24.7101H63.929V28.5975H98.527V24.7101ZM61.9853 26.6538V115.287H65.8727V26.6538H61.9853ZM63.929 117.23H98.527V113.343H63.929V117.23ZM96.5833 115.287V139H100.471V115.287H96.5833ZM98.527 137.056H2.8966V140.944H98.527V137.056ZM4.84031 139V115.287H0.952897V139H4.84031ZM119.443 115.287V113.343H117.499V115.287H119.443ZM153.847 115.287V117.23H155.79V115.287H153.847ZM153.847 26.6538H155.79V24.7101H153.847V26.6538ZM119.443 26.6538H117.499V28.5975H119.443V26.6538ZM119.443 2.94054V0.996838H117.499V2.94054H119.443ZM215.073 2.94054H217.017V0.996838H215.073V2.94054ZM215.073 26.6538V28.5975H217.017V26.6538H215.073ZM180.475 26.6538V24.7101H178.532V26.6538H180.475ZM180.475 115.287H178.532V117.23H180.475V115.287ZM215.073 115.287H217.017V113.343H215.073V115.287ZM215.073 139V140.944H217.017V139H215.073ZM119.443 139H117.499V140.944H119.443V139ZM119.443 117.23H153.847V113.343H119.443V117.23ZM155.79 115.287V26.6538H151.903V115.287H155.79ZM153.847 24.7101H119.443V28.5975H153.847V24.7101ZM121.387 26.6538V2.94054H117.499V26.6538H121.387ZM119.443 4.88425H215.073V0.996838H119.443V4.88425ZM213.13 2.94054V26.6538H217.017V2.94054H213.13ZM215.073 24.7101H180.475V28.5975H215.073V24.7101ZM178.532 26.6538V115.287H182.419V26.6538H178.532ZM180.475 117.23H215.073V113.343H180.475V117.23ZM213.13 115.287V139H217.017V115.287H213.13ZM215.073 137.056H119.443V140.944H215.073V137.056ZM121.387 139V115.287H117.499V139H121.387ZM235.99 115.287V113.343H234.046V115.287H235.99ZM270.393 115.287V117.23H272.337V115.287H270.393ZM270.393 26.6538H272.337V24.7101H270.393V26.6538ZM235.99 26.6538H234.046V28.5975H235.99V26.6538ZM235.99 2.94054V0.996838H234.046V2.94054H235.99ZM331.62 2.94054H333.564V0.996838H331.62V2.94054ZM331.62 26.6538V28.5975H333.564V26.6538H331.62ZM297.022 26.6538V24.7101H295.078V26.6538H297.022ZM297.022 115.287H295.078V117.23H297.022V115.287ZM331.62 115.287H333.564V113.343H331.62V115.287ZM331.62 139V140.944H333.564V139H331.62ZM235.99 139H234.046V140.944H235.99V139ZM235.99 117.23H270.393V113.343H235.99V117.23ZM272.337 115.287V26.6538H268.449V115.287H272.337ZM270.393 24.7101H235.99V28.5975H270.393V24.7101ZM237.933 26.6538V2.94054H234.046V26.6538H237.933ZM235.99 4.88425H331.62V0.996838H235.99V4.88425ZM329.676 2.94054V26.6538H333.564V2.94054H329.676ZM331.62 24.7101H297.022V28.5975H331.62V24.7101ZM295.078 26.6538V115.287H298.966V26.6538H295.078ZM297.022 117.23H331.62V113.343H297.022V117.23ZM329.676 115.287V139H333.564V115.287H329.676ZM331.62 137.056H235.99V140.944H331.62V137.056ZM237.933 139V115.287H234.046V139H237.933Z" fill="#5A86EB"/>
</svg>
