<svg width="191" height="124" viewBox="0 0 191 124" fill="none" xmlns="http://www.w3.org/2000/svg">
<path opacity="0.1" d="M2.34603 101.115V99.4031H0.634145V101.115H2.34603ZM32.6465 101.115V102.827H34.3583V101.115H32.6465ZM32.6465 23.0529H34.3583V21.341H32.6465V23.0529ZM2.34603 23.0529H0.634145V24.7648H2.34603V23.0529ZM2.34603 2.16782V0.455935H0.634145V2.16782H2.34603ZM86.5709 2.16782H88.2828V0.455935H86.5709V2.16782ZM86.5709 23.0529V24.7648H88.2828V23.0529H86.5709ZM56.0993 23.0529V21.341H54.3874V23.0529H56.0993ZM56.0993 101.115H54.3874V102.827H56.0993V101.115ZM86.5709 101.115H88.2828V99.4031H86.5709V101.115ZM86.5709 122V123.712H88.2828V122H86.5709ZM2.34603 122H0.634145V123.712H2.34603V122ZM2.34603 102.827H32.6465V99.4031H2.34603V102.827ZM34.3583 101.115V23.0529H30.9346V101.115H34.3583ZM32.6465 21.341H2.34603V24.7648H32.6465V21.341ZM4.05792 23.0529V2.16782H0.634145V23.0529H4.05792ZM2.34603 3.87971H86.5709V0.455935H2.34603V3.87971ZM84.859 2.16782V23.0529H88.2828V2.16782H84.859ZM86.5709 21.341H56.0993V24.7648H86.5709V21.341ZM54.3874 23.0529V101.115H57.8112V23.0529H54.3874ZM56.0993 102.827H86.5709V99.4031H56.0993V102.827ZM84.859 101.115V122H88.2828V101.115H84.859ZM86.5709 120.288H2.34603V123.712H86.5709V120.288ZM4.05792 122V101.115H0.634145V122H4.05792ZM104.992 101.115V99.4031H103.281V101.115H104.992ZM135.293 101.115V102.827H137.005V101.115H135.293ZM135.293 23.0529H137.005V21.341H135.293V23.0529ZM104.992 23.0529H103.281V24.7648H104.992V23.0529ZM104.992 2.16782V0.455935H103.281V2.16782H104.992ZM189.217 2.16782H190.929V0.455935H189.217V2.16782ZM189.217 23.0529V24.7648H190.929V23.0529H189.217ZM158.746 23.0529V21.341H157.034V23.0529H158.746ZM158.746 101.115H157.034V102.827H158.746V101.115ZM189.217 101.115H190.929V99.4031H189.217V101.115ZM189.217 122V123.712H190.929V122H189.217ZM104.992 122H103.281V123.712H104.992V122ZM104.992 102.827H135.293V99.4031H104.992V102.827ZM137.005 101.115V23.0529H133.581V101.115H137.005ZM135.293 21.341H104.992V24.7648H135.293V21.341ZM106.704 23.0529V2.16782H103.281V23.0529H106.704ZM104.992 3.87971H189.217V0.455935H104.992V3.87971ZM187.505 2.16782V23.0529H190.929V2.16782H187.505ZM189.217 21.341H158.746V24.7648H189.217V21.341ZM157.034 23.0529V101.115H160.458V23.0529H157.034ZM158.746 102.827H189.217V99.4031H158.746V102.827ZM187.505 101.115V122H190.929V101.115H187.505ZM189.217 120.288H104.992V123.712H189.217V120.288ZM106.704 122V101.115H103.281V122H106.704Z" fill="#5A86EB"/>
</svg>
