<svg width="106" height="150" viewBox="0 0 106 150" fill="none" xmlns="http://www.w3.org/2000/svg">
<path opacity="0.1" d="M2.20036 121.787V119.72H0.133698V121.787H2.20036ZM38.7804 121.787V123.853H40.847V121.787H38.7804ZM38.7804 27.5467H40.847V25.48H38.7804V27.5467ZM2.20036 27.5467H0.133698V29.6133H2.20036V27.5467ZM2.20036 2.33332V0.266655H0.133698V2.33332H2.20036ZM103.88 2.33332H105.947V0.266655H103.88V2.33332ZM103.88 27.5467V29.6133H105.947V27.5467H103.88ZM67.0937 27.5467V25.48H65.027V27.5467H67.0937ZM67.0937 121.787H65.027V123.853H67.0937V121.787ZM103.88 121.787H105.947V119.72H103.88V121.787ZM103.88 147V149.067H105.947V147H103.88ZM2.20036 147H0.133698V149.067H2.20036V147ZM2.20036 123.853H38.7804V119.72H2.20036V123.853ZM40.847 121.787V27.5467H36.7137V121.787H40.847ZM38.7804 25.48H2.20036V29.6133H38.7804V25.48ZM4.26703 27.5467V2.33332H0.133698V27.5467H4.26703ZM2.20036 4.39999H103.88V0.266655H2.20036V4.39999ZM101.814 2.33332V27.5467H105.947V2.33332H101.814ZM103.88 25.48H67.0937V29.6133H103.88V25.48ZM65.027 27.5467V121.787H69.1604V27.5467H65.027ZM67.0937 123.853H103.88V119.72H67.0937V123.853ZM101.814 121.787V147H105.947V121.787H101.814ZM103.88 144.933H2.20036V149.067H103.88V144.933ZM4.26703 147V121.787H0.133698V147H4.26703Z" fill="#5A86EB"/>
</svg>
