<svg width="108" height="108" viewBox="0 0 108 108" fill="none" xmlns="http://www.w3.org/2000/svg">
<g clip-path="url(#clip0)">
<path d="M74.9671 32.5203H99.4291C103.289 32.5203 106.418 35.6493 106.418 39.5093V81.4441C106.418 85.3038 103.289 88.4328 99.4291 88.4328H90.6927C89.7277 88.4328 88.9455 89.215 88.9455 90.18V98.1927C88.9455 99.7494 87.0635 100.529 85.9627 99.4282L75.4791 88.9444C75.1515 88.6168 74.707 88.4326 74.2436 88.4326H40.0217C36.162 88.4326 33.033 85.3036 33.033 81.4438V63.1011L74.9671 32.5203Z" fill="#4A67FF"/>
<path d="M67.9782 8.05835H8.57102C4.71108 8.05835 1.58203 11.1874 1.58203 15.0473V56.9821C1.58203 60.8419 4.71108 63.9709 8.57081 63.9709H17.3072C18.2723 63.9709 19.0544 64.7533 19.0544 65.7181V73.7308C19.0544 75.2875 20.9364 76.0669 22.0373 74.9662L32.5209 64.4824C32.8485 64.1549 33.2929 63.9707 33.7563 63.9707H67.9782C71.8379 63.9707 74.967 60.8417 74.967 56.9819V15.0473C74.9672 11.1874 71.8381 8.05835 67.9782 8.05835Z" fill="#F9F5F3"/>
<path d="M57.4326 75.0053C57.7414 73.1003 56.4475 71.3058 54.5425 70.997C52.6376 70.6882 50.843 71.9821 50.5342 73.887C50.2254 75.7919 51.5193 77.5865 53.4243 77.8953C55.3292 78.2041 57.1238 76.9102 57.4326 75.0053Z" fill="#F9F5F3"/>
<path d="M40.7353 55.9565C42.0998 54.592 42.0998 52.3797 40.7353 51.0152C39.3708 49.6506 37.1584 49.6506 35.7939 51.0152C34.4294 52.3797 34.4294 54.592 35.7939 55.9565C37.1584 57.321 39.3708 57.321 40.7353 55.9565Z" fill="#868EAF"/>
<path d="M38.2746 43.0039C36.3445 43.0039 34.78 41.4394 34.78 39.5093V36.0147C34.78 32.8139 36.6723 29.9686 39.6005 28.766C40.9967 28.1927 41.8645 26.7902 41.7601 25.2761C41.6432 23.5812 40.2245 22.1622 38.5298 22.0454C37.5468 21.9789 36.6067 22.3078 35.8912 22.9756C35.1746 23.6443 34.78 24.5519 34.78 25.5313C34.78 27.4614 33.2155 29.0259 31.2854 29.0259C29.3553 29.0259 27.7908 27.4614 27.7908 25.5313C27.7908 22.6362 29.0051 19.8425 31.1221 17.8663C33.2382 15.8913 36.1116 14.8722 39.0107 15.073C44.1954 15.4308 48.3749 19.6103 48.7322 24.7951C49.0444 29.3183 46.4414 33.5123 42.2552 35.2315C41.9643 35.3509 41.7685 35.6658 41.7685 36.0149V39.5095C41.769 41.4394 40.2047 43.0039 38.2746 43.0039Z" fill="#868EAF"/>
<path d="M88.854 75.2981C89.2979 73.4202 88.1354 71.538 86.2575 71.0941C84.3796 70.6502 82.4974 71.8127 82.0535 73.6906C81.6096 75.5685 82.7721 77.4507 84.65 77.8946C86.5279 78.3385 88.4101 77.176 88.854 75.2981Z" fill="#F9F5F3"/>
<path d="M73.1555 75.0065C73.4643 73.1016 72.1704 71.307 70.2654 70.9982C68.3605 70.6894 66.5659 71.9833 66.2571 73.8882C65.9483 75.7932 67.2422 77.5877 69.1472 77.8965C71.0521 78.2053 72.8467 76.9114 73.1555 75.0065Z" fill="#F9F5F3"/>
<path d="M27.4977 64.4826L19.0547 72.9256V73.7308C19.0547 75.2875 20.9367 76.0669 22.0376 74.9662L32.5212 64.4824C32.849 64.1549 33.2932 63.9707 33.7566 63.9707H28.7331C28.2697 63.9709 27.8253 64.1549 27.4977 64.4826Z" fill="#F9EAE0"/>
<path d="M67.9783 8.05835H62.9548C66.8148 8.05835 69.9438 11.1874 69.9438 15.0473V56.9821C69.9438 60.8421 66.8148 63.9711 62.955 63.9711H67.9785C71.8385 63.9711 74.9673 60.8421 74.9673 56.9821V15.0473C74.9673 11.1874 71.8383 8.05835 67.9783 8.05835Z" fill="#F9EAE0"/>
<path d="M83.9221 90.1801V97.3876L85.9627 99.4282C87.0634 100.529 88.9456 99.7492 88.9456 98.1927V90.1801C88.9456 89.215 89.728 88.4329 90.6928 88.4329H85.6693C84.7043 88.4329 83.9221 89.2152 83.9221 90.1801Z" fill="#2737CE"/>
<path d="M99.429 32.5203H94.4055C98.2655 32.5203 101.395 35.6493 101.395 39.5093V81.444C101.395 85.304 98.2655 88.4328 94.4057 88.4328H99.4292C103.289 88.4328 106.418 85.3038 106.418 81.444V39.509C106.418 35.6493 103.289 32.5203 99.429 32.5203Z" fill="#2737CE"/>
<path d="M99.429 30.9381H76.549V15.0476C76.549 10.3215 72.704 6.47656 67.978 6.47656H8.57102C3.84497 6.47656 0 10.3213 0 15.0476V38.6059C0 39.4798 0.708117 40.188 1.58203 40.188C2.45595 40.188 3.16406 39.4798 3.16406 38.6059V15.0476C3.16406 12.0662 5.58963 9.64062 8.57102 9.64062H67.9782C70.9596 9.64062 73.3852 12.0662 73.3852 15.0476V56.9824C73.3852 59.9638 70.9598 62.3893 67.9784 62.3893H33.7563C32.8666 62.3893 32.0304 62.7359 31.4023 63.3643L20.9187 73.8479C20.8894 73.8776 20.8402 73.9259 20.7385 73.884C20.6366 73.8418 20.6366 73.7726 20.6366 73.7312V65.7186C20.6366 63.8828 19.143 62.3893 17.3072 62.3893H8.57102C5.58963 62.3891 3.16406 59.9636 3.16406 56.9822V44.9341C3.16406 44.0601 2.45595 43.352 1.58203 43.352C0.708117 43.352 0 44.0601 0 44.9341V56.9822C0 61.7082 3.84497 65.5532 8.57102 65.5532H17.3072C17.3985 65.5532 17.4726 65.6274 17.4726 65.7184V73.731C17.4726 75.0823 18.2792 76.2897 19.5278 76.8067C19.9422 76.9784 20.3757 77.0619 20.8052 77.0619C21.67 77.0617 22.5176 76.7236 23.1563 76.0851L31.451 67.7902V81.444C31.451 86.1698 35.2957 90.0148 40.0218 90.0148H59.1821C60.056 90.0148 60.7641 89.3067 60.7641 88.4327C60.7641 87.5588 60.056 86.8507 59.1821 86.8507H40.0218C37.0404 86.8507 34.6151 84.4254 34.6151 81.444V65.5532H67.9784C72.7043 65.5532 76.5492 61.7084 76.5492 56.9822V34.1022H99.4292C102.411 34.1022 104.836 36.5278 104.836 39.5092V81.4442C104.836 84.4256 102.411 86.8509 99.4292 86.8509H90.693C88.8572 86.8509 87.3636 88.3444 87.3636 90.1801V98.1928C87.3636 98.234 87.3636 98.3031 87.2617 98.3455C87.159 98.3875 87.1106 98.3386 87.0817 98.3097L76.5984 87.8265C75.9698 87.1975 75.1336 86.8509 74.2441 86.8509H65.5109C64.6369 86.8509 63.9288 87.559 63.9288 88.433C63.9288 89.3069 64.6369 90.015 65.5109 90.015H74.2441C74.2873 90.015 74.3297 90.0325 74.3607 90.0635L84.8446 100.547C85.4831 101.185 86.3306 101.524 87.1952 101.524C87.6247 101.524 88.0588 101.44 88.4731 101.269C89.7214 100.751 90.5281 99.5441 90.5281 98.1928V90.1801C90.5281 90.089 90.6023 90.015 90.6934 90.015H99.4296C104.156 90.015 108.001 86.1702 108.001 81.4442V39.5092C108 34.7831 104.155 30.9381 99.429 30.9381Z" fill="black"/>
<path d="M48.9236 74.4548C48.9236 77.254 51.2009 79.5313 54 79.5313C56.7993 79.5313 59.0764 77.254 59.0764 74.4548C59.0764 71.6555 56.7991 69.3784 54 69.3784C51.2009 69.3784 48.9236 71.6557 48.9236 74.4548ZM55.9124 74.4548C55.9124 75.5093 55.0545 76.3672 54 76.3672C52.9455 76.3672 52.0876 75.5093 52.0876 74.4548C52.0876 73.4004 52.9455 72.5425 54 72.5425C55.0545 72.5425 55.9124 73.4004 55.9124 74.4548Z" fill="black"/>
<path d="M33.198 53.4876C33.198 56.2869 35.4755 58.564 38.2746 58.564C41.074 58.564 43.3511 56.2867 43.3511 53.4876C43.3511 50.6884 41.0738 48.4111 38.2746 48.4111C35.4755 48.4109 33.198 50.6882 33.198 53.4876ZM40.1872 53.4876C40.1872 54.542 39.3293 55.3999 38.2748 55.3999C37.2202 55.3999 36.3623 54.542 36.3623 53.4876C36.3623 52.4331 37.2202 51.5752 38.2748 51.5752C39.3291 51.575 40.1872 52.4331 40.1872 53.4876Z" fill="black"/>
<path d="M43.3512 36.4791C47.8784 34.3813 50.6579 29.7101 50.3109 24.6866C49.8996 18.7179 45.0883 13.9067 39.1202 13.4947C35.7883 13.2639 32.4789 14.4361 30.043 16.7098C27.6062 18.9839 26.2087 22.1993 26.2087 25.5312C26.2087 28.3306 28.4862 30.6076 31.2854 30.6076C34.0845 30.6076 36.3618 28.3304 36.3618 25.5312C36.3618 24.9874 36.5723 24.5037 36.9704 24.1323C37.3614 23.7676 37.8778 23.5881 38.421 23.6237C39.3293 23.6864 40.119 24.4763 40.1817 25.3855C40.2393 26.2182 39.7642 26.989 38.9996 27.3029C35.475 28.7501 33.1977 32.1698 33.1977 36.015V39.5094C33.1977 42.3086 35.475 44.5861 38.2742 44.5861C41.0733 44.5861 43.3508 42.3086 43.3508 39.5094V36.4791H43.3512ZM41.6551 33.7681C40.7632 34.1341 40.1871 35.0162 40.1871 36.015V39.5094C40.1871 40.5641 39.3293 41.422 38.2746 41.422C37.2201 41.422 36.3622 40.5641 36.3622 39.5094V36.015C36.3622 33.4585 37.8694 31.1875 40.2017 30.2296C42.2297 29.3971 43.4902 27.3626 43.3386 25.1676C43.1685 22.7019 41.1043 20.6373 38.637 20.4672C38.5163 20.459 38.3963 20.4548 38.2771 20.4548C36.9815 20.4548 35.7625 20.9321 34.8122 21.8189C33.7713 22.7901 33.1982 24.1084 33.1982 25.5314C33.1982 26.5859 32.3403 27.4438 31.2858 27.4438C30.2311 27.4438 29.3732 26.5859 29.3732 25.5314C29.3732 23.0734 30.4045 20.701 32.2021 19.023C33.9989 17.3456 36.4373 16.4793 38.9027 16.6516C43.3035 16.9549 46.8513 20.5031 47.1546 24.9045C47.4196 28.7461 45.2094 32.3084 41.6551 33.7681Z" fill="black"/>
<path d="M90.5276 74.4548C90.5276 71.6555 88.2503 69.3784 85.4512 69.3784C82.652 69.3784 80.3748 71.6557 80.3748 74.4548C80.3748 77.254 82.652 79.5313 85.4512 79.5313C88.2503 79.5315 90.5276 77.2542 90.5276 74.4548ZM83.5386 74.4548C83.5386 73.4004 84.3965 72.5425 85.451 72.5425C86.5054 72.5425 87.3633 73.4004 87.3633 74.4548C87.3633 75.5093 86.5054 76.3672 85.451 76.3672C84.3967 76.3674 83.5386 75.5093 83.5386 74.4548Z" fill="black"/>
<path d="M69.7258 79.5315C72.5249 79.5315 74.8022 77.2542 74.8022 74.4551C74.8022 71.6557 72.5249 69.3787 69.7258 69.3787C66.9264 69.3787 64.6492 71.6559 64.6492 74.4551C64.649 77.2542 66.9264 79.5315 69.7258 79.5315ZM69.7258 72.5425C70.7803 72.5425 71.6382 73.4004 71.6382 74.4549C71.6382 75.5093 70.7803 76.3672 69.7258 76.3672C68.6711 76.3672 67.8132 75.5093 67.8132 74.4549C67.813 73.4004 68.6711 72.5425 69.7258 72.5425Z" fill="black"/>
</g>
<defs>
<clipPath id="clip0">
<rect width="108" height="108" fill="white"/>
</clipPath>
</defs>
</svg>
