<svg width="205" height="209" viewBox="0 0 205 209" fill="none" xmlns="http://www.w3.org/2000/svg">
<path d="M0.792893 200.293C0.402369 200.683 0.402369 201.317 0.792893 201.707L7.15685 208.071C7.54738 208.462 8.18054 208.462 8.57107 208.071C8.96159 207.681 8.96159 207.047 8.57107 206.657L2.91421 201L8.57107 195.343C8.96159 194.953 8.96159 194.319 8.57107 193.929C8.18054 193.538 7.54738 193.538 7.15685 193.929L0.792893 200.293ZM1.5 202H6.0625V200H1.5V202ZM15.1875 202H24.3125V200H15.1875V202ZM33.4375 202H42.5625V200H33.4375V202ZM51.6875 202H60.8125V200H51.6875V202ZM69.9375 202H74.5V200H69.9375V202ZM74.5 202C76.2114 202 77.9152 201.967 79.6106 201.901L79.5333 199.903C77.8636 199.967 76.1856 200 74.5 200V202ZM89.788 201.11C93.1905 200.712 96.5529 200.182 99.87 199.526L99.4818 197.564C96.216 198.21 92.9055 198.732 89.5553 199.124L89.788 201.11ZM109.801 197.15C113.091 196.223 116.329 195.171 119.508 193.998L118.815 192.121C115.686 193.276 112.498 194.312 109.259 195.224L109.801 197.15ZM128.94 190.086C132.039 188.655 135.071 187.106 138.032 185.445L137.053 183.7C134.138 185.337 131.152 186.862 128.102 188.27L128.94 190.086ZM146.731 180.103C149.563 178.207 152.316 176.202 154.985 174.096L153.746 172.526C151.118 174.6 148.407 176.574 145.618 178.441L146.731 180.103ZM162.744 167.463C165.243 165.151 167.651 162.743 169.963 160.244L168.494 158.886C166.218 161.347 163.847 163.718 161.386 165.994L162.744 167.463ZM176.596 152.485C178.702 149.816 180.707 147.063 182.603 144.231L180.941 143.118C179.074 145.907 177.1 148.618 175.026 151.246L176.596 152.485ZM187.945 135.532C189.606 132.571 191.155 129.539 192.586 126.44L190.77 125.602C189.362 128.652 187.837 131.638 186.2 134.553L187.945 135.532ZM196.498 117.008C197.671 113.829 198.723 110.591 199.65 107.301L197.724 106.759C196.812 109.998 195.776 113.186 194.621 116.315L196.498 117.008ZM202.026 97.37C202.682 94.0529 203.212 90.6905 203.61 87.288L201.624 87.0553C201.232 90.4055 200.71 93.716 200.064 96.9818L202.026 97.37ZM204.401 77.1106C204.467 75.4152 204.5 73.7114 204.5 72H202.5C202.5 73.6856 202.467 75.3636 202.403 77.0334L204.401 77.1106ZM204.5 72V67.5312H202.5V72H204.5ZM204.5 58.5938V49.6562H202.5V58.5938H204.5ZM204.5 40.7188V31.7812H202.5V40.7188H204.5ZM204.5 22.8438V13.9062H202.5V22.8438H204.5ZM204.5 4.96875V0.5H202.5V4.96875H204.5Z" fill="#3741A1"/>
</svg>
