<svg width="72" height="72" viewBox="0 0 72 72" fill="none" xmlns="http://www.w3.org/2000/svg">
<path d="M69.886 63.7977L66.3176 60.2292C65.7074 59.6242 64.8895 59.2746 64.0305 59.2519C63.1716 59.2291 62.3363 59.5348 61.6949 60.1066L59.5462 57.9579C63.2887 53.8007 65.26 48.3464 65.04 42.757C64.8201 37.1677 62.4263 31.8852 58.3686 28.0349C54.311 24.1847 48.9102 22.0711 43.3171 22.1444C37.7239 22.2178 32.3804 24.4722 28.4251 28.4276C24.4698 32.3829 22.2153 37.7263 22.142 43.3195C22.0686 48.9127 24.1823 54.3134 28.0325 58.3711C31.8828 62.4287 37.1653 64.8225 42.7546 65.0425C48.3439 65.2624 53.7982 63.2912 57.9554 59.5486L60.1031 61.6974C59.5252 62.3359 59.2156 63.1726 59.2386 64.0335C59.2617 64.8944 59.6156 65.7133 60.2268 66.32L63.7953 69.8896C64.4282 70.5223 65.2865 70.8778 66.1814 70.8778C67.0764 70.8778 67.9346 70.5223 68.5676 69.8896L69.886 68.5722C70.1997 68.2588 70.4485 67.8867 70.6182 67.4771C70.788 67.0674 70.8753 66.6284 70.8753 66.185C70.8753 65.7416 70.788 65.3026 70.6182 64.8929C70.4485 64.4833 70.1997 64.1112 69.886 63.7977ZM57.1814 44.8089C56.8831 44.8089 56.5969 44.6903 56.3859 44.4794C56.175 44.2684 56.0564 43.9822 56.0564 43.6839C56.0526 40.403 54.7475 37.2576 52.4276 34.9377C50.1077 32.6178 46.9623 31.3127 43.6814 31.3089C43.3831 31.3089 43.0969 31.1903 42.8859 30.9794C42.675 30.7684 42.5564 30.4822 42.5564 30.1839C42.5564 29.8855 42.675 29.5993 42.8859 29.3884C43.0969 29.1774 43.3831 29.0589 43.6814 29.0589C47.5588 29.0633 51.2762 30.6056 54.0179 33.3474C56.7597 36.0891 58.302 39.8064 58.3064 43.6839C58.3064 43.9822 58.1879 44.2684 57.9769 44.4794C57.7659 44.6903 57.4798 44.8089 57.1814 44.8089Z" fill="#C4C7E1"/>
<path d="M29.25 1.12501C24.5589 1.12173 19.9415 2.29189 15.8182 4.52896C11.6949 6.76603 8.1966 9.99895 5.64187 13.9334C3.08714 17.8678 1.55712 22.3788 1.1911 27.0555C0.825073 31.7323 1.63468 36.4264 3.5462 40.7104C5.45772 44.9943 8.41045 48.7321 12.1355 51.5835C15.8606 54.4348 20.2398 56.309 24.8742 57.0356C29.5087 57.7622 34.2513 57.318 38.6703 55.7435C43.0893 54.1689 47.0442 51.5141 50.175 48.0206C50.2157 47.9796 50.2534 47.9356 50.2875 47.889C53.8849 43.8371 56.2343 38.8318 57.0528 33.4756C57.8714 28.1194 57.1242 22.6408 54.9013 17.6994C52.6783 12.7581 49.0744 8.5646 44.5234 5.624C39.9724 2.68341 34.6684 1.12103 29.25 1.12501ZM10.3219 46.8675C10.7687 43.6022 12.0549 40.5087 14.055 37.8893C16.0551 35.2699 18.7005 33.2141 21.7328 31.923L27.7875 55.0811C23.9956 54.8709 20.2974 53.8223 16.9594 52.011L17.9978 42.8771C18.0316 42.5807 17.9463 42.283 17.7607 42.0494C17.575 41.8159 17.3042 41.6656 17.0078 41.6318C16.8607 41.6131 16.7113 41.6242 16.5686 41.6642C16.4258 41.7042 16.2925 41.7725 16.1766 41.8648C16.0606 41.9572 15.9643 42.0719 15.8934 42.2021C15.8224 42.3323 15.7783 42.4754 15.7635 42.6229L14.8421 50.7229C13.1936 49.614 11.677 48.3205 10.3219 46.8675ZM38.1589 17.9145C35.832 17.601 33.7223 16.3837 32.2864 14.526C33.0809 13.675 33.7914 12.7494 34.4081 11.7619C35.4234 12.4737 36.2807 13.3877 36.9261 14.4464C37.5716 15.5052 37.9913 16.6859 38.1589 17.9145ZM20.3355 17.9505C20.5078 16.6063 20.9826 15.3187 21.7241 14.1845C22.4657 13.0502 23.4547 12.0988 24.6169 11.4018C25.779 10.7048 27.0841 10.2803 28.4339 10.1603C29.7838 10.0403 31.1432 10.2279 32.4101 10.7089C31.0985 12.7711 29.3243 14.4992 27.2284 15.7562C25.1324 17.0132 22.7724 17.7645 20.3355 17.9505ZM30.6394 16.0796C31.5645 17.2262 32.7074 18.1783 34.0022 18.8812C35.297 19.584 36.7182 20.0236 38.1836 20.1746C37.9289 22.3618 36.8806 24.3796 35.2374 25.8454C33.5942 27.3112 31.4703 28.1233 29.2683 28.1276C27.0663 28.1319 24.9393 27.3281 23.2904 25.8687C21.6415 24.4093 20.5853 22.3957 20.322 20.2095C24.1112 19.9581 27.7233 18.5123 30.6394 16.0796ZM26.9269 42.8873L29.25 38.4289L31.5799 42.8839L29.25 51.7995L26.9269 42.8873ZM29.25 30.375C29.7619 30.375 30.2625 30.4065 30.7688 30.4459L29.25 33.4845L27.7313 30.447C28.2375 30.4065 28.7381 30.375 29.25 30.375ZM32.4259 39.6473L30.5134 35.9888L33.1189 30.7778C33.6353 30.8835 34.146 31.0028 34.6466 31.1501L32.4259 39.6473ZM25.3811 30.7778L27.9866 35.9888L26.0741 39.6461L23.8545 31.149C24.3563 31.0028 24.8625 30.8824 25.3811 30.7778ZM43.6646 50.7274L42.7421 42.6274C42.7271 42.48 42.6828 42.3371 42.6117 42.207C42.5407 42.077 42.4444 41.9624 42.3285 41.8701C42.2126 41.7778 42.0794 41.7095 41.9368 41.6694C41.7942 41.6292 41.6449 41.618 41.4979 41.6363C41.2015 41.6701 40.9306 41.8204 40.745 42.0539C40.5593 42.2875 40.474 42.5852 40.5079 42.8816L41.5474 52.0155C38.2093 53.8265 34.5112 54.8751 30.7193 55.0856L36.7706 31.9298C39.8015 33.2207 42.4457 35.2755 44.4451 37.8937C46.4445 40.5118 47.7307 43.6038 48.1781 46.8675C46.8254 48.3217 45.3111 49.6167 43.6646 50.7274ZM50.049 44.622C49.1735 40.8676 47.297 37.4205 44.6191 34.6472C41.9411 31.874 38.5617 29.8782 34.8401 28.872C36.9914 27.6407 38.6753 25.733 39.63 23.4455C40.5846 21.1581 40.7565 18.6192 40.1188 16.224C39.4811 13.8288 38.0696 11.7115 36.104 10.2015C34.1383 8.69157 31.7287 7.87365 29.25 7.87501C17.7908 7.87501 13.6811 23.13 23.6599 28.8743C19.9383 29.8804 16.5589 31.8762 13.881 34.6495C11.203 37.4227 9.32653 40.8698 8.45102 44.6243C5.60089 40.773 3.87606 36.2059 3.46871 31.4321C3.06135 26.6582 3.98748 21.865 6.14389 17.5864C8.3003 13.3079 11.6023 9.71217 15.682 7.1998C19.7617 4.68744 24.4588 3.35714 29.25 3.35714C34.0412 3.35714 38.7384 4.68744 42.8181 7.1998C46.8977 9.71217 50.1997 13.3079 52.3562 17.5864C54.5126 21.865 55.4387 26.6582 55.0313 31.4321C54.624 36.2059 52.8991 40.773 50.049 44.6243V44.622Z" fill="#D62931"/>
</svg>
