<svg width="72" height="72" viewBox="0 0 72 72" fill="none" xmlns="http://www.w3.org/2000/svg">
<path d="M46.125 21.375C41.2299 21.375 36.4448 22.8266 32.3746 25.5461C28.3045 28.2657 25.1323 32.1311 23.259 36.6536C21.3857 41.1761 20.8956 46.1525 21.8506 50.9535C22.8056 55.7545 25.1628 60.1645 28.6241 63.6259C32.0855 67.0872 36.4955 69.4445 41.2965 70.3994C46.0976 71.3544 51.074 70.8643 55.5964 68.991C60.1189 67.1177 63.9843 63.9455 66.7039 59.8754C69.4235 55.8052 70.875 51.0201 70.875 46.125C70.8676 39.5632 68.2576 33.2722 63.6177 28.6323C58.9778 23.9924 52.6868 21.3824 46.125 21.375ZM65.25 47.25H64.0676C63.789 51.6189 61.9276 55.7365 58.8321 58.8321C55.7365 61.9276 51.6189 63.7889 47.25 64.0676V65.25C47.25 65.5484 47.1315 65.8345 46.9205 66.0455C46.7095 66.2565 46.4234 66.375 46.125 66.375C45.8266 66.375 45.5405 66.2565 45.3295 66.0455C45.1185 65.8345 45 65.5484 45 65.25V64.0676C40.6311 63.7889 36.5135 61.9276 33.418 58.8321C30.3224 55.7365 28.4611 51.6189 28.1824 47.25H27C26.7016 47.25 26.4155 47.1315 26.2045 46.9205C25.9935 46.7095 25.875 46.4234 25.875 46.125C25.875 45.8266 25.9935 45.5405 26.2045 45.3295C26.4155 45.1185 26.7016 45 27 45H28.1824C28.4611 40.6311 30.3224 36.5135 33.418 33.4179C36.5135 30.3224 40.6311 28.4611 45 28.1824V27C45 26.7016 45.1185 26.4155 45.3295 26.2045C45.5405 25.9935 45.8266 25.875 46.125 25.875C46.4234 25.875 46.7095 25.9935 46.9205 26.2045C47.1315 26.4155 47.25 26.7016 47.25 27V28.1824C51.6189 28.4611 55.7365 30.3224 58.8321 33.4179C61.9276 36.5135 63.789 40.6311 64.0676 45H65.25C65.5484 45 65.8345 45.1185 66.0455 45.3295C66.2565 45.5405 66.375 45.8266 66.375 46.125C66.375 46.4234 66.2565 46.7095 66.0455 46.9205C65.8345 47.1315 65.5484 47.25 65.25 47.25Z" fill="#C4C7E1"/>
<path d="M59.625 46.1247C59.625 45.8264 59.7435 45.5402 59.9545 45.3293C60.1655 45.1183 60.4516 44.9997 60.75 44.9997H61.8176C61.5436 41.2269 59.9208 37.6787 57.2459 35.0038C54.5711 32.329 51.0229 30.7062 47.25 30.4321V31.4998C47.25 31.7981 47.1315 32.0843 46.9205 32.2952C46.7095 32.5062 46.4234 32.6248 46.125 32.6248C45.8266 32.6248 45.5405 32.5062 45.3295 32.2952C45.1185 32.0843 45 31.7981 45 31.4998V30.4321C41.2271 30.7062 37.6789 32.329 35.0041 35.0038C32.3292 37.6787 30.7064 41.2269 30.4324 44.9997H31.5C31.7984 44.9997 32.0845 45.1183 32.2955 45.3293C32.5065 45.5402 32.625 45.8264 32.625 46.1247C32.625 46.4231 32.5065 46.7093 32.2955 46.9202C32.0845 47.1312 31.7984 47.2497 31.5 47.2497H30.4324C30.7064 51.0226 32.3292 54.5708 35.0041 57.2457C37.6789 59.9205 41.2271 61.5433 45 61.8174V60.7497C45 60.4514 45.1185 60.1652 45.3295 59.9542C45.5405 59.7433 45.8266 59.6247 46.125 59.6247C46.4234 59.6247 46.7095 59.7433 46.9205 59.9542C47.1315 60.1652 47.25 60.4514 47.25 60.7497V61.8174C51.0229 61.5433 54.5711 59.9205 57.2459 57.2457C59.9208 54.5708 61.5436 51.0226 61.8176 47.2497H60.75C60.4516 47.2497 60.1655 47.1312 59.9545 46.9202C59.7435 46.7093 59.625 46.4231 59.625 46.1247ZM49.5 47.2497H47.25V49.4997C47.25 49.7981 47.1315 50.0843 46.9205 50.2952C46.7095 50.5062 46.4234 50.6247 46.125 50.6247C45.8266 50.6247 45.5405 50.5062 45.3295 50.2952C45.1185 50.0843 45 49.7981 45 49.4997V47.2497H42.75C42.4516 47.2497 42.1655 47.1312 41.9545 46.9202C41.7435 46.7093 41.625 46.4231 41.625 46.1247C41.625 45.8264 41.7435 45.5402 41.9545 45.3293C42.1655 45.1183 42.4516 44.9997 42.75 44.9997H45V42.7497C45 42.4514 45.1185 42.1652 45.3295 41.9543C45.5405 41.7433 45.8266 41.6247 46.125 41.6247C46.4234 41.6247 46.7095 41.7433 46.9205 41.9543C47.1315 42.1652 47.25 42.4514 47.25 42.7497V44.9997H49.5C49.7984 44.9997 50.0845 45.1183 50.2955 45.3293C50.5065 45.5402 50.625 45.8264 50.625 46.1247C50.625 46.4231 50.5065 46.7093 50.2955 46.9202C50.0845 47.1312 49.7984 47.2497 49.5 47.2497Z" fill="#C4C7E1"/>
<path d="M57.0453 1.45464C56.8344 1.24374 56.5483 1.12526 56.25 1.12526C55.9517 1.12526 55.6656 1.24374 55.4546 1.45464L52.875 4.03427L50.2965 1.45577C50.192 1.35096 50.0678 1.26779 49.9312 1.21103C49.7945 1.15428 49.648 1.12505 49.5 1.12502H46.125C45.915 1.12387 45.7088 1.18153 45.5299 1.29148C45.3509 1.40143 45.2063 1.55927 45.1125 1.74714L43.4846 5.01639C37.9739 1.77227 31.5216 0.504575 25.1931 1.42266C18.8647 2.34074 13.0386 5.3897 8.6769 10.066C4.31523 14.7424 1.67887 20.7664 1.20315 27.1434C0.727426 33.5204 2.4408 39.8689 6.06034 45.1406L1.76172 51.6128C1.28681 52.3254 1.07337 53.1805 1.15769 54.0327C1.24201 54.8849 1.61887 55.6816 2.22421 56.2873C2.82955 56.8931 3.626 57.2705 4.47815 57.3553C5.33029 57.4402 6.18554 57.2273 6.89847 56.7529L13.3638 52.443C18.0388 55.6554 23.5777 57.375 29.25 57.375C34.9222 57.375 40.4612 55.6554 45.1361 52.443L51.6015 56.7529C52.3144 57.2273 53.1696 57.4402 54.0218 57.3553C54.8739 57.2705 55.6704 56.8931 56.2757 56.2873C56.8811 55.6816 57.2579 54.8849 57.3422 54.0327C57.4266 53.1805 57.2131 52.3254 56.7382 51.6128L52.4396 45.1406C55.467 40.7413 57.1737 35.5682 57.3587 30.231C57.5437 24.8938 56.1992 19.6149 53.4836 15.0165L56.7528 13.3875C56.9407 13.2936 57.0986 13.1491 57.2085 12.9701C57.3184 12.7912 57.3761 12.585 57.375 12.375V9.00002C57.3749 8.85202 57.3457 8.70549 57.2889 8.56881C57.2322 8.43214 57.149 8.308 57.0442 8.20352L54.4657 5.62502L57.0453 3.04539C57.2562 2.83442 57.3747 2.54833 57.3747 2.25002C57.3747 1.95171 57.2562 1.66561 57.0453 1.45464ZM46.8202 3.37502H49.0331L51.2831 5.62502L43.875 13.0343V9.26552L46.8202 3.37502ZM41.625 15.2843L38.7528 18.1564C35.873 15.6879 32.149 14.4309 28.3623 14.6491C24.5756 14.8673 21.0207 16.5439 18.4435 19.3268C15.8663 22.1098 14.4673 25.7829 14.5401 29.5752C14.6129 33.3674 16.1518 36.9841 18.8338 39.6661C21.5159 42.3482 25.1325 43.8871 28.9248 43.9599C32.7171 44.0326 36.3902 42.6337 39.1731 40.0565C41.9561 37.4793 43.6326 33.9244 43.8509 30.1377C44.0691 26.351 42.8121 22.6269 40.3436 19.7471L43.2157 16.875H43.7782C46.9966 20.6556 48.627 25.5351 48.3278 30.4911C48.0285 35.4471 45.8228 40.095 42.1728 43.4609C38.5229 46.8267 33.7119 48.6494 28.748 48.547C23.784 48.4446 19.0523 46.4251 15.5442 42.9116C12.0362 39.398 10.0241 34.6631 9.92944 29.699C9.83482 24.7349 11.665 19.9268 15.0366 16.2821C18.4082 12.6374 23.0595 10.439 28.016 10.1475C32.9724 9.85603 37.8494 11.4941 41.625 14.7184V15.2843ZM34.875 29.25C34.8787 30.5075 34.4623 31.7301 33.6918 32.7238C32.9213 33.7176 31.8409 34.4254 30.6222 34.735C29.4034 35.0446 28.1162 34.9382 26.9648 34.4326C25.8135 33.9271 24.864 33.0514 24.2672 31.9446C23.6704 30.8378 23.4604 29.5634 23.6706 28.3236C23.8809 27.0839 24.4992 25.9499 25.4275 25.1017C26.3558 24.2535 27.5409 23.7398 28.7945 23.642C30.0482 23.5443 31.2985 23.8681 32.3471 24.5621L28.4546 28.4546C28.3471 28.5584 28.2614 28.6826 28.2025 28.8198C28.1435 28.9571 28.1125 29.1047 28.1112 29.2541C28.1099 29.4034 28.1383 29.5516 28.1949 29.6898C28.2515 29.8281 28.335 29.9537 28.4406 30.0593C28.5463 30.165 28.6719 30.2485 28.8101 30.3051C28.9484 30.3616 29.0965 30.3901 29.2459 30.3888C29.3953 30.3875 29.5429 30.3565 29.6802 30.2975C29.8174 30.2385 29.9416 30.1528 30.0453 30.0454L33.9378 26.1529C34.5487 27.0703 34.8747 28.1478 34.875 29.25ZM33.957 22.95C32.3563 21.7522 30.3614 21.2052 28.3737 21.4191C26.386 21.6331 24.5531 22.592 23.244 24.103C21.9349 25.614 21.2469 27.5648 21.3183 29.5627C21.3897 31.5606 22.2154 33.4573 23.629 34.871C25.0427 36.2846 26.9393 37.1102 28.9372 37.1817C30.9352 37.2531 32.886 36.565 34.3969 35.256C35.9079 33.9469 36.8669 32.114 37.0809 30.1263C37.2948 28.1386 36.7478 26.1436 35.55 24.543L38.7562 21.3368C40.7976 23.7876 41.8156 26.9311 41.5984 30.1133C41.3811 33.2956 39.9454 36.2716 37.5899 38.4222C35.2343 40.5729 32.1403 41.7326 28.9515 41.6601C25.7626 41.5877 22.7245 40.2886 20.4691 38.0332C18.2136 35.7777 16.9146 32.7396 16.8421 29.5508C16.7696 26.3619 17.9294 23.2679 20.08 20.9124C22.2307 18.5568 25.2067 17.1211 28.3889 16.9038C31.5712 16.6866 34.7147 17.7046 37.1655 19.746L33.957 22.95ZM5.64971 54.8809C5.36803 55.062 5.03329 55.1424 4.70007 55.1089C4.36686 55.0754 4.05482 54.93 3.81484 54.6964C3.57814 54.4573 3.4311 54.1439 3.39852 53.8091C3.36593 53.4742 3.44979 53.1384 3.63597 52.8581L7.49359 47.0509C8.67967 48.4987 10.0065 49.8252 11.4547 51.0109L5.64971 54.8809ZM54.864 52.8559C55.0501 53.1361 55.134 53.472 55.1014 53.8068C55.0688 54.1417 54.9218 54.4551 54.6851 54.6941C54.4451 54.9277 54.1331 55.0732 53.7999 55.1067C53.4666 55.1402 53.1319 55.0598 52.8502 54.8786L47.0452 51.0086C48.4934 49.823 49.8203 48.4965 51.0063 47.0486L54.864 52.8559ZM55.125 29.25C55.1363 34.9752 53.2524 40.543 49.7671 45.085C46.2817 49.627 41.3911 52.8877 35.858 54.3583C30.325 55.8289 24.4608 55.4268 19.1803 53.2146C13.8998 51.0024 9.5 47.1046 6.66735 42.1293C3.8347 37.1541 2.7285 31.3811 3.52131 25.7111C4.31413 20.0412 6.96139 14.793 11.0501 10.7856C15.1388 6.77808 20.4389 4.23662 26.1237 3.55768C31.8084 2.87875 37.558 4.10052 42.4755 7.03239L41.7431 8.49489C41.6649 8.65177 41.6245 8.82474 41.625 9.00002V11.8654C37.2418 8.73997 31.8439 7.37626 26.5022 8.04479C21.1605 8.71332 16.2652 11.3653 12.7874 15.4745C9.30965 19.5838 7.5035 24.8501 7.72726 30.2288C7.95102 35.6076 10.1883 40.7057 13.9954 44.5119C17.8025 48.3181 22.9011 50.5543 28.2799 50.7768C33.6587 50.9994 38.9246 49.1921 43.0331 45.7134C47.1415 42.2347 49.7924 37.3388 50.4597 31.9969C51.127 26.6551 49.7621 21.2575 46.6357 16.875H49.5C49.6745 16.8752 49.8466 16.8347 50.0028 16.7569L51.4653 16.0245C53.859 20.0209 55.1238 24.5917 55.125 29.25ZM55.125 9.46689V11.6798L49.2345 14.625H45.4657L52.875 7.21689L55.125 9.46689Z" fill="#D62931"/>
</svg>
