<svg width="72" height="72" viewBox="0 0 72 72" fill="none" xmlns="http://www.w3.org/2000/svg">
<path d="M22.5 46.1474C24.8861 46.1447 27.1738 45.1957 28.861 43.5084C30.5482 41.8212 31.4973 39.5336 31.5 37.1474V35.0864C28.0585 35.4117 24.749 36.5751 21.861 38.4749C21.7116 38.5781 21.5893 38.7158 21.5047 38.8765C21.42 39.0371 21.3756 39.2159 21.375 39.3974V46.1474H22.5Z" fill="#C4C7E1"/>
<path d="M31.5 64.1475C31.4973 61.7613 30.5482 59.4737 28.861 57.7865C27.1738 56.0992 24.8861 55.1501 22.5 55.1475H21.375V66.3975C21.375 66.6026 21.4311 66.8039 21.5372 66.9795C21.6434 67.155 21.7955 67.2982 21.9772 67.3936C22.1588 67.4889 22.3631 67.5328 22.5679 67.5204C22.7727 67.508 22.9702 67.4399 23.139 67.3234C25.6469 65.6693 28.5133 64.6376 31.5 64.314V64.1475Z" fill="#C4C7E1"/>
<path d="M60.75 41.6473C60.7527 44.0334 61.7018 46.321 63.389 48.0083C65.0762 49.6955 67.3639 50.6446 69.75 50.6473H70.875V39.3973C70.8751 39.1922 70.8191 38.991 70.7131 38.8155C70.6071 38.6399 70.4551 38.4967 70.2736 38.4012C70.0921 38.3058 69.8879 38.2618 69.6832 38.274C69.4785 38.2861 69.281 38.354 69.1121 38.4703C66.6038 40.1243 63.7371 41.156 60.75 41.4797V41.6473Z" fill="#C4C7E1"/>
<path d="M69.75 59.6475C67.3639 59.6501 65.0762 60.5992 63.389 62.2865C61.7018 63.9737 60.7527 66.2613 60.75 68.6475V70.7073C64.1909 70.3841 67.5002 69.2222 70.3879 67.3233C70.538 67.22 70.6608 67.0817 70.7456 66.9205C70.8305 66.7592 70.8749 66.5797 70.875 66.3975V59.6475H69.75Z" fill="#C4C7E1"/>
<path d="M46.125 58.5225C49.2316 58.5225 51.75 56.0041 51.75 52.8975C51.75 49.7909 49.2316 47.2725 46.125 47.2725C43.0184 47.2725 40.5 49.7909 40.5 52.8975C40.5 56.0041 43.0184 58.5225 46.125 58.5225Z" fill="#C4C7E1"/>
<path d="M58.5 68.6475C58.5033 65.6648 59.6896 62.8052 61.7987 60.6962C63.9077 58.5871 66.7673 57.4008 69.75 57.3975H70.875V52.8975H69.75C66.7674 52.8939 63.908 51.7075 61.799 49.5985C59.69 47.4895 58.5036 44.6301 58.5 41.6475V41.6396C54.3547 41.8221 50.2546 40.7166 46.7629 38.475C42.8923 35.9857 38.3482 34.7506 33.75 34.938V37.1475C33.7464 40.1301 32.56 42.9895 30.451 45.0985C28.342 47.2075 25.4826 48.3939 22.5 48.3975H21.375V52.8975H22.5C25.4827 52.9008 28.3423 54.0871 30.4513 56.1962C32.5604 58.3052 33.7467 61.1648 33.75 64.1475V64.1542C37.8958 63.9731 41.9959 65.0802 45.4871 67.3234C49.1921 69.7182 53.5267 70.9546 57.9375 70.875C58.1254 70.875 58.3121 70.8604 58.5 70.857V68.6475ZM46.125 60.7725C44.5675 60.7725 43.0449 60.3106 41.7499 59.4453C40.4548 58.58 39.4455 57.3501 38.8494 55.9111C38.2534 54.4722 38.0975 52.8888 38.4013 51.3612C38.7052 49.8336 39.4552 48.4304 40.5565 47.329C41.6579 46.2277 43.0611 45.4777 44.5887 45.1738C46.1163 44.87 47.6997 45.0259 49.1386 45.6219C50.5776 46.218 51.8075 47.2273 52.6728 48.5224C53.5381 49.8174 54 51.34 54 52.8975C53.9973 54.9853 53.1668 56.9867 51.6905 58.463C50.2142 59.9393 48.2128 60.7698 46.125 60.7725Z" fill="#C4C7E1"/>
<path d="M30.375 28.7842V15.75C30.375 15.4516 30.2565 15.1655 30.0455 14.9545C29.8345 14.7435 29.5484 14.625 29.25 14.625C28.9516 14.625 28.6655 14.7435 28.4545 14.9545C28.2435 15.1655 28.125 15.4516 28.125 15.75V29.25C28.1251 29.5483 28.2436 29.8344 28.4546 30.0454L38.5796 40.1704C38.7918 40.3753 39.076 40.4887 39.371 40.4861C39.6659 40.4836 39.9481 40.3653 40.1567 40.1567C40.3653 39.9481 40.4836 39.6659 40.4861 39.371C40.4887 39.076 40.3753 38.7918 40.1704 38.5796L30.375 28.7842Z" fill="#D62931"/>
<path d="M29.25 1.125C23.6874 1.125 18.2497 2.7745 13.6246 5.86492C8.99947 8.95533 5.39462 13.3479 3.2659 18.487C1.13719 23.6262 0.580217 29.2812 1.66543 34.7369C2.75064 40.1926 5.42928 45.204 9.36263 49.1374C13.296 53.0707 18.3074 55.7494 23.7631 56.8346C29.2188 57.9198 34.8738 57.3628 40.013 55.2341C45.1522 53.1054 49.5447 49.5005 52.6351 44.8754C55.7255 40.2503 57.375 34.8126 57.375 29.25C57.3667 21.7933 54.4008 14.6445 49.1282 9.37183C43.8555 4.09918 36.7067 1.13334 29.25 1.125ZM29.25 55.125C24.1324 55.125 19.1298 53.6075 14.8746 50.7643C10.6195 47.9211 7.30305 43.88 5.34463 39.1519C3.38621 34.4239 2.8738 29.2213 3.87219 24.202C4.87059 19.1828 7.33494 14.5723 10.9536 10.9536C14.5723 7.33493 19.1828 4.87057 24.2021 3.87218C29.2213 2.87379 34.4239 3.3862 39.1519 5.34462C43.88 7.30303 47.9211 10.6195 50.7643 14.8746C53.6075 19.1297 55.125 24.1324 55.125 29.25C55.1173 36.1101 52.3887 42.687 47.5378 47.5378C42.687 52.3887 36.1101 55.1173 29.25 55.125Z" fill="#D62931"/>
<path d="M29.25 5.625C24.5774 5.625 20.0098 7.01058 16.1247 9.60653C12.2396 12.2025 9.21148 15.8922 7.42336 20.2091C5.63524 24.526 5.16738 29.2762 6.07896 33.859C6.99053 38.4418 9.2406 42.6514 12.5446 45.9554C15.8486 49.2594 20.0582 51.5095 24.641 52.4211C29.2238 53.3326 33.974 52.8648 38.2909 51.0767C42.6078 49.2885 46.2975 46.2605 48.8935 42.3753C51.4894 38.4902 52.875 33.9226 52.875 29.25C52.8679 22.9865 50.3765 16.9815 45.9475 12.5525C41.5185 8.1235 35.5136 5.63215 29.25 5.625ZM29.25 50.625C25.0224 50.625 20.8898 49.3714 17.3747 47.0227C13.8596 44.674 11.1199 41.3356 9.50209 37.4299C7.88426 33.5241 7.46097 29.2263 8.28573 25.0799C9.11048 20.9336 11.1463 17.1249 14.1356 14.1356C17.125 11.1462 20.9336 9.11047 25.08 8.28571C29.2263 7.46096 33.5241 7.88425 37.4299 9.50208C41.3356 11.1199 44.674 13.8596 47.0227 17.3747C49.3714 20.8898 50.625 25.0224 50.625 29.25C50.6188 34.9171 48.3647 40.3503 44.3575 44.3575C40.3503 48.3647 34.9171 50.6187 29.25 50.625Z" fill="#D62931"/>
</svg>
