<svg width="72" height="72" viewBox="0 0 72 72" fill="none" xmlns="http://www.w3.org/2000/svg">
<path d="M67.5 21.375H63V25.875C63 26.1734 62.8815 26.4595 62.6705 26.6705C62.4595 26.8815 62.1734 27 61.875 27C61.5766 27 61.2905 26.8815 61.0795 26.6705C60.8685 26.4595 60.75 26.1734 60.75 25.875V18C60.75 17.7016 60.6315 17.4155 60.4205 17.2045C60.2095 16.9935 59.9234 16.875 59.625 16.875C59.3266 16.875 59.0405 16.9935 58.8295 17.2045C58.6185 17.4155 58.5 17.7016 58.5 18V21.375H36V25.875C36 26.1734 35.8815 26.4595 35.6705 26.6705C35.4595 26.8815 35.1734 27 34.875 27C34.5766 27 34.2905 26.8815 34.0795 26.6705C33.8685 26.4595 33.75 26.1734 33.75 25.875V18C33.75 17.7016 33.6315 17.4155 33.4205 17.2045C33.2095 16.9935 32.9234 16.875 32.625 16.875C32.3266 16.875 32.0405 16.9935 31.8295 17.2045C31.6185 17.4155 31.5 17.7016 31.5 18V21.375H24.75C23.8549 21.375 22.9964 21.7306 22.3635 22.3635C21.7306 22.9964 21.375 23.8549 21.375 24.75V31.5H70.875V24.75C70.875 23.8549 70.5194 22.9964 69.8865 22.3635C69.2535 21.7306 68.3951 21.375 67.5 21.375Z" fill="#C4C7E1"/>
<path d="M60.75 50.625H51.75C51.1287 50.625 50.625 51.1287 50.625 51.75V60.75C50.625 61.3713 51.1287 61.875 51.75 61.875H60.75C61.3713 61.875 61.875 61.3713 61.875 60.75V51.75C61.875 51.1287 61.3713 50.625 60.75 50.625Z" fill="#C4C7E1"/>
<path d="M21.375 67.5C21.375 68.3951 21.7306 69.2535 22.3635 69.8865C22.9964 70.5194 23.8549 70.875 24.75 70.875H67.5C68.3951 70.875 69.2535 70.5194 69.8865 69.8865C70.5194 69.2535 70.875 68.3951 70.875 67.5V33.75H21.375V67.5ZM48.375 51.75C48.375 50.8549 48.7306 49.9965 49.3635 49.3635C49.9965 48.7306 50.8549 48.375 51.75 48.375H60.75C61.6451 48.375 62.5035 48.7306 63.1365 49.3635C63.7694 49.9965 64.125 50.8549 64.125 51.75V60.75C64.125 61.6451 63.7694 62.5035 63.1365 63.1365C62.5035 63.7694 61.6451 64.125 60.75 64.125H51.75C50.8549 64.125 49.9965 63.7694 49.3635 63.1365C48.7306 62.5035 48.375 61.6451 48.375 60.75V51.75Z" fill="#C4C7E1"/>
<path d="M54.6502 37.0339C54.3182 36.3724 53.7783 35.8381 53.1134 35.5129C52.4485 35.1878 51.6952 35.0898 50.9692 35.2339L45.5546 36.3173C48.1776 33.2322 49.8708 29.4659 50.4373 25.4563C51.0039 21.4467 50.4204 17.3587 48.7548 13.6677C47.0891 9.97673 44.4099 6.83447 41.0285 4.60641C37.6472 2.37836 33.7028 1.15607 29.6541 1.08173C25.6053 1.00739 21.6187 2.08404 18.1579 4.18645C14.697 6.28887 11.9042 9.33065 10.1042 12.958C8.30417 16.5854 7.571 20.6492 7.98992 24.6769C8.40885 28.7045 9.96266 32.5305 12.4706 35.7098L8.6625 38.25H2.25C1.95163 38.25 1.66548 38.3686 1.4545 38.5795C1.24353 38.7905 1.125 39.0767 1.125 39.375V52.875C1.125 53.1734 1.24353 53.4596 1.4545 53.6705C1.66548 53.8815 1.95163 54 2.25 54H8.8875L22.8487 56.7912C24.902 57.206 27.0335 56.97 28.9462 56.1162L54.5546 44.7345C54.9714 44.5493 55.3464 44.2815 55.6568 43.9473C55.9672 43.6131 56.2067 43.2195 56.3607 42.7902C56.5147 42.3609 56.5802 41.9048 56.553 41.4495C56.5259 40.9942 56.4067 40.5491 56.2028 40.1412L54.6502 37.0339ZM10.125 22.5C10.1228 19.2854 10.931 16.1221 12.4749 13.3024C14.0187 10.4828 16.2484 8.09776 18.9578 6.3678C21.6672 4.63783 24.769 3.61873 27.9765 3.40468C31.184 3.19063 34.3937 3.78854 37.309 5.14315C40.2243 6.49775 42.7511 8.56535 44.6559 11.1549C46.5607 13.7444 47.7821 16.7723 48.2071 19.9587C48.6321 23.1451 48.2471 26.3872 47.0876 29.3855C45.9281 32.3837 44.0316 35.0413 41.5732 37.1127L37.125 38.0025V34.875C37.125 33.9799 36.7694 33.1215 36.1365 32.4886C35.5035 31.8556 34.6451 31.5 33.75 31.5H20.7787C19.549 30.3452 18.5683 28.9511 17.897 27.4034C17.2256 25.8557 16.8779 24.1871 16.875 22.5C16.875 22.2017 16.7565 21.9155 16.5455 21.7045C16.3345 21.4936 16.0484 21.375 15.75 21.375C15.4516 21.375 15.1655 21.4936 14.9545 21.7045C14.7435 21.9155 14.625 22.2017 14.625 22.5C14.6315 25.9685 15.8712 29.3217 18.1226 31.9602C18.0596 31.9973 17.9944 32.0265 17.9336 32.0727L14.3482 34.4633C11.6171 31.074 10.1269 26.8528 10.125 22.5ZM7.875 51.75H3.375V40.5H7.875V51.75ZM53.6411 42.678L28.0327 54.0597C26.545 54.7241 24.887 54.9082 23.2897 54.5862L10.125 51.9525V39.9769L19.1812 33.939C19.3664 33.8164 19.5835 33.7507 19.8056 33.75H33.75C34.0484 33.75 34.3345 33.8686 34.5455 34.0795C34.7565 34.2905 34.875 34.5767 34.875 34.875V38.4537L18.9 41.6475C18.751 41.672 18.6085 41.7263 18.4809 41.807C18.3533 41.8878 18.2433 41.9934 18.1574 42.1176C18.0715 42.2418 18.0114 42.382 17.9808 42.5298C17.9503 42.6777 17.9498 42.8302 17.9794 42.9783C18.009 43.1263 18.0681 43.2669 18.1532 43.3916C18.2383 43.5164 18.3476 43.6227 18.4747 43.7043C18.6018 43.7859 18.7439 43.841 18.8928 43.8665C19.0416 43.892 19.194 43.8872 19.341 43.8525L51.4035 37.44C51.6455 37.3915 51.8968 37.4239 52.1186 37.5322C52.3404 37.6406 52.5204 37.8189 52.6309 38.0397L54.1834 41.1469C54.2516 41.2825 54.2917 41.4304 54.3012 41.5819C54.3107 41.7333 54.2896 41.8851 54.2389 42.0282C54.1882 42.1712 54.1092 42.3025 54.0064 42.4142C53.9037 42.5259 53.7794 42.6156 53.6411 42.678Z" fill="#D62931"/>
<path d="M29.25 10.125C32.5309 10.1289 35.6762 11.4339 37.9962 13.7538C40.3161 16.0738 41.6211 19.2191 41.625 22.5C41.625 22.7984 41.7435 23.0845 41.9545 23.2955C42.1655 23.5065 42.4516 23.625 42.75 23.625C43.0484 23.625 43.3345 23.5065 43.5455 23.2955C43.7565 23.0845 43.875 22.7984 43.875 22.5C43.8705 18.6226 42.3283 14.9052 39.5865 12.1635C36.8448 9.42174 33.1274 7.87947 29.25 7.875C28.9516 7.875 28.6655 7.99353 28.4545 8.20451C28.2435 8.41548 28.125 8.70163 28.125 9C28.125 9.29837 28.2435 9.58452 28.4545 9.79549C28.6655 10.0065 28.9516 10.125 29.25 10.125Z" fill="#D62931"/>
</svg>
