<svg width="75" height="56" viewBox="0 0 75 56" fill="none" xmlns="http://www.w3.org/2000/svg">
<path d="M43.5549 43.47H31.3449C30.3449 43.47 29.6049 42.98 29.6049 42.32V39.6C29.6049 39.49 29.3649 39.29 28.9249 39.22C26.6953 38.8625 24.4957 38.3377 22.3449 37.65C21.9094 37.5113 21.4375 37.5435 21.0249 37.74L17.7049 39.66C17.349 39.8425 16.9548 39.9377 16.5549 39.9377C16.1549 39.9377 15.7607 39.8425 15.4049 39.66L6.74488 34.66C6.58613 34.5743 6.45351 34.4473 6.36108 34.2924C6.26865 34.1374 6.21986 33.9604 6.21986 33.78C6.21986 33.5996 6.26865 33.4226 6.36108 33.2676C6.45351 33.1127 6.58613 32.9857 6.74488 32.9L10.0849 30.98C10.2149 30.9 10.2749 30.82 10.2849 30.77C10.2744 30.7158 10.2463 30.6666 10.2049 30.63C9.08291 29.5101 8.13868 28.2252 7.40488 26.82C7.27997 26.6833 7.12364 26.5791 6.9494 26.5163C6.77516 26.4536 6.58826 26.4343 6.40488 26.46H1.73488C0.734879 26.46 0.00488281 25.96 0.00488281 25.3V18.22C0.00488281 17.56 0.754879 17.06 1.73488 17.06H6.44488C6.62827 17.0857 6.81517 17.0664 6.9894 17.0037C7.16364 16.9409 7.31997 16.8367 7.44488 16.7C8.14815 15.2754 9.06545 13.9669 10.1649 12.82C10.1649 12.82 10.2449 12.73 10.2349 12.68C10.2249 12.63 10.1749 12.55 10.0349 12.47L6.71488 10.55C6.54399 10.4733 6.39807 10.3501 6.29376 10.1945C6.18945 10.039 6.13093 9.85723 6.12488 9.67001C6.13837 9.48474 6.19986 9.30615 6.30331 9.15186C6.40676 8.99756 6.54861 8.87285 6.71488 8.79001L15.3749 3.79001C15.729 3.60757 16.1215 3.51239 16.5199 3.51239C16.9182 3.51239 17.3108 3.60757 17.6649 3.79001L20.9949 5.71002C21.2013 5.81714 21.427 5.88202 21.6588 5.90091C21.8906 5.9198 22.1238 5.89229 22.3449 5.82001C24.4925 5.13281 26.6886 4.60799 28.9149 4.25C29.3549 4.18 29.5949 3.98 29.5949 3.87V1.14999C29.5949 0.489994 30.3449 0 31.3349 0H43.5849C44.5849 0 45.3149 0.489994 45.3149 1.14999V3.82001C45.3149 3.91001 45.5249 4.12001 46.0049 4.20001C48.2281 4.55693 50.421 5.08177 52.5649 5.77002C53.0036 5.9093 53.4789 5.87711 53.8949 5.67999L57.2149 3.76001C57.569 3.57757 57.9615 3.48239 58.3599 3.48239C58.7582 3.48239 59.1508 3.57757 59.5049 3.76001L68.1749 8.76001C68.3336 8.84569 68.4662 8.97273 68.5587 9.12766C68.6511 9.28258 68.6999 9.45962 68.6999 9.64001C68.6999 9.82041 68.6511 9.99745 68.5587 10.1524C68.4662 10.3073 68.3336 10.4343 68.1749 10.52L64.8449 12.44C64.7149 12.52 64.6549 12.6 64.6449 12.65C64.6349 12.7 64.6449 12.76 64.7249 12.79C65.8368 13.928 66.7676 15.2298 67.4849 16.65C67.6098 16.7867 67.7661 16.8909 67.9404 16.9537C68.1146 17.0164 68.3015 17.0357 68.4849 17.01H73.1849C73.7134 16.9828 74.2313 17.1662 74.6249 17.52C74.7144 17.6033 74.7862 17.7038 74.8361 17.8155C74.8859 17.9272 74.9127 18.0477 74.9149 18.17V25.25C74.9149 25.91 74.1749 26.41 73.1849 26.41H68.4849C68.3015 26.3843 68.1146 26.4036 67.9404 26.4663C67.7661 26.5291 67.6098 26.6333 67.4849 26.77C66.7676 28.1902 65.8368 29.492 64.7249 30.63C64.7026 30.6465 64.6839 30.6675 64.6702 30.6916C64.6564 30.7157 64.6478 30.7424 64.6449 30.77C64.6449 30.82 64.7149 30.9 64.8549 30.98L68.1749 32.9C68.3439 32.9781 68.4878 33.1019 68.5902 33.2574C68.6927 33.4129 68.7497 33.5939 68.7549 33.78C68.7443 33.9648 68.6851 34.1435 68.5833 34.2981C68.4814 34.4526 68.3405 34.5775 68.1749 34.66L59.5049 39.66C59.1508 39.8424 58.7582 39.9376 58.3599 39.9376C57.9615 39.9376 57.569 39.8424 57.2149 39.66L53.8849 37.74C53.4725 37.5425 53.0002 37.5103 52.5649 37.65C50.421 38.3382 48.2281 38.8631 46.0049 39.22C45.5649 39.29 45.3149 39.49 45.3149 39.6V42.32C45.2849 42.98 44.5449 43.47 43.5549 43.47ZM21.7549 36.82C22.0228 36.8192 22.2893 36.8597 22.5449 36.94C24.6585 37.6077 26.8174 38.1224 29.0049 38.48C29.7949 38.61 30.3149 39.06 30.3149 39.6V42.32C30.3149 42.46 30.6949 42.72 31.3149 42.72H43.5649C44.1749 42.72 44.5649 42.46 44.5649 42.32V39.6C44.5649 39.06 45.0949 38.6 45.8749 38.48C48.0626 38.1235 50.2216 37.6088 52.3349 36.94C52.6505 36.836 52.9836 36.7957 53.3149 36.8215C53.6462 36.8472 53.9691 36.9385 54.2649 37.09L57.5949 39.01C57.8344 39.1282 58.0978 39.1897 58.3649 39.1897C58.6319 39.1897 58.8954 39.1282 59.1349 39.01L67.7949 34.01C67.9549 33.92 68.0049 33.83 68.0049 33.78C68.0049 33.73 68.0049 33.64 67.7949 33.55L64.4749 31.63C64.3256 31.5614 64.1955 31.4571 64.096 31.3263C63.9966 31.1955 63.931 31.0422 63.9049 30.88C63.8865 30.7386 63.9023 30.5949 63.951 30.4609C63.9997 30.3269 64.0799 30.2065 64.1849 30.11C65.2417 29.0264 66.1284 27.789 66.8149 26.44C66.9899 26.174 67.2342 25.9608 67.5214 25.8233C67.8087 25.6859 68.1279 25.6294 68.4449 25.66H73.1449C73.7549 25.66 74.1449 25.39 74.1449 25.25V18.17C74.143 18.146 74.1357 18.1228 74.1236 18.102C74.1115 18.0812 74.0948 18.0635 74.0749 18.05C73.8184 17.8432 73.4938 17.7397 73.1649 17.76H68.4649C68.1479 17.7906 67.8286 17.7341 67.5414 17.5967C67.2542 17.4592 67.0099 17.246 66.8349 16.98C66.1484 15.631 65.2617 14.3936 64.2049 13.31C64.0999 13.2135 64.0197 13.0931 63.971 12.9591C63.9223 12.8251 63.9065 12.6814 63.9249 12.54C63.951 12.3778 64.0166 12.2245 64.116 12.0937C64.2154 11.9629 64.3456 11.8586 64.4949 11.79L67.8249 9.87C67.9749 9.77999 68.0349 9.69001 68.0349 9.64001C68.0349 9.59001 67.9749 9.5 67.8149 9.41L59.1549 4.41C58.9154 4.29183 58.6519 4.23035 58.3849 4.23035C58.1178 4.23035 57.8544 4.29183 57.6149 4.41L54.2849 6.33002C53.6863 6.63176 52.9929 6.68564 52.3549 6.48001C50.2416 5.81117 48.0826 5.29647 45.8949 4.94C45.1149 4.81 44.5849 4.36001 44.5849 3.82001V1.10001C44.5849 0.960006 44.2149 0.700012 43.5849 0.700012H31.3449C30.7349 0.700012 30.3449 0.960006 30.3449 1.10001V3.82001C30.3449 4.36001 29.8249 4.82 29.0349 4.94C26.8476 5.29875 24.6888 5.8134 22.5749 6.48001C22.261 6.5843 21.9295 6.62476 21.5997 6.599C21.27 6.57324 20.9487 6.48178 20.6549 6.33002L17.3449 4.41C17.1054 4.29183 16.8419 4.23035 16.5749 4.23035C16.3078 4.23035 16.0444 4.29183 15.8049 4.41L7.13488 9.41C6.98488 9.5 6.92488 9.59001 6.92488 9.64001C6.92488 9.69001 6.98488 9.77999 7.13488 9.87L10.4149 11.82C10.5595 11.895 10.6857 12.0012 10.7842 12.1309C10.8828 12.2606 10.9513 12.4106 10.9849 12.57C11.0009 12.7113 10.9839 12.8543 10.9353 12.9879C10.8867 13.1215 10.8079 13.242 10.7049 13.34C9.64531 14.4213 8.75828 15.6591 8.07488 17.01C7.89907 17.2752 7.65465 17.4878 7.36762 17.6252C7.0806 17.7625 6.7617 17.8195 6.44488 17.79H1.73488C1.13488 17.79 0.734879 18.06 0.734879 18.2V25.28C0.734879 25.42 1.11488 25.69 1.73488 25.69H6.44488C6.7617 25.6605 7.0806 25.7175 7.36762 25.8549C7.65465 25.9922 7.89907 26.2048 8.07488 26.47C8.75828 27.8209 9.64531 29.0587 10.7049 30.14C10.8092 30.237 10.8889 30.3574 10.9376 30.4913C10.9863 30.6252 11.0025 30.7687 10.9849 30.91C10.9534 31.0702 10.8857 31.2211 10.7869 31.3511C10.6881 31.4811 10.5608 31.5868 10.4149 31.66L7.08488 33.58C6.93488 33.67 6.87488 33.76 6.87488 33.81C6.87488 33.86 6.93488 33.95 7.08488 34.04L15.7549 39.04C15.9944 39.1582 16.2578 39.2197 16.5249 39.2197C16.7919 39.2197 17.0554 39.1582 17.2949 39.04L20.6249 37.12C20.9694 36.9243 21.3587 36.821 21.7549 36.82Z" fill="white"/>
<path d="M73.115 38.3701H68.415C68.3261 38.3555 68.2452 38.3098 68.1868 38.2411C68.1285 38.1724 68.0964 38.0852 68.0964 37.9951C68.0964 37.9049 68.1285 37.8177 68.1868 37.7491C68.2452 37.6804 68.3261 37.6346 68.415 37.6201H73.115C73.725 37.6201 74.115 37.3601 74.115 37.2101V25.2101C74.115 25.1093 74.155 25.0126 74.2263 24.9414C74.2976 24.8701 74.3942 24.8301 74.495 24.8301C74.5444 24.8301 74.5934 24.8399 74.6389 24.8592C74.6845 24.8784 74.7257 24.9065 74.7602 24.942C74.7947 24.9774 74.8218 25.0193 74.8398 25.0654C74.8577 25.1115 74.8663 25.1607 74.865 25.2101V37.2101C74.845 37.8701 74.105 38.3701 73.115 38.3701Z" fill="white"/>
<path d="M43.555 55.4402H31.345C30.345 55.4402 29.605 54.9402 29.605 54.2802V51.5702C29.605 51.4602 29.365 51.2602 28.925 51.1902C26.6973 50.8231 24.4985 50.2984 22.345 49.6202C21.9096 49.4815 21.4377 49.5137 21.025 49.7102L17.705 51.6302C17.3492 51.8127 16.955 51.9079 16.555 51.9079C16.1551 51.9079 15.7609 51.8127 15.405 51.6302L6.74503 46.6302C6.57562 46.5543 6.4307 46.4327 6.32649 46.279C6.22229 46.1254 6.16292 45.9457 6.15503 45.7602C6.155 45.6611 6.19366 45.5659 6.26277 45.495C6.33189 45.424 6.42599 45.3828 6.52503 45.3802C6.62236 45.3827 6.71501 45.4225 6.78386 45.4914C6.85271 45.5602 6.89251 45.6529 6.89503 45.7502C6.89503 45.8002 6.95503 45.8902 7.10503 45.9802L15.775 50.9802C16.0157 51.0941 16.2787 51.1532 16.545 51.1532C16.8113 51.1532 17.0743 51.0941 17.315 50.9802L20.645 49.0602C21.2389 48.7557 21.929 48.6982 22.565 48.9002C24.6774 49.5749 26.8365 50.0929 29.025 50.4502C29.815 50.5702 30.335 51.0302 30.335 51.5702V54.2802C30.335 54.4202 30.715 54.6902 31.335 54.6902H43.585C44.195 54.6902 44.585 54.4202 44.585 54.2802V51.5702C44.585 51.0302 45.115 50.5702 45.895 50.4502C48.084 50.0952 50.2433 49.5771 52.355 48.9002C52.9937 48.6999 53.685 48.7536 54.285 49.0502L57.615 50.9802C57.8545 51.0984 58.118 51.1599 58.385 51.1599C58.6521 51.1599 58.9156 51.0984 59.155 50.9802L67.815 45.9802C67.955 45.9002 68.045 45.8102 68.025 45.7402C68.0074 45.6422 68.029 45.5412 68.0851 45.4589C68.1412 45.3766 68.2273 45.3196 68.325 45.3002C68.423 45.2826 68.5241 45.3041 68.6064 45.3602C68.6887 45.4164 68.7456 45.5025 68.765 45.6002C68.7846 45.8053 68.7404 46.0115 68.6383 46.1904C68.5363 46.3694 68.3815 46.5126 68.195 46.6002L59.525 51.6002C59.1709 51.7827 58.7784 51.8778 58.38 51.8778C57.9817 51.8778 57.5891 51.7827 57.235 51.6002L53.905 49.6702C53.4924 49.4719 53.0186 49.4432 52.585 49.5902C50.4385 50.2691 48.2463 50.7938 46.025 51.1602C45.585 51.2302 45.335 51.4302 45.335 51.5402V54.2502C45.285 54.9402 44.545 55.4402 43.555 55.4402Z" fill="white"/>
<path d="M6.44499 38.37H1.735C0.734996 38.37 0.00500021 37.87 0.00500021 37.21V25.21C-0.00390877 25.1556 -0.000886769 25.1 0.0138579 25.0469C0.0286027 24.9938 0.0547152 24.9446 0.0903884 24.9026C0.126062 24.8606 0.170439 24.8268 0.220447 24.8037C0.270455 24.7805 0.3249 24.7686 0.38 24.7686C0.4351 24.7686 0.489538 24.7805 0.539546 24.8037C0.589554 24.8268 0.633931 24.8606 0.669604 24.9026C0.705278 24.9446 0.73139 24.9938 0.746135 25.0469C0.76088 25.1 0.763909 25.1556 0.755 25.21V37.21C0.755 37.36 1.135 37.62 1.755 37.62H6.44499C6.53394 37.6346 6.61481 37.6803 6.67317 37.749C6.73152 37.8177 6.76355 37.9049 6.76355 37.995C6.76355 38.0851 6.73152 38.1723 6.67317 38.241C6.61481 38.3097 6.53394 38.3554 6.44499 38.37Z" fill="white"/>
<path d="M52.345 30.6799C52.2794 30.6804 52.2149 30.663 52.1585 30.6295C52.1021 30.596 52.0559 30.5478 52.025 30.4899C51.9983 30.4484 51.9805 30.4018 51.9726 30.3531C51.9648 30.3043 51.967 30.2545 51.9792 30.2067C51.9914 30.1589 52.0133 30.114 52.0435 30.075C52.0737 30.036 52.1117 30.0037 52.155 29.9799C56.015 27.7499 58.155 24.8199 58.155 21.7099C58.155 18.5999 56.035 15.7099 52.155 13.4399C52.1117 13.4162 52.0737 13.3838 52.0435 13.3448C52.0133 13.3058 51.9914 13.261 51.9792 13.2132C51.967 13.1654 51.9648 13.1155 51.9726 13.0668C51.9805 13.0181 51.9983 12.9715 52.025 12.9299C52.0489 12.8868 52.0811 12.849 52.1199 12.8186C52.1586 12.7881 52.203 12.7657 52.2505 12.7527C52.298 12.7397 52.3477 12.7362 52.3965 12.7426C52.4453 12.749 52.4924 12.7651 52.535 12.7899C56.625 15.1599 58.885 18.3199 58.885 21.7099C58.885 25.0999 56.625 28.2599 52.535 30.6299C52.4761 30.6604 52.4112 30.6775 52.345 30.6799Z" fill="white"/>
<path d="M16.395 21.5899C16.3454 21.5874 16.2969 21.575 16.2523 21.5534C16.2077 21.5317 16.1679 21.5014 16.1353 21.4641C16.1026 21.4268 16.0778 21.3833 16.0623 21.3362C16.0468 21.2891 16.0409 21.2393 16.045 21.1899C16.275 17.9999 18.525 15.0199 22.385 12.7899C22.4275 12.7651 22.4746 12.749 22.5234 12.7426C22.5723 12.7362 22.6219 12.7397 22.6694 12.7527C22.7169 12.7657 22.7613 12.7881 22.8001 12.8186C22.8388 12.849 22.8711 12.8868 22.895 12.9299C22.9198 12.9725 22.9359 13.0196 22.9423 13.0684C22.9487 13.1173 22.9452 13.1669 22.9322 13.2144C22.9192 13.2619 22.8968 13.3063 22.8663 13.345C22.8359 13.3838 22.798 13.416 22.755 13.4399C19.115 15.5399 17.005 18.3099 16.755 21.2399C16.75 21.3329 16.7101 21.4205 16.6434 21.4853C16.5767 21.5502 16.488 21.5875 16.395 21.5899Z" fill="white"/>
<path d="M37.4248 31.5001C33.3402 31.5803 29.3028 30.6166 25.6948 28.7001C22.4948 26.8501 20.6948 24.3701 20.6948 21.7001C20.6948 19.0301 22.4548 16.5601 25.6948 14.7001C32.1648 10.9701 42.6948 10.9701 49.1548 14.7001C52.3648 16.5501 54.1548 19.0301 54.1548 21.7001C54.1548 24.3701 52.3948 26.8401 49.1548 28.7001C45.5478 30.6191 41.5097 31.583 37.4248 31.5001ZM37.4248 12.6601C33.4723 12.5808 29.5652 13.5137 26.0748 15.3701C23.0748 17.0801 21.4848 19.3701 21.4848 21.7101C21.4848 24.0501 23.1148 26.3401 26.0748 28.0501C32.3348 31.6601 42.5248 31.6601 48.7848 28.0501C51.7848 26.3401 53.3748 24.0501 53.3748 21.7101C53.3748 19.3701 51.7448 17.0801 48.7848 15.3701C45.2914 13.5124 41.3807 12.5795 37.4248 12.6601Z" fill="white"/>
<path d="M23.3449 26.82C23.2947 26.8222 23.2445 26.8135 23.1979 26.7945C23.1513 26.7755 23.1094 26.7467 23.0749 26.71C23.0395 26.6756 23.0114 26.6343 22.9922 26.5888C22.973 26.5433 22.9631 26.4944 22.9631 26.445C22.9631 26.3956 22.973 26.3467 22.9922 26.3012C23.0114 26.2557 23.0395 26.2145 23.0749 26.18C23.8741 25.4 24.7717 24.7276 25.7449 24.18C32.2149 20.44 42.7449 20.44 49.2049 24.18C50.1817 24.7268 51.0827 25.3992 51.8849 26.18C51.9517 26.2521 51.9888 26.3468 51.9888 26.445C51.9888 26.5433 51.9517 26.6379 51.8849 26.71C51.8504 26.7454 51.8092 26.7735 51.7637 26.7927C51.7182 26.8119 51.6693 26.8218 51.6199 26.8218C51.5705 26.8218 51.5216 26.8119 51.4761 26.7927C51.4306 26.7735 51.3894 26.7454 51.3549 26.71C50.5992 25.9777 49.7522 25.3458 48.8349 24.83C42.5749 21.21 32.3849 21.21 26.1249 24.83C25.2034 25.3433 24.3557 25.9791 23.6049 26.72C23.5346 26.7859 23.4413 26.8218 23.3449 26.82Z" fill="white"/>
<path d="M6.505 15.72C6.40422 15.72 6.30756 15.68 6.2363 15.6087C6.16503 15.5374 6.125 15.4408 6.125 15.34V9.63C6.125 9.52922 6.16503 9.43256 6.2363 9.3613C6.30756 9.29003 6.40422 9.25 6.505 9.25C6.55445 9.24998 6.60339 9.25987 6.64894 9.27908C6.6945 9.2983 6.73574 9.32645 6.77023 9.36188C6.80472 9.3973 6.83177 9.4393 6.84976 9.48535C6.86776 9.5314 6.87634 9.58058 6.875 9.63V15.34C6.87634 15.3894 6.86776 15.4386 6.84976 15.4847C6.83177 15.5307 6.80472 15.5727 6.77023 15.6081C6.73574 15.6435 6.6945 15.6717 6.64894 15.6909C6.60339 15.7101 6.55445 15.72 6.505 15.72Z" fill="white"/>
<path d="M68.345 15.7202C68.2442 15.7202 68.1475 15.6801 68.0763 15.6089C68.005 15.5376 67.965 15.4409 67.965 15.3401V9.63016C67.956 9.57578 67.9591 9.52013 67.9738 9.46704C67.9886 9.41395 68.0147 9.36469 68.0503 9.32269C68.086 9.2807 68.1304 9.24698 68.1804 9.22385C68.2304 9.20071 68.2849 9.18872 68.34 9.18872C68.3951 9.18872 68.4495 9.20071 68.4995 9.22385C68.5495 9.24698 68.5939 9.2807 68.6296 9.32269C68.6652 9.36469 68.6914 9.41395 68.7061 9.46704C68.7209 9.52013 68.7239 9.57578 68.715 9.63016V15.3401C68.715 15.4392 68.6763 15.5344 68.6072 15.6054C68.5381 15.6764 68.444 15.7175 68.345 15.7202Z" fill="white"/>
<path d="M44.915 51.9401C44.816 51.9402 44.7208 51.9015 44.6498 51.8324C44.5788 51.7633 44.5376 51.6692 44.535 51.5701V42.3201C44.5261 42.2658 44.5291 42.2101 44.5439 42.157C44.5586 42.1039 44.5847 42.0547 44.6204 42.0127C44.6561 41.9707 44.7005 41.937 44.7505 41.9138C44.8005 41.8907 44.8549 41.8787 44.91 41.8787C44.9651 41.8787 45.0196 41.8907 45.0696 41.9138C45.1196 41.937 45.164 41.9707 45.1996 42.0127C45.2353 42.0547 45.2614 42.1039 45.2762 42.157C45.2909 42.2101 45.2939 42.2658 45.285 42.3201V51.5701C45.2825 51.6675 45.2427 51.7601 45.1739 51.829C45.105 51.8978 45.0124 51.9376 44.915 51.9401Z" fill="white"/>
<path d="M29.9449 51.9402C29.8459 51.9402 29.7507 51.9016 29.6797 51.8325C29.6087 51.7633 29.5675 51.6692 29.5649 51.5702V42.3202C29.5649 42.2194 29.605 42.1228 29.6762 42.0515C29.7475 41.9802 29.8442 41.9402 29.9449 41.9402C29.9944 41.9402 30.0433 41.9501 30.0889 41.9693C30.1344 41.9885 30.1757 42.0166 30.2102 42.0521C30.2447 42.0875 30.2717 42.1295 30.2897 42.1755C30.3077 42.2216 30.3163 42.2708 30.3149 42.3202V51.5702C30.3149 51.6188 30.3054 51.6669 30.2868 51.7118C30.2682 51.7567 30.2409 51.7975 30.2066 51.8318C30.1722 51.8662 30.1314 51.8935 30.0865 51.912C30.0416 51.9306 29.9935 51.9402 29.9449 51.9402Z" fill="white"/>
<path d="M17.485 48.72C17.3859 48.72 17.2907 48.6813 17.2197 48.6122C17.1488 48.5431 17.1076 48.449 17.105 48.35V39.35C17.105 39.2492 17.145 39.1525 17.2163 39.0813C17.2875 39.01 17.3842 38.97 17.485 38.97C17.5344 38.97 17.5834 38.9798 17.6289 38.9991C17.6745 39.0183 17.7157 39.0464 17.7502 39.0818C17.7847 39.1173 17.8117 39.1593 17.8297 39.2053C17.8477 39.2514 17.8563 39.3006 17.855 39.35V48.35C17.855 48.4481 17.816 48.5422 17.7466 48.6116C17.6772 48.681 17.5831 48.72 17.485 48.72Z" fill="white"/>
<path d="M6.5049 46.1502C6.40677 46.1502 6.31266 46.1112 6.24327 46.0418C6.17388 45.9724 6.1349 45.8783 6.1349 45.7802V33.7802C6.13356 33.7307 6.14214 33.6815 6.16014 33.6355C6.17813 33.5894 6.20518 33.5475 6.23967 33.5121C6.27416 33.4766 6.3154 33.4485 6.36096 33.4293C6.40651 33.41 6.45546 33.4001 6.5049 33.4001C6.60569 33.4001 6.70234 33.4402 6.7736 33.5114C6.84487 33.5827 6.8849 33.6794 6.8849 33.7802V45.7802C6.88229 45.8792 6.84111 45.9733 6.77012 46.0424C6.69914 46.1115 6.60398 46.1502 6.5049 46.1502Z" fill="white"/>
<path d="M68.345 46.03C68.2955 46.0313 68.2463 46.0227 68.2003 46.0047C68.1542 45.9867 68.1123 45.9597 68.0769 45.9252C68.0414 45.8907 68.0133 45.8494 67.9941 45.8039C67.9748 45.7583 67.9649 45.7094 67.965 45.66V33.6599C67.956 33.6056 67.9591 33.5499 67.9738 33.4968C67.9886 33.4437 68.0147 33.3945 68.0503 33.3525C68.086 33.3105 68.1304 33.2768 68.1804 33.2536C68.2304 33.2305 68.2849 33.2185 68.34 33.2185C68.3951 33.2185 68.4495 33.2305 68.4995 33.2536C68.5495 33.2768 68.5939 33.3105 68.6296 33.3525C68.6652 33.3945 68.6914 33.4437 68.7061 33.4968C68.7209 33.5499 68.7239 33.6056 68.715 33.6599V45.66C68.715 45.7086 68.7054 45.7566 68.6868 45.8015C68.6682 45.8464 68.6409 45.8872 68.6066 45.9216C68.5722 45.9559 68.5314 45.9832 68.4865 46.0018C68.4417 46.0204 68.3936 46.03 68.345 46.03Z" fill="white"/>
<path d="M52.4249 49.6301C52.3755 49.6315 52.3263 49.6229 52.2803 49.6049C52.2342 49.5869 52.1922 49.5598 52.1568 49.5253C52.1214 49.4908 52.0932 49.4496 52.074 49.4041C52.0548 49.3585 52.0449 49.3096 52.0449 49.2601V40.0001C52.0449 39.8993 52.085 39.8027 52.1562 39.7314C52.2275 39.6602 52.3241 39.6201 52.4249 39.6201C52.4744 39.6201 52.5233 39.63 52.5689 39.6492C52.6144 39.6684 52.6557 39.6966 52.6902 39.732C52.7246 39.7674 52.7517 39.8094 52.7697 39.8555C52.7877 39.9015 52.7963 39.9507 52.7949 40.0001V49.2601C52.7963 49.3091 52.7877 49.3578 52.7696 49.4033C52.7515 49.4488 52.7243 49.4902 52.6896 49.5248C52.655 49.5595 52.6137 49.5867 52.5681 49.6048C52.5226 49.6229 52.4739 49.6315 52.4249 49.6301Z" fill="white"/>
</svg>
