<svg width="69" height="78" viewBox="0 0 69 78" fill="none" xmlns="http://www.w3.org/2000/svg">
<path d="M23.8301 77.6852C23.7038 77.6933 23.5773 77.6728 23.4601 77.6252C23.2581 77.5192 23.0983 77.3475 23.0074 77.1383C22.9165 76.9291 22.8998 76.6952 22.9601 76.4752L25.9601 54.8052C25.9601 54.5652 25.9601 54.4552 25.9001 54.4352L13.3401 47.5552C13.2061 47.4695 13.0945 47.3532 13.0145 47.2158C12.9345 47.0784 12.8884 46.9239 12.8801 46.7652C12.8777 46.4098 12.9578 46.0587 13.1139 45.7395C13.2701 45.4202 13.4981 45.1415 13.7801 44.9252L31.1301 31.9952C31.3774 31.7992 31.5617 31.535 31.6601 31.2352L33.5201 25.8052C33.554 25.7116 33.6233 25.6351 33.7131 25.5921C33.8028 25.5491 33.9059 25.543 34 25.5752C34.0936 25.6091 34.1701 25.6784 34.2131 25.7682C34.2561 25.8579 34.2622 25.961 34.2301 26.0552L32.3701 31.4852C32.2175 31.9227 31.9434 32.3077 31.5801 32.5952L14.2301 45.5252C14.0491 45.6654 13.9015 45.8439 13.7977 46.0479C13.694 46.2519 13.6367 46.4764 13.6301 46.7052C13.6301 46.8052 13.6301 46.8752 13.7001 46.8952L26.2601 53.7752C26.4471 53.8893 26.5914 54.0617 26.6709 54.2659C26.7504 54.47 26.7606 54.6946 26.7001 54.9052L23.7001 76.5752C23.7001 76.7952 23.7001 76.9252 23.7601 76.9452C23.8201 76.9652 24.0401 76.9452 24.3001 76.6152L39.8301 58.2252C39.9631 58.0534 40.1305 57.9113 40.3217 57.8079C40.5128 57.7046 40.7234 57.6424 40.9401 57.6252L56.4601 58.0852C56.5901 58.0852 56.7801 57.9652 56.9501 57.7752C57.205 57.5051 57.3448 57.1465 57.3401 56.7752L54.3401 38.5352C54.2907 38.0836 54.3964 37.6286 54.64 37.2452L67.26 15.8052C67.54 15.3352 67.5 14.9752 67.42 14.8852C67.34 14.7952 67.2801 14.8852 67.2501 14.8852L49.89 21.9952C49.697 22.0961 49.4723 22.1182 49.2633 22.0566C49.0544 21.995 48.8775 21.8547 48.7701 21.6652L41.0101 7.98517C40.7201 7.98517 40.3001 8.28517 40.1201 8.82517L36.1901 20.2852C36.1743 20.3311 36.1496 20.3735 36.1175 20.41C36.0853 20.4464 36.0463 20.4762 36.0027 20.4975C35.959 20.5189 35.9116 20.5314 35.8631 20.5345C35.8146 20.5375 35.766 20.5309 35.7201 20.5152C35.6247 20.4832 35.5458 20.4148 35.5008 20.3248C35.4559 20.2348 35.4484 20.1307 35.4801 20.0352L39.4601 8.62517C39.5577 8.28619 39.7432 7.97905 39.9979 7.73494C40.2526 7.49082 40.5672 7.3184 40.9101 7.23517C41.0702 7.21641 41.2323 7.24647 41.375 7.32142C41.5178 7.39636 41.6346 7.5127 41.7101 7.65517L49.4601 21.3052C49.4601 21.3052 49.4601 21.3752 49.6501 21.3052L67.0001 14.1952C67.1659 14.1193 67.3512 14.0969 67.5303 14.1309C67.7094 14.165 67.8736 14.2538 68.0001 14.3852C68.1656 14.6579 68.2463 14.9736 68.2321 15.2923C68.2178 15.611 68.1092 15.9183 67.92 16.1752L55.3601 37.5552C55.2111 37.7905 55.141 38.0673 55.1601 38.3452L58.1601 56.5852C58.1893 56.8873 58.1545 57.1921 58.058 57.4798C57.9615 57.7676 57.8055 58.0318 57.6001 58.2552C57.3285 58.5776 56.9401 58.7791 56.5201 58.8152L40.9901 58.3552C40.8801 58.3552 40.6801 58.4552 40.4801 58.6952L24.9601 77.0752C24.8291 77.2547 24.6597 77.4026 24.4641 77.5082C24.2686 77.6137 24.052 77.6742 23.8301 77.6852Z" fill="white"/>
<path d="M39.1201 57.1852C39.0321 57.1839 38.9473 57.1521 38.8801 57.0952C38.8447 57.0607 38.8166 57.0195 38.7974 56.974C38.7782 56.9285 38.7683 56.8796 38.7683 56.8302C38.7683 56.7808 38.7782 56.7319 38.7974 56.6864C38.8166 56.6409 38.8447 56.5997 38.8801 56.5652C39.3087 56.0454 39.8227 55.6023 40.4001 55.2552C40.8934 54.9596 41.4552 54.7976 42.0301 54.7852L54.1901 55.1552C54.2766 55.1179 54.3522 55.0595 54.4101 54.9852C54.5465 54.8353 54.6184 54.6377 54.6101 54.4352C54.5981 54.3377 54.6233 54.2392 54.6808 54.1594C54.7383 54.0797 54.8238 54.0246 54.9201 54.0052C54.9688 53.9967 55.0186 53.9979 55.0668 54.009C55.115 54.02 55.1604 54.0406 55.2005 54.0695C55.2406 54.0984 55.2745 54.135 55.3002 54.1772C55.3258 54.2194 55.3428 54.2663 55.3501 54.3152C55.3739 54.5284 55.3513 54.7442 55.284 54.9478C55.2167 55.1515 55.1062 55.3382 54.9601 55.4952C54.8654 55.6185 54.7445 55.7192 54.6062 55.7901C54.4679 55.861 54.3155 55.9003 54.1601 55.9052L42.0001 55.5352C41.5681 55.5497 41.1474 55.6772 40.7801 55.9052C40.2747 56.2103 39.8249 56.5992 39.4501 57.0552C39.4093 57.1014 39.3581 57.1373 39.3007 57.1599C39.2434 57.1825 39.1815 57.1912 39.1201 57.1852ZM48.5101 24.9152C48.1605 24.923 47.8155 24.8337 47.5136 24.6572C47.2117 24.4806 46.9647 24.2238 46.8001 23.9152L44.1701 19.2752C44.1453 19.2327 44.1292 19.1856 44.1228 19.1367C44.1164 19.0879 44.1198 19.0383 44.1329 18.9908C44.1459 18.9433 44.1683 18.8988 44.1987 18.8601C44.2292 18.8214 44.267 18.7891 44.3101 18.7652C44.3982 18.7172 44.5013 18.705 44.5981 18.731C44.695 18.7571 44.778 18.8195 44.8301 18.9052L47.4601 23.5552C47.5513 23.7043 47.671 23.834 47.8123 23.9369C47.9537 24.0397 48.1139 24.1137 48.2839 24.1546C48.4539 24.1954 48.6302 24.2024 48.8029 24.175C48.9755 24.1477 49.1411 24.0866 49.2901 23.9952L54.1901 21.9952C54.2832 21.9615 54.3856 21.9644 54.4766 22.0034C54.5676 22.0424 54.6403 22.1145 54.6801 22.2052C54.7164 22.2981 54.7147 22.4015 54.6754 22.4932C54.6362 22.5849 54.5624 22.6574 54.4701 22.6952L49.5801 24.6952C49.242 24.8401 48.878 24.915 48.5101 24.9152ZM66.0501 15.3952C65.9978 15.4102 65.9424 15.4102 65.8901 15.3952C65.8071 15.3561 65.7429 15.286 65.7111 15.2C65.6793 15.1139 65.6825 15.0189 65.7201 14.9352L66.0301 15.0852L65.7501 14.8952C65.8032 14.8162 65.8841 14.76 65.9767 14.7378C66.0693 14.7156 66.1669 14.7289 66.2501 14.7752C66.3318 14.8234 66.3919 14.9011 66.4179 14.9923C66.444 15.0834 66.434 15.1811 66.3901 15.2652L66.1201 15.0852L66.3901 15.2652C66.3452 15.3089 66.292 15.3429 66.2335 15.3653C66.175 15.3876 66.1126 15.3978 66.0501 15.3952Z" fill="white"/>
<path d="M10.71 70.4051C10.6543 70.42 10.5957 70.42 10.54 70.4051C10.3494 70.2939 10.201 70.1228 10.1178 69.9184C10.0346 69.714 10.0213 69.4878 10.08 69.2751L12.46 51.6251C12.4648 51.5758 12.4797 51.528 12.5038 51.4847C12.528 51.4414 12.5608 51.4035 12.6002 51.3734C12.6396 51.3434 12.6848 51.3218 12.733 51.3101C12.7811 51.2983 12.8312 51.2966 12.88 51.3051C12.9288 51.3113 12.9759 51.3271 13.0185 51.3516C13.0611 51.3761 13.0984 51.4089 13.1281 51.448C13.1579 51.4871 13.1796 51.5317 13.192 51.5793C13.2043 51.6269 13.2071 51.6765 13.2 51.7251L10.79 69.3751C10.79 69.6051 10.79 69.7251 10.79 69.7451C10.8345 69.7663 10.8741 69.7963 10.9065 69.8333C10.9388 69.8704 10.9633 69.9136 10.9783 69.9605C10.9933 70.0074 10.9985 70.0568 10.9936 70.1057C10.9888 70.1547 10.9739 70.2021 10.95 70.2451C10.9237 70.2873 10.8887 70.3234 10.8473 70.351C10.8059 70.3786 10.7591 70.397 10.71 70.4051Z" fill="white"/>
<path d="M13.1701 47.2452C13.1068 47.2442 13.0448 47.227 12.9901 47.1952L0.460057 40.3152C0.326104 40.2296 0.214495 40.1132 0.134495 39.9758C0.0544953 39.8384 0.00840442 39.684 4.97882e-05 39.5252C-0.00228853 39.1698 0.077768 38.8187 0.233921 38.4995C0.390074 38.1802 0.618085 37.9015 0.900059 37.6852L18.25 24.7552C18.4949 24.5612 18.6789 24.3008 18.7801 24.0052L26.5401 1.3652C26.6268 1.09118 26.7669 0.837021 26.9522 0.617348C27.1376 0.397674 27.3645 0.216823 27.6201 0.0851974C27.7389 0.0290927 27.8686 0 28 0C28.1315 0 28.2612 0.0290927 28.3801 0.0851974C28.4275 0.10157 28.471 0.127687 28.5078 0.161873C28.5446 0.196059 28.5738 0.237562 28.5935 0.283707C28.6133 0.329851 28.6232 0.379617 28.6226 0.429817C28.622 0.480017 28.6109 0.529537 28.5901 0.575195C28.5715 0.620866 28.544 0.662366 28.5091 0.69725C28.4743 0.732135 28.4328 0.759703 28.3871 0.778336C28.3415 0.796968 28.2926 0.806287 28.2433 0.805748C28.194 0.805209 28.1453 0.794826 28.1001 0.7752C28.0448 0.757582 27.9854 0.757582 27.9301 0.7752C27.6022 0.955469 27.3581 1.25703 27.25 1.6152L19.4601 24.2452C19.3075 24.6827 19.0334 25.0677 18.6701 25.3552L1.32006 38.2852C1.14015 38.4263 0.993244 38.605 0.889607 38.8089C0.78597 39.0127 0.7281 39.2367 0.720051 39.4652C0.720051 39.5652 0.720058 39.6352 0.790058 39.6552L13.3501 46.5352C13.4223 46.5764 13.479 46.6401 13.5115 46.7166C13.544 46.7931 13.5506 46.8781 13.5301 46.9587C13.5097 47.0392 13.4634 47.1109 13.3984 47.1626C13.3334 47.2144 13.2532 47.2434 13.1701 47.2452Z" fill="white"/>
<path d="M46.0401 11.0452C45.953 11.0434 45.8693 11.0118 45.8028 10.9557C45.7363 10.8995 45.691 10.8223 45.6746 10.7368C45.6583 10.6513 45.6717 10.5628 45.7127 10.4861C45.7537 10.4093 45.8199 10.349 45.9001 10.3152L54.0601 6.97516C54.1781 6.92249 54.3058 6.89526 54.4351 6.89526C54.5643 6.89526 54.6921 6.92249 54.8101 6.97516C54.9012 7.01664 54.9723 7.09244 55.0079 7.18607C55.0435 7.27971 55.0407 7.3836 55 7.47516C54.9586 7.56633 54.8828 7.63745 54.7891 7.67303C54.6955 7.70861 54.5916 7.70578 54.5 7.66516C54.5 7.66516 54.44 7.66516 54.35 7.66516L46.1801 11.0152C46.1362 11.0356 46.0884 11.0459 46.0401 11.0452Z" fill="white"/>
<path d="M41.1701 8.01536C41.1076 8.03024 41.0426 8.03024 40.9801 8.01536L27.9801 0.75536C27.8939 0.706295 27.8307 0.624998 27.8045 0.529354C27.7782 0.433711 27.791 0.331561 27.8401 0.245366C27.8892 0.15917 27.9705 0.0959919 28.0661 0.0697369C28.1617 0.0434818 28.2639 0.0563011 28.3501 0.105366L41.3001 7.35537C41.3432 7.37927 41.381 7.41153 41.4115 7.45027C41.4419 7.489 41.4643 7.53342 41.4773 7.58092C41.4904 7.62842 41.4938 7.67806 41.4874 7.7269C41.481 7.77575 41.4649 7.82282 41.4401 7.86536C41.4096 7.90935 41.3694 7.94576 41.3225 7.97176C41.2757 7.99777 41.2236 8.01268 41.1701 8.01536Z" fill="white"/>
<path d="M67.5501 14.9052C67.4908 14.9186 67.4293 14.9186 67.3701 14.9052L54.4601 7.62524C54.4159 7.60239 54.3771 7.57067 54.3458 7.53206C54.3145 7.49344 54.2916 7.44878 54.2785 7.40088C54.2653 7.35297 54.2622 7.30286 54.2694 7.2537C54.2765 7.20455 54.2938 7.1574 54.3201 7.11524C54.344 7.07217 54.3762 7.03431 54.415 7.00387C54.4537 6.97344 54.4981 6.95104 54.5456 6.938C54.5931 6.92496 54.6428 6.92154 54.6916 6.92794C54.7404 6.93433 54.7875 6.95041 54.8301 6.97524L67.7201 14.2052C67.7964 14.2435 67.8572 14.307 67.8921 14.385C67.9269 14.4629 67.9338 14.5505 67.9114 14.633C67.889 14.7154 67.8388 14.7875 67.7693 14.8372C67.6998 14.8868 67.6153 14.9108 67.5301 14.9052H67.5501Z" fill="white"/>
<path d="M23.6202 77.6253C23.5577 77.6401 23.4926 77.6401 23.4301 77.6253L10.5302 70.4053C10.4574 70.3504 10.4068 70.2712 10.3876 70.1821C10.3684 70.093 10.3818 70 10.4254 69.92C10.4691 69.84 10.54 69.7783 10.6253 69.7462C10.7106 69.7142 10.8046 69.7138 10.8901 69.7453L23.8001 76.9753C23.8754 77.0133 23.9354 77.0759 23.9703 77.1527C24.0051 77.2296 24.0126 77.316 23.9916 77.3977C23.9706 77.4793 23.9223 77.5514 23.8548 77.6019C23.7872 77.6524 23.7044 77.6783 23.6202 77.6753V77.6253Z" fill="white"/>
<path d="M27.77 29.3554C27.7114 29.3732 27.6487 29.3732 27.59 29.3554L18.92 24.4954C18.8339 24.4463 18.7707 24.365 18.7444 24.2694C18.7182 24.1737 18.731 24.0716 18.78 23.9854C18.8291 23.8992 18.9104 23.836 19.006 23.8097C19.1017 23.7835 19.2038 23.7963 19.29 23.8454L27.96 28.6254C28.0364 28.6636 28.0972 28.7271 28.132 28.8051C28.1669 28.883 28.1737 28.9707 28.1514 29.0531C28.129 29.1355 28.0788 29.2076 28.0093 29.2573C27.9398 29.3069 27.8553 29.3309 27.77 29.3254V29.3554Z" fill="white"/>
</svg>
