<svg width="72" height="72" viewBox="0 0 72 72" fill="none" xmlns="http://www.w3.org/2000/svg">
<g opacity="0.5" clip-path="url(#clip0)">
<path d="M42.5215 45.6366C43.7533 46.1428 44.8016 46.7886 45.5949 47.5381C46.6991 48.5785 47.3327 49.8182 47.3327 51.1736V59.4011C47.3327 59.9831 46.8623 60.4575 46.2764 60.4575C39.4281 60.4575 32.5755 60.4575 25.7232 60.4575C25.1411 60.4575 24.6668 59.9831 24.6668 59.4011V51.1736C24.6668 49.8262 25.2966 48.5945 26.3889 47.554C27.1861 46.7966 28.2426 46.1469 29.4783 45.6366C29.0477 44.7158 28.8085 43.6913 28.8085 42.611V36.0337C28.8085 35.1209 29.0796 34.2759 29.55 33.5663V24.7647C29.55 24.1827 30.0205 23.7125 30.6023 23.7125C31.1843 23.7125 31.6588 24.1828 31.6588 24.7647V31.8522C32.1651 31.653 32.7191 31.5413 33.2971 31.5413H38.7024C39.2804 31.5413 39.8345 31.653 40.3448 31.8522V10.825C40.3448 10.243 40.8152 9.77272 41.3971 9.77272H42.6288L35.9999 3.14351L29.3707 9.77258H30.6024C31.1845 9.77258 31.6589 10.243 31.6589 10.8249V19.8457C31.6589 20.4277 31.1845 20.898 30.6024 20.898C30.0205 20.898 29.5501 20.4276 29.5501 19.8457V11.8814H26.8236C26.2415 11.8814 25.7713 11.411 25.7713 10.825C25.7713 10.5341 25.8908 10.2669 26.0861 10.0756L35.2544 0.907296C35.6651 0.492734 36.3349 0.492734 36.7453 0.907296L45.9218 10.0796C46.3325 10.4941 46.3325 11.1598 45.9218 11.5744C45.7144 11.7777 45.4475 11.8814 45.1764 11.8814H42.4537V33.5665C42.9201 34.2761 43.1951 35.1211 43.1951 36.0339V42.6112C43.1951 43.6913 42.9518 44.7158 42.5215 45.6366ZM65.7535 51.7674L59.6186 49.6907L55.5846 51.6679V53.5574C55.5846 54.9526 56.1586 56.2242 57.0794 57.1451C58.0003 58.0698 59.2719 58.6399 60.671 58.6399C62.0663 58.6399 63.3378 58.0698 64.2586 57.1451C65.1796 56.2242 65.7536 54.9527 65.7536 53.5574V51.7674H65.7535ZM55.5846 49.3279L59.0247 47.6457C59.2759 47.4982 59.5868 47.4584 59.8858 47.5579L65.7536 49.5471V46.98C65.7536 46.3262 65.4864 45.7283 65.052 45.2978C64.6214 44.8672 64.0276 44.5962 63.3738 44.5962H57.9683C57.3146 44.5962 56.7166 44.8672 56.286 45.2978C55.8557 45.7283 55.5846 46.3262 55.5846 46.98V49.3279ZM6.2504 47.9049H16.4153V44.5964H8.63019C7.97657 44.5964 7.38257 44.8674 6.94804 45.298C6.51744 45.7284 6.2504 46.3264 6.2504 46.9801V47.9049ZM16.4153 50.0135H6.2504V53.5573C6.2504 54.9524 6.82049 56.2241 7.7413 57.1449C8.66605 58.0697 9.93379 58.6398 11.333 58.6398C12.7281 58.6398 13.9998 58.0697 14.9206 57.1449C15.8454 56.2241 16.4155 54.9526 16.4155 53.5573V50.0135H16.4153ZM41.0864 40.6458C39.468 40.893 36.7373 40.9089 34.4972 38.9C33.7239 39.3584 32.4561 39.8964 30.9176 39.741V42.6112C30.9176 44.0063 31.4875 45.278 32.4124 46.1988C33.3332 47.1236 34.6049 47.6936 36 47.6936C37.3993 47.6936 38.667 47.1236 39.5917 46.1988C40.5126 45.278 41.0866 44.0065 41.0866 42.6112V40.6458H41.0864ZM30.9174 37.6204C32.0454 37.8038 33.086 37.429 33.9469 36.7156C34.3854 36.3528 35.0352 36.4047 35.4139 36.8391C37.2676 38.9677 39.8508 38.7685 41.0864 38.5173V36.0339C41.0864 35.3802 40.8153 34.7823 40.3849 34.3517C39.9544 33.9172 39.3565 33.6501 38.7027 33.6501H33.2974C32.6435 33.6501 32.0496 33.9172 31.619 34.3517C31.1845 34.7823 30.9176 35.3802 30.9176 36.0339V37.6204H30.9174ZM18.524 53.5573C18.524 54.6376 18.2849 55.662 17.8543 56.5868C19.0781 57.0889 20.1186 57.7308 20.9117 58.4723C22.0239 59.5126 22.6658 60.7604 22.6658 62.1197V70.3472C22.6658 70.9293 22.1915 71.4036 21.6093 71.4036C14.7569 71.4036 7.90457 71.4036 1.05627 71.4036C0.474225 71.4036 -0.000244141 70.9291 -0.000244141 70.3472V62.1197C-0.000244141 60.7643 0.637631 59.5206 1.74576 58.4803C2.53916 57.7309 3.58344 57.0891 4.81124 56.5828C4.38065 55.662 4.13751 54.6376 4.13751 53.5573V48.9611V46.98C4.13751 46.0711 4.41257 45.222 4.87902 44.5124V37.401C4.87902 36.819 5.35335 36.3447 5.93554 36.3447C6.51758 36.3447 6.98783 36.819 6.98783 37.401V42.7984C7.49802 42.5991 8.05208 42.4874 8.63019 42.4874H15.674V25.1475C15.674 24.5655 16.1483 24.0952 16.7303 24.0952H17.9622L11.333 17.4622L4.70366 24.0952H5.93554C6.51758 24.0952 6.98783 24.5656 6.98783 25.1475V32.4782C6.98783 33.0602 6.51744 33.5345 5.93554 33.5345C5.35335 33.5345 4.87902 33.0602 4.87902 32.4782V26.2038H2.15652C1.57447 26.2038 1.10015 25.7294 1.10015 25.1474C1.10015 24.8524 1.22376 24.5894 1.41501 24.398L10.5874 15.2257C10.998 14.8151 11.6678 14.8151 12.0785 15.2257L21.2548 24.4019C21.6653 24.8126 21.6653 25.4822 21.2548 25.8928C21.0474 26.1001 20.7765 26.2038 20.5093 26.2038H17.7826V42.5354C18.2132 42.667 18.524 43.0695 18.524 43.5438V48.9611V53.5573ZM16.6626 58.3766C15.2951 59.8834 13.3698 60.7484 11.333 60.7484C9.29183 60.7484 7.37047 59.8834 6.00332 58.3766C4.8433 58.8032 3.87468 59.3612 3.18899 60.011C2.5033 60.6528 2.10871 61.3783 2.10871 62.1197V69.2948H5.49707V64.4276C5.49707 63.8456 5.9714 63.3753 6.55344 63.3753C7.13549 63.3753 7.60574 63.8457 7.60574 64.4276V69.2948H15.0561V64.4276C15.0561 63.8456 15.5304 63.3753 16.1124 63.3753C16.6945 63.3753 17.1688 63.8457 17.1688 64.4276V69.2948H20.5531V62.1197C20.5531 61.3742 20.1583 60.6487 19.4689 60.003C18.7792 59.3572 17.8186 58.7991 16.6626 58.3766ZM67.8621 53.5573C67.8621 54.6376 67.6231 55.662 67.1925 56.5828C68.4201 57.0891 69.4646 57.7348 70.2578 58.4803C71.3661 59.5206 71.9999 60.7645 71.9999 62.1197V70.3472C71.9999 70.9293 71.5295 71.4036 70.9476 71.4036C64.0951 71.4036 57.2429 71.4036 50.3903 71.4036C49.8083 71.4036 49.338 70.9291 49.338 70.3472V62.1197C49.338 60.7684 49.9679 59.5286 51.0721 58.4882C51.8653 57.7388 52.9176 57.0889 54.1454 56.5827C53.7149 55.6619 53.4756 54.6374 53.4756 53.5572V46.98C53.4756 46.0711 53.7507 45.222 54.217 44.5124V40.2114C54.217 39.6294 54.6874 39.159 55.2735 39.159C55.8556 39.159 56.3258 39.6294 56.3258 40.2114V42.7984C56.836 42.5991 57.3901 42.4874 57.9682 42.4874H63.3737C63.9515 42.4874 64.5016 42.5991 65.012 42.7984V30.772C65.012 30.1899 65.4824 29.7156 66.0683 29.7156H67.3001L60.6709 23.0865L54.0377 29.7156H55.2735C55.8556 29.7156 56.3258 30.1899 56.3258 30.772V35.2883C56.3258 35.8743 55.8554 36.3447 55.2735 36.3447C54.6874 36.3447 54.217 35.8743 54.217 35.2883V31.8283H51.4945C50.9125 31.8283 50.4381 31.354 50.4381 30.772C50.4381 30.4769 50.5577 30.2138 50.753 30.0226L59.9213 20.8503C60.3359 20.4397 61.0018 20.4397 61.4162 20.8503L70.5887 30.0265C71.0031 30.437 71.0031 31.1068 70.5887 31.5174C70.3854 31.7247 70.1143 31.8283 69.8433 31.8283H67.1206V44.5124C67.591 45.222 67.8621 46.071 67.8621 46.98V53.5573ZM66.0006 58.3766C64.6333 59.8834 62.708 60.7484 60.671 60.7484C58.6341 60.7484 56.7047 59.8834 55.3415 58.3766C54.1734 58.8071 53.2048 59.3692 52.5152 60.019C51.8375 60.6607 51.4467 61.3783 51.4467 62.1197V69.2948H54.8351V64.4276C54.8351 63.8456 55.3056 63.3753 55.8875 63.3753C56.4735 63.3753 56.9439 63.8457 56.9439 64.4276V69.2948H64.3941V64.4276C64.3941 63.8456 64.8685 63.3753 65.4506 63.3753C66.0325 63.3753 66.5029 63.8457 66.5029 64.4276V69.2948H69.8912V62.1197C69.8912 61.3783 69.5006 60.6567 68.815 60.011C68.1253 59.3652 67.1607 58.8032 66.0006 58.3766ZM30.6704 47.4305C29.4984 47.861 28.5298 48.427 27.8401 49.0808C27.1664 49.7185 26.7797 50.4361 26.7797 51.1736V58.3487H30.1641V53.4815C30.1641 52.8994 30.6384 52.4251 31.2205 52.4251C31.8025 52.4251 32.2768 52.8994 32.2768 53.4815V58.3487H39.7272V53.4815C39.7272 52.8994 40.1976 52.4251 40.7795 52.4251C41.3654 52.4251 41.8358 52.8994 41.8358 53.4815V58.3487H45.2242V51.1736C45.2242 50.432 44.8337 49.7106 44.1518 49.0688C43.4623 48.419 42.4935 47.8569 41.3297 47.4305C39.9623 48.9373 38.0409 49.8023 36 49.8023C33.9631 49.8022 32.0375 48.9372 30.6704 47.4305Z" fill="white"/>
</g>
<defs>
<clipPath id="clip0">
<rect width="72" height="72" fill="white"/>
</clipPath>
</defs>
</svg>
