<svg width="72" height="72" viewBox="0 0 72 72" fill="none" xmlns="http://www.w3.org/2000/svg">
<g opacity="0.5" clip-path="url(#clip0)">
<path d="M21.5937 29.1656H24.388C25.0059 29.1656 25.568 29.4207 25.9746 29.8273C26.3811 30.2338 26.6362 30.796 26.6362 31.4137V36.4125C27.8002 36.5918 28.9921 36.7473 30.176 36.8868C31.4837 37.0384 32.7711 37.162 33.9948 37.2655V35.8903C33.9948 35.0255 34.3457 34.244 34.9118 33.678C35.4819 33.112 36.2631 32.7611 37.124 32.7611H47.1416C48.0026 32.7611 48.7839 33.1119 49.35 33.678C49.916 34.244 50.2668 35.0255 50.2668 35.8903V37.2697C55.0863 36.8671 60.9141 36.1096 65.0597 34.7465C66.4311 34.2999 69.891 33.0642 69.891 31.2743V19.4991C69.891 19.3795 69.7596 19.3118 69.652 19.3118C51.3032 19.3118 32.9584 19.3118 14.6135 19.3118C14.5059 19.3118 14.3744 19.3795 14.3744 19.4991V24.3345H15.1318C16.0844 24.3345 16.9535 24.725 17.5833 25.351C17.97 25.7416 18.2692 26.2201 18.4406 26.7541C19.3335 26.7939 20.1427 27.1727 20.7367 27.7706C21.1272 28.1572 21.4222 28.6356 21.5937 29.1656ZM29.4664 17.2029V14.349C29.4664 13.0971 29.9769 11.9652 30.798 11.144C31.4118 10.5301 32.2052 10.0876 33.0861 9.90423C33.2495 9.34229 33.5526 8.83998 33.9591 8.43343C34.5811 7.81158 35.442 7.42487 36.3908 7.42487H47.8752C48.8239 7.42487 49.6849 7.81158 50.3068 8.43343C50.7094 8.83998 51.0164 9.34229 51.1798 9.90423C52.0608 10.0877 52.85 10.5301 53.4638 11.144C54.2891 11.9652 54.7993 13.0971 54.7993 14.349V17.2029H69.6521C70.2859 17.2029 70.8678 17.4542 71.2945 17.8646C71.729 18.2832 72.0001 18.8613 72.0001 19.4991V31.2742C72.0001 32.817 71.0274 34.0726 69.409 35.093V54.7052C69.409 55.343 69.15 55.9212 68.7315 56.3397C68.3089 56.7584 67.7309 57.0212 67.0932 57.0212H26.6362V62.327C26.6362 62.9447 26.3811 63.507 25.9746 63.9134C25.5679 64.3199 25.0058 64.575 24.388 64.575H2.24817C1.63027 64.575 1.06833 64.3198 0.661781 63.9134C0.251156 63.507 0 62.9447 0 62.3271V49.2602C0 48.6782 0.474328 48.2039 1.05638 48.2039C1.63842 48.2039 2.10867 48.6782 2.10867 49.2602V62.3271C2.10867 62.3988 2.17252 62.4625 2.24817 62.4625H24.3879C24.4596 62.4625 24.5274 62.3988 24.5274 62.3271V55.965V31.4138C24.5274 31.3421 24.4596 31.2784 24.3879 31.2784H21.5935C21.4221 31.8085 21.1272 32.2869 20.7366 32.6737C20.1106 33.3035 19.2416 33.694 18.2849 33.694H8.3513C7.39463 33.694 6.5257 33.3035 5.8957 32.6737C5.50898 32.2869 5.21395 31.8085 5.04267 31.2784H2.24817C2.17252 31.2784 2.10867 31.3421 2.10867 31.4138V44.4807C2.10867 45.0627 1.63828 45.5371 1.05638 45.5371C0.474469 45.5371 0 45.0626 0 44.4807V31.4138C0 30.796 0.251156 30.2338 0.661781 29.8274C1.06847 29.4209 1.63041 29.1658 2.24817 29.1658H5.04253C5.21395 28.6356 5.50884 28.1572 5.89556 27.7705C6.49364 27.1726 7.3028 26.7939 8.19563 26.7539C8.36719 26.22 8.66602 25.7416 9.05273 25.3509C9.68259 24.725 10.5515 24.3343 11.5044 24.3343H12.2618V19.4991C12.2618 18.8613 12.5328 18.2832 12.9712 17.8646C13.3938 17.4542 13.9798 17.2029 14.6136 17.2029H29.4664ZM33.1658 12.0729C32.835 12.1963 32.536 12.3877 32.2889 12.6349C31.8504 13.0732 31.5754 13.6832 31.5754 14.349V17.2029H52.6866V14.349C52.6866 13.6832 52.4154 13.0732 51.973 12.6349C51.7299 12.3877 51.4311 12.1963 51.0961 12.0729C50.9247 12.5352 50.6496 12.9538 50.3069 13.2965C49.6851 13.9224 48.824 14.3092 47.8754 14.3092H36.3909C35.4421 14.3092 34.5812 13.9224 33.9593 13.2965C33.6122 12.9537 33.3412 12.5352 33.1658 12.0729ZM47.8751 9.5334H36.3907C36.0239 9.5334 35.693 9.68499 35.4499 9.92813C35.2067 10.1673 35.0594 10.5022 35.0594 10.865C35.0594 11.2198 35.1989 11.5546 35.4499 11.8056C35.693 12.0488 36.0239 12.2004 36.3907 12.2004H47.8751C48.2417 12.2004 48.5727 12.0488 48.8157 11.8056C49.0549 11.5625 49.2064 11.2316 49.2064 10.865C49.2064 10.5022 49.0549 10.1673 48.8157 9.92813C48.5727 9.68499 48.2418 9.5334 47.8751 9.5334ZM33.9948 39.3782C32.7033 39.2747 31.3321 39.139 29.9368 38.9797C28.8526 38.852 27.7445 38.7086 26.6362 38.5411V54.9086H67.0929C67.2044 54.9086 67.3002 54.8172 67.3002 54.7054V36.1654C66.7979 36.3728 66.2677 36.568 65.7096 36.7515C61.3326 38.1866 55.2417 38.9756 50.2668 39.3863V41.5868C50.2668 42.4478 49.9161 43.2331 49.35 43.7991C48.7839 44.3648 48.0026 44.7159 47.1416 44.7159H44.5226C43.9405 44.7159 43.4662 44.2454 43.4662 43.6596C43.4662 43.0775 43.9405 42.6071 44.5226 42.6071H47.1416C47.4206 42.6071 47.6757 42.4915 47.8592 42.3083C48.0426 42.1207 48.1582 41.8658 48.1582 41.5868V35.8903C48.1582 35.6113 48.0426 35.3561 47.8592 35.1688C47.6757 34.9853 47.4207 34.8699 47.1416 34.8699H37.124C36.8452 34.8699 36.5899 34.9853 36.4065 35.1688C36.2192 35.3561 36.1036 35.6112 36.1036 35.8903V41.5868C36.1036 41.8658 36.2192 42.1207 36.4065 42.3083C36.5899 42.4915 36.845 42.6071 37.124 42.6071H39.743C40.3251 42.6071 40.7994 43.0777 40.7994 43.6596C40.7994 44.2454 40.3251 44.7159 39.743 44.7159H37.124C36.2631 44.7159 35.4818 44.3649 34.9118 43.7991C34.3458 43.2331 33.9948 42.4478 33.9948 41.5868V39.3782ZM5.62064 51.6838C5.03859 51.6838 4.56427 51.2132 4.56427 50.6313C4.56427 50.0455 5.03859 49.575 5.62064 49.575H21.0157C21.5978 49.575 22.0722 50.0455 22.0722 50.6313C22.0722 51.2134 21.5978 51.6838 21.0157 51.6838H5.62064ZM8.85361 59.3215C8.27156 59.3215 7.79723 58.851 7.79723 58.2691C7.79723 57.6871 8.27156 57.2127 8.85361 57.2127H17.7827C18.3649 57.2127 18.8393 57.6871 18.8393 58.2691C18.8393 58.8512 18.3649 59.3215 17.7827 59.3215H8.85361ZM5.62064 55.5026C5.03859 55.5026 4.56427 55.0321 4.56427 54.4501C4.56427 53.8681 5.03859 53.3938 5.62064 53.3938H21.0157C21.5978 53.3938 22.0722 53.8681 22.0722 54.4501C22.0722 55.0322 21.5978 55.5026 21.0157 55.5026H5.62064ZM9.08873 28.8586H8.3513C7.97667 28.8586 7.63791 29.014 7.39069 29.2613C7.14347 29.5085 6.98808 29.8474 6.98808 30.222C6.98808 30.5966 7.14347 30.9355 7.39069 31.1828C7.63791 31.43 7.97667 31.5854 8.3513 31.5854H18.2852C18.66 31.5854 18.9987 31.43 19.2459 31.1828C19.493 30.9355 19.6484 30.5966 19.6484 30.222C19.6484 29.8474 19.493 29.5085 19.2459 29.2613C18.9987 29.014 18.66 28.8586 18.2852 28.8586H17.5476C16.9656 28.8586 16.4912 28.3884 16.4912 27.8065C16.4912 27.4319 16.3398 27.093 16.0926 26.8457C15.8455 26.5947 15.5026 26.4431 15.132 26.4431H11.5045C11.1337 26.4431 10.791 26.5947 10.5438 26.8457C10.2966 27.093 10.1451 27.4319 10.1451 27.8065C10.1451 28.3884 9.67078 28.8586 9.08873 28.8586Z" fill="white"/>
</g>
<defs>
<clipPath id="clip0">
<rect width="72" height="72" fill="white"/>
</clipPath>
</defs>
</svg>
