<svg width="72" height="72" viewBox="0 0 72 72" fill="none" xmlns="http://www.w3.org/2000/svg">
<g opacity="0.5">
<path d="M27.4177 17.2787V6.73112C27.4177 5.24429 28.0236 3.89289 29.0001 2.91231C29.9768 1.93173 31.3241 1.32184 32.807 1.32184H43.5102C44.0761 1.32184 44.5345 1.78028 44.5345 2.34629C44.5345 2.91231 44.0761 3.37074 43.5102 3.37074H32.807C31.8862 3.37074 31.0531 3.74945 30.4471 4.3554C29.8412 4.96135 29.4664 5.80229 29.4664 6.73112V17.2787H56.1745C56.7404 17.2787 57.1988 17.7371 57.1988 18.3032C57.1988 18.8692 56.7404 19.3276 56.1745 19.3276H47.1694C47.9388 20.2723 48.4012 21.4762 48.4051 22.7837H50.5458C51.1118 22.7837 51.5703 23.2422 51.5703 23.8082C51.5703 24.3742 51.1118 24.8327 50.5458 24.8327H48.4051V27.8422H59.0008C59.9176 27.8422 60.7546 27.4635 61.3565 26.8577C61.9625 26.2478 62.3412 25.4106 62.3412 24.4818V20.0172C62.3412 19.6665 62.5245 19.3237 62.8514 19.1323L68.9385 15.6044L62.9152 12.1165C62.5763 11.9492 62.3412 11.5983 62.3412 11.1957V6.73112C62.3412 5.80229 61.9625 4.96121 61.3565 4.3554C60.7546 3.74945 59.9176 3.37074 59.0008 3.37074H48.2936C47.7276 3.37074 47.2691 2.91231 47.2691 2.34629C47.2691 1.78028 47.7276 1.32184 48.2936 1.32184H59.0008C60.4796 1.32184 61.827 1.93173 62.8075 2.91231C63.7841 3.89303 64.3901 5.24429 64.3901 6.73112V10.6058L71.4895 14.7235C72.1792 15.1222 72.1593 16.1147 71.4776 16.4974L64.3901 20.6072V24.4818C64.3901 25.9686 63.7841 27.32 62.8075 28.3006C61.8269 29.2812 60.4794 29.8911 59.0008 29.8911H48.4051V34.4871H58.4705C60.2245 34.4871 61.9066 34.83 63.4572 35.4479C65.0557 36.0895 66.5108 37.0303 67.7505 38.2023C68.1611 38.589 68.177 39.2348 67.7904 39.6413C67.4037 40.0518 66.7579 40.0678 66.3514 39.6811C65.3029 38.6925 64.0631 37.8912 62.6958 37.3452C61.3924 36.823 59.9653 36.536 58.4705 36.536H48.4051V39.426C48.4051 41.0284 47.7115 42.5352 46.5078 43.5836C47.2532 44.9429 47.6437 46.4497 47.6437 48.0202C47.6437 50.5634 46.6113 52.8715 44.9411 54.5377C43.2748 56.2079 40.9666 57.2404 38.4234 57.2404C35.9719 57.2404 33.636 56.2757 31.9019 54.5377C30.2316 52.8715 29.1992 50.5634 29.1992 48.0202C29.1992 46.9718 29.3785 45.9315 29.7255 44.9468H27.3576C27.0786 45.9474 26.9429 46.9757 26.9429 48.0202C26.9429 51.1733 28.2345 54.0434 30.3154 56.1241C32.3962 58.2089 35.2664 59.5004 38.4234 59.5004H49.3379C49.6008 59.5004 49.8639 59.6001 50.0633 59.7993L57.4459 67.1819V60.5248C57.4459 59.9588 57.9043 59.5004 58.4703 59.5004C61.6274 59.5004 64.4974 58.2089 66.5783 56.1241C68.6592 54.0433 69.9507 51.1733 69.9507 48.0202C69.9507 47.1752 69.859 46.3539 69.6876 45.5647C69.5083 44.7515 69.2411 43.9702 68.9023 43.2367C68.667 42.7224 68.8904 42.1166 69.4045 41.8774C69.9148 41.6423 70.5247 41.8654 70.7598 42.3796C71.1624 43.2526 71.4774 44.1734 71.6887 45.1341C71.8919 46.0669 71.9996 47.0316 71.9996 48.02C71.9996 51.7391 70.4808 55.1236 68.0252 57.5751C65.801 59.7993 62.8111 61.2583 59.4946 61.5095V69.6534C59.4946 70.2194 59.0362 70.6778 58.4702 70.6778C58.1871 70.6778 57.9281 70.5622 57.7406 70.3748L48.915 61.5493H38.4231C34.6999 61.5493 31.3156 60.0266 28.8641 57.5751C26.4125 55.1236 24.8898 51.7393 24.8898 48.02C24.8898 46.9876 25.0133 45.9512 25.2485 44.9467H13.9241L6.24248 52.6241C5.84381 53.0267 5.19413 53.0267 4.79545 52.6241C4.59619 52.4248 4.49648 52.1617 4.49648 51.8986V44.851C3.38428 44.6397 2.39175 44.0977 1.62239 43.3282C0.621844 42.3281 0 40.9449 0 39.4262V22.7956C0 21.2768 0.621844 19.8976 1.62239 18.897C2.619 17.9005 4.00219 17.2787 5.52108 17.2787H27.4177ZM31.2524 47.7852L36.7933 47.1714L35.5776 44.9471H31.9382C31.5155 45.8399 31.2843 46.8007 31.2524 47.7852ZM37.9055 44.9471L39.2887 47.4703C39.4521 47.7294 39.4881 48.0524 39.3923 48.3433L37.5068 55.1319C37.8058 55.1717 38.1127 55.1916 38.4237 55.1916C40.4049 55.1916 42.1948 54.3864 43.4943 53.0908C44.7938 51.7913 45.5951 49.9975 45.5951 48.0203C45.5951 46.8166 45.3043 45.6724 44.7422 44.6241C44.1643 44.8314 43.5383 44.947 42.8846 44.947H37.9055V44.9471ZM35.5376 54.5857L37.0325 49.2003L35.115 49.4156L31.4796 49.8182C31.8025 51.0779 32.4602 52.198 33.3492 53.0908C33.975 53.7168 34.7165 54.2269 35.5376 54.5857ZM4.84734 39.6654C4.28133 39.6654 3.82289 39.2069 3.82289 38.6409C3.82289 38.0749 4.28133 37.6165 4.84734 37.6165H6.25838V32.2589C6.25838 31.6929 6.71681 31.2345 7.28283 31.2345H15.7577C16.3237 31.2345 16.7822 31.6929 16.7822 32.2589V37.6165H18.9387V33.4469C18.9387 32.8809 19.3971 32.4225 19.9631 32.4225C20.5291 32.4225 20.9876 32.8809 20.9876 33.4469V37.6165H27.4175V24.4978H20.9876V28.6674C20.9876 29.2334 20.5291 29.6918 19.9631 29.6918C19.3971 29.6918 18.9387 29.2334 18.9387 28.6674V23.4732C18.9387 22.9072 19.3971 22.4488 19.9631 22.4488H28.4418C29.0078 22.4488 29.4663 22.9072 29.4663 23.4732V37.6163H31.6228V25.8769C31.6228 25.3109 32.0812 24.8525 32.6472 24.8525H41.122C41.688 24.8525 42.1464 25.3109 42.1464 25.8769V37.6163H43.5577C44.1238 37.6163 44.5822 38.0747 44.5822 38.6408C44.5822 39.2068 44.1238 39.6652 43.5577 39.6652C30.6544 39.6654 17.751 39.6654 4.84734 39.6654ZM40.0978 26.9014H33.6721V37.6163H40.0978V26.9014ZM14.7333 33.2834H8.30742V37.6165H14.7333V33.2834ZM51.929 43.6476C51.363 43.6476 50.9046 43.1891 50.9046 42.6231C50.9046 42.0571 51.363 41.5987 51.929 41.5987H62.0422C62.6082 41.5987 63.0667 42.0571 63.0667 42.6231C63.0667 43.1891 62.6082 43.6476 62.0422 43.6476H51.929ZM51.929 54.4382C51.363 54.4382 50.9046 53.9797 50.9046 53.4137C50.9046 52.8477 51.363 52.3892 51.929 52.3892H59.232C59.798 52.3892 60.2603 52.8477 60.2603 53.4137C60.2603 53.9797 59.798 54.4382 59.232 54.4382H51.929ZM51.929 50.8427C51.363 50.8427 50.9046 50.3842 50.9046 49.8182C50.9046 49.2522 51.363 48.7938 51.929 48.7938H62.0422C62.6082 48.7938 63.0667 49.2522 63.0667 49.8182C63.0667 50.3842 62.6082 50.8427 62.0422 50.8427H51.929ZM51.929 47.247C51.363 47.247 50.9046 46.7846 50.9046 46.2185C50.9046 45.6564 51.363 45.194 51.929 45.194H62.0422C62.6082 45.194 63.0667 45.6564 63.0667 46.2185C63.0667 46.7845 62.6082 47.247 62.0422 47.247H51.929ZM5.52108 19.3276C4.56834 19.3276 3.69928 19.7183 3.06956 20.348C2.4397 20.9778 2.04905 21.8428 2.04905 22.7956V39.426C2.04905 40.3827 2.4397 41.2478 3.06956 41.8775C3.69942 42.5072 4.56834 42.898 5.52108 42.898C6.08709 42.898 6.54553 43.3565 6.54553 43.9225V49.4274L12.7682 43.201C12.9555 43.0135 13.2147 42.898 13.4978 42.898H42.8846C43.8373 42.898 44.7064 42.5074 45.3362 41.8775C45.966 41.2477 46.3566 40.3827 46.3566 39.426V35.5114V28.8665V23.8079V22.7954C46.3566 21.8427 45.9661 20.9777 45.3362 20.3478C44.7064 19.718 43.8375 19.3275 42.8846 19.3275C30.4311 19.3276 17.9741 19.3276 5.52108 19.3276ZM35.9163 8.31371C35.3503 8.31371 34.8919 7.85528 34.8919 7.28926C34.8919 6.72324 35.3503 6.26481 35.9163 6.26481H56.1746C56.7405 6.26481 57.1989 6.72324 57.1989 7.28926C57.1989 7.85528 56.7405 8.31371 56.1746 8.31371H35.9163ZM35.9163 13.8226C35.3503 13.8226 34.8919 13.3641 34.8919 12.7981C34.8919 12.2321 35.3503 11.7737 35.9163 11.7737H56.1746C56.7405 11.7737 57.1989 12.2321 57.1989 12.7981C57.1989 13.3641 56.7405 13.8226 56.1746 13.8226H35.9163Z" fill="white"/>
</g>
</svg>
