<svg width="72" height="72" viewBox="0 0 72 72" fill="none" xmlns="http://www.w3.org/2000/svg">
<g opacity="0.5">
<path d="M56.015 59.3197C56.015 60.6551 55.469 61.8709 54.5919 62.7479C53.7109 63.6289 52.4952 64.1749 51.1598 64.1749H48.6842V69.9511H66.2636C67.2761 69.9511 68.1969 69.5365 68.8666 68.8669C69.5603 68.1732 69.9549 67.2443 69.9549 66.2638V48.6842H64.1748V51.1598C64.1748 52.4953 63.6287 53.711 62.7477 54.592C61.8706 55.469 60.6549 56.0152 59.3196 56.0152C57.9803 56.0152 56.7683 55.4691 55.8873 54.592C55.0063 53.711 54.4603 52.4953 54.4603 51.1598V48.6842H48.6841V54.4604H51.1597C52.495 54.4604 53.7109 55.0065 54.5918 55.8875C55.469 56.7683 56.015 57.9803 56.015 59.3197ZM2.04891 23.3158H7.82508V20.8402C7.82508 19.5048 8.37113 18.289 9.25228 17.412C10.1333 16.531 11.3451 15.985 12.6844 15.985C14.0197 15.985 15.2356 16.531 16.1166 17.412C16.9935 18.289 17.5397 19.5048 17.5397 20.8402V23.3158H23.3159V16.5151C23.3159 15.9491 23.7783 15.4907 24.3443 15.4907H27.8443C28.6137 15.4907 29.3152 15.1757 29.8254 14.6655C30.3356 14.1552 30.6506 13.4536 30.6506 12.6844C30.6506 11.9111 30.3358 11.2095 29.8254 10.7032C29.3152 10.1931 28.6137 9.87413 27.8443 9.87413H24.3443C23.7783 9.87413 23.3159 9.41569 23.3159 8.84953V2.04497H5.74031C4.72373 2.04497 3.80306 2.46361 3.13327 3.13313C2.46347 3.80292 2.04891 4.72373 2.04891 5.74031V23.3158ZM8.84953 25.3686H2.04891V33.6082C2.04891 34.1743 1.59047 34.6327 1.02445 34.6327C0.458437 34.6327 0 34.1743 0 33.6082V24.3442V5.74031C0 4.15772 0.64575 2.72658 1.68623 1.68623C2.76258 0.605953 4.21355 0.0039375 5.74031 0.0039375H24.2525H24.2564H24.2684H24.2723H24.2764H24.2803H24.2843L24.2883 0H24.2923H24.2962H24.3001H24.3082H24.3121H24.316H24.32H24.3399H24.3439C38.3237 0 52.3036 0.0039375 66.2874 0.0039375C67.858 0.0119531 69.2851 0.653766 70.3176 1.68609C71.35 2.71842 71.9918 4.14169 71.9958 5.71627V24.2523V24.2563L71.9997 24.2682V24.2722V24.2761V24.28V24.284V24.2879V24.292V24.2959V24.2999V24.3079V24.3118V24.3158V24.3197V24.3397V24.3436V33.6077C71.9997 34.1737 71.5413 34.6321 70.9753 34.6321C70.4092 34.6321 69.9508 34.1737 69.9508 33.6077V25.368H64.1746V27.8436C64.1746 29.179 63.6286 30.3948 62.7476 31.2718C61.8705 32.1528 60.6548 32.6988 59.3194 32.6988C57.9801 32.6988 56.7682 32.1526 55.8872 31.2718C55.0062 30.3948 54.4601 29.179 54.4601 27.8436V25.368H48.684V31.1442H51.1595C52.4949 31.1442 53.7107 31.6903 54.5916 32.5673C55.4685 33.4484 56.0147 34.6642 56.0147 35.9996C56.0147 37.3389 55.4687 38.5508 54.5916 39.4318C53.7106 40.3128 52.4949 40.8589 51.1595 40.8589H48.684V46.635H55.4846C56.0506 46.635 56.509 47.0935 56.509 47.6595V51.1595C56.509 51.9289 56.8281 52.6305 57.3342 53.1406C57.8444 53.6508 58.5461 53.9658 59.3194 53.9658C60.0888 53.9658 60.7904 53.651 61.3005 53.1406C61.8107 52.6305 62.1257 51.9289 62.1257 51.1595V47.6595C62.1257 47.0935 62.5842 46.635 63.1503 46.635H69.9508V38.3913C69.9508 37.8253 70.4092 37.3669 70.9753 37.3669C71.5413 37.3669 71.9997 37.8253 71.9997 38.3913C71.9997 47.6834 71.9958 56.9714 71.9958 66.2633C71.9958 67.7862 71.3938 69.2371 70.3176 70.3174C69.2772 71.3538 67.842 71.9996 66.2635 71.9996H47.6599H24.3442H5.74031C4.15772 71.9996 2.72658 71.3538 1.68623 70.3174C0.64575 69.2774 0 67.8423 0 66.2636V47.6598V38.3918C0 37.8257 0.458437 37.3673 1.02445 37.3673C1.59047 37.3673 2.04891 37.8257 2.04891 38.3918V46.6355H7.82508V44.16C7.82508 42.8207 8.37113 41.6088 9.25228 40.728C10.1333 39.8469 11.3451 39.3007 12.6844 39.3007C14.0197 39.3007 15.2356 39.8469 16.1166 40.728C16.9935 41.6088 17.5397 42.8207 17.5397 44.16V46.6355H23.3159V40.8593H20.8403C19.5048 40.8593 18.2891 40.3133 17.412 39.4322C16.531 38.5512 15.985 37.3395 15.985 36C15.985 34.6646 16.531 33.4488 17.412 32.5678C18.289 31.6908 19.5048 31.1446 20.8403 31.1446H23.3159V25.3685H16.5153C15.9493 25.3685 15.4908 24.9061 15.4908 24.344V20.8399C15.4908 20.0706 15.1758 19.369 14.6655 18.8588C14.1553 18.3486 13.4537 18.0336 12.6844 18.0336C11.9111 18.0336 11.2095 18.3486 10.7032 18.8588C10.1931 19.369 9.87806 20.0706 9.87806 20.8399V24.344C9.87806 24.9062 9.41569 25.3686 8.84953 25.3686ZM25.3686 2.04891V7.82508H27.8442C29.1795 7.82508 30.3954 8.37113 31.2723 9.25228C32.1533 10.1332 32.6994 11.349 32.6994 12.6844C32.6994 14.0197 32.1532 15.2356 31.2723 16.1166C30.3954 16.9935 29.1795 17.5397 27.8442 17.5397H25.3686V23.3159H31.1448V20.8403C31.1448 19.505 31.6908 18.2891 32.5679 17.4122C33.4489 16.5312 34.6648 15.9851 36.0001 15.9851C37.3395 15.9851 38.5514 16.5312 39.4324 17.4122C40.3134 18.2891 40.8594 19.505 40.8594 20.8403V23.3159H46.6356V16.5153C46.6356 15.9493 47.094 15.4908 47.6601 15.4908H51.1601C51.9294 15.4908 52.631 15.1758 53.1412 14.6656C53.6514 14.1553 53.9664 13.4537 53.9664 12.6845C53.9664 11.9112 53.6515 11.2096 53.1412 10.7034C52.631 10.1932 51.9294 9.87427 51.1601 9.87427H47.6601C47.094 9.87427 46.6356 9.41583 46.6356 8.84967V2.04891H25.3686ZM48.6842 17.5396V23.3158H55.4849C56.0509 23.3158 56.5093 23.7781 56.5093 24.3443V27.8442C56.5093 28.6135 56.8284 29.3151 57.3345 29.8253C57.8447 30.3355 58.5464 30.6505 59.3197 30.6505C60.0891 30.6505 60.7906 30.3356 61.3008 29.8253C61.811 29.3151 62.126 28.6135 62.126 27.8442V24.3443C62.126 23.7783 62.5845 23.3158 63.1506 23.3158H69.9552V5.72428C69.9512 4.7198 69.5365 3.80292 68.8669 3.13313C68.2012 2.46755 67.2844 2.04891 66.2799 2.04497H48.6842V7.82508H51.1598C52.4952 7.82508 53.711 8.37113 54.5919 9.25228C55.4688 10.1332 56.015 11.3451 56.015 12.6844C56.015 14.0197 55.469 15.2356 54.5919 16.1166C53.7109 16.9935 52.4952 17.5397 51.1598 17.5397H48.6842V17.5396ZM46.6353 48.6842H40.8592V51.1598C40.8592 52.4953 40.3131 53.711 39.4321 54.592C38.5511 55.469 37.3393 56.0152 35.9999 56.0152C34.6645 56.0152 33.4486 55.4691 32.5676 54.592C31.6907 53.711 31.1445 52.4953 31.1445 51.1598V48.6842H25.3683V54.4604H27.8439C29.1793 54.4604 30.3951 55.0065 31.272 55.8875C32.1531 56.7685 32.6991 57.9803 32.6991 59.3197C32.6991 60.6551 32.1529 61.8709 31.272 62.7479C30.3951 63.6289 29.1793 64.1749 27.8439 64.1749H25.3683V69.9511H46.635V63.1505C46.635 62.5845 47.0935 62.126 47.6595 62.126H51.1595C51.9289 62.126 52.6305 61.811 53.1406 61.3008C53.6508 60.7906 53.9658 60.0891 53.9658 59.3197C53.9658 58.5464 53.651 57.8448 53.1406 57.3345C52.6305 56.8283 51.9289 56.5093 51.1595 56.5093H47.6595C47.0935 56.5093 46.635 56.0509 46.635 55.4849V48.6842H46.6353ZM32.1692 25.3686H25.3686V32.1691C25.3686 32.7351 24.9062 33.1937 24.3442 33.1937H20.8402C20.0708 33.1937 19.3693 33.5085 18.8591 34.0189C18.3489 34.5291 18.0339 35.2306 18.0339 36C18.0339 36.7733 18.3487 37.4749 18.8591 37.9811C19.3693 38.4915 20.0708 38.8104 20.8402 38.8104H24.3442C24.9062 38.8104 25.3686 39.2688 25.3686 39.835V46.6355H32.1692C32.7352 46.6355 33.1937 47.0939 33.1937 47.6599V51.1599C33.1937 51.9293 33.5087 52.6309 34.0189 53.1411C34.5291 53.6512 35.2308 53.9663 36 53.9663C36.7733 53.9663 37.4749 53.6514 37.9811 53.1411C38.4913 52.6309 38.8102 51.9293 38.8102 51.1599V47.6599C38.8102 47.0939 39.2687 46.6355 39.8348 46.6355H46.6353V39.8348C46.6353 39.2687 47.0938 38.8102 47.6598 38.8102H51.1598C51.9292 38.8102 52.6307 38.4913 53.1409 37.981C53.6511 37.4747 53.9661 36.7732 53.9661 35.9999C53.9661 35.2305 53.6512 34.5289 53.1409 34.0187C52.6307 33.5084 51.9292 33.1935 51.1598 33.1935H47.6598C47.0938 33.1935 46.6353 32.7351 46.6353 32.169V25.3685H39.8348C39.2688 25.3685 38.8102 24.9061 38.8102 24.344V20.8399C38.8102 20.0706 38.4913 19.369 37.9811 18.8588C37.4749 18.3486 36.7733 18.0336 36 18.0336C35.2306 18.0336 34.5291 18.3486 34.0189 18.8588C33.5087 19.369 33.1937 20.0706 33.1937 20.8399V24.344C33.1937 24.9062 32.7352 25.3686 32.1692 25.3686ZM5.74031 69.9511H23.3158V63.1505C23.3158 62.5845 23.7781 62.126 24.3442 62.126H27.8442C28.6135 62.126 29.3151 61.811 29.8253 61.3008C30.3355 60.7906 30.6505 60.0891 30.6505 59.3197C30.6505 58.5464 30.3356 57.8448 29.8253 57.3345C29.3151 56.8283 28.6135 56.5093 27.8442 56.5093H24.3442C23.7781 56.5093 23.3158 56.0509 23.3158 55.4849V48.6842H16.5151C15.9491 48.6842 15.4907 48.2258 15.4907 47.6598V44.1599C15.4907 43.3865 15.1757 42.685 14.6654 42.1788C14.1552 41.6686 13.4536 41.3536 12.6842 41.3536C11.9109 41.3536 11.2094 41.6685 10.7031 42.1788C10.1929 42.685 9.87398 43.3866 9.87398 44.1599V47.6598C9.87398 48.2258 9.41555 48.6842 8.84939 48.6842H2.04891V66.2636C2.04891 67.2761 2.46347 68.1969 3.13327 68.8667C3.80306 69.5364 4.72373 69.9511 5.74031 69.9511Z" fill="white"/>
</g>
</svg>
