<svg width="72" height="72" viewBox="0 0 72 72" fill="none" xmlns="http://www.w3.org/2000/svg">
<g opacity="0.5" clip-path="url(#clip0)">
<path d="M12.788 27.4356C12.788 26.0963 13.3342 24.8765 14.2192 23.9955C15.1002 23.1106 16.32 22.5645 17.6593 22.5645C19.0027 22.5645 20.2184 23.1106 21.1035 23.9955C21.9845 24.8765 22.5345 26.0962 22.5345 27.4356C22.5345 28.7351 22.6022 29.951 22.7178 31.103H25.2052C25.9626 31.103 26.6482 30.796 27.1465 30.2978C27.6448 29.7995 27.9557 29.1099 27.9557 28.3564V24.3942C27.9557 23.8121 28.4261 23.3378 29.0121 23.3378H32.9745C33.7278 23.3378 34.4174 23.0308 34.9158 22.5287C35.414 22.0304 35.7249 21.3447 35.7249 20.5914C35.7249 19.834 35.414 19.1485 34.9158 18.6501C34.4175 18.1517 33.7279 17.8409 32.9745 17.8409H29.0121C28.4261 17.8409 27.9557 17.3705 27.9557 16.7886V12.8222C27.9557 12.0687 27.6448 11.3831 27.1465 10.8848C26.6482 10.3865 25.9626 10.0756 25.2052 10.0756H21.243C20.6609 10.0756 20.1905 9.60129 20.1905 9.01924V5.05685C20.1905 4.29944 19.8796 3.6139 19.3814 3.11552C18.883 2.61729 18.1935 2.30636 17.44 2.30636C16.6866 2.30636 16.001 2.61729 15.4987 3.11552C15.0003 3.61375 14.6933 4.29944 14.6933 5.05685V9.01924C14.6933 9.60129 14.219 10.0756 13.637 10.0756H9.67472C8.92125 10.0756 8.23162 10.3865 7.73339 10.8848C7.23516 11.3831 6.92423 12.0687 6.92423 12.8222V28.3564C6.92423 29.1099 7.23516 29.7995 7.73339 30.2978C8.23162 30.796 8.92125 31.103 9.67472 31.103H12.788V27.4356ZM59.2121 38.8999C59.2121 39.482 58.7417 39.9522 58.1598 39.9522C57.5779 39.9522 57.1035 39.4818 57.1035 38.8999V32.1592V27.4356C57.1035 26.6782 56.7925 25.9847 56.2902 25.4864C55.792 24.9841 55.0983 24.6732 54.341 24.6732C53.5835 24.6732 52.8899 24.9841 52.3917 25.4864C51.8895 25.9848 51.5786 26.6784 51.5786 27.4356C51.5786 30.7482 51.1321 33.6501 50.5581 36.8949C50.1435 39.2469 49.7568 41.4512 49.7568 43.7671C49.7568 46.6253 50.5621 51.8113 53.2647 53.629C53.5597 53.8243 53.731 54.1511 53.731 54.5019L53.7349 57.2923H64.45C65.032 55.0042 65.8491 53.1467 66.6824 51.2492C68.257 47.6696 69.8913 43.9505 69.8913 36.847C69.8913 32.7213 69.3212 28.8825 68.3366 25.6497C67.7227 23.6286 66.9495 21.8508 66.0606 20.3958V28.3563C66.0606 29.6917 65.5142 30.9075 64.6334 31.7885C63.7523 32.6694 62.5406 33.2156 61.2013 33.2156H59.2121V38.8999ZM59.2121 27.4356V31.103H61.2013C61.9587 31.103 62.6444 30.796 63.1426 30.2978C63.641 29.7995 63.9519 29.1099 63.9519 28.3564V12.8222C63.9519 12.0687 63.641 11.3831 63.1426 10.8848C62.6444 10.3865 61.9587 10.0756 61.2013 10.0756H57.239C56.657 10.0756 56.1825 9.60129 56.1825 9.01924V5.05685C56.1825 4.29944 55.8757 3.6139 55.3773 3.11552C54.879 2.61729 54.1893 2.30636 53.4358 2.30636C52.6825 2.30636 51.9929 2.61729 51.4945 3.11552C50.9963 3.61375 50.6853 4.29944 50.6853 5.05685V9.01924C50.6853 9.60129 50.2149 10.0756 49.633 10.0756H45.6708C44.9132 10.0756 44.2277 10.3865 43.7295 10.8848C43.2311 11.3831 42.9202 12.0687 42.9202 12.8222V15.7321H45.8301C47.1694 15.7321 48.3813 16.2782 49.2622 17.1592C50.1432 18.0402 50.6893 19.252 50.6893 20.5913C50.6893 21.9266 50.1431 23.1425 49.2622 24.0234C48.3812 24.9003 47.1694 25.4465 45.8301 25.4465H42.9202V28.3564C42.9202 29.1099 43.2311 29.7995 43.7295 30.2978C44.2277 30.796 44.9132 31.103 45.6708 31.103H49.2863C49.3979 29.951 49.4698 28.7351 49.4698 27.4356C49.4698 26.0963 50.0158 24.8765 50.9008 23.9955C51.7818 23.1106 53.0014 22.5645 54.341 22.5645C55.6844 22.5645 56.9001 23.1106 57.7851 23.9955C58.6659 24.8764 59.2121 26.0962 59.2121 27.4356ZM12.788 33.2156H9.67472C8.33527 33.2156 7.1235 32.6694 6.24248 31.7885C5.36147 30.9075 4.81542 29.6917 4.81542 28.3563V22.4288C4.24139 23.6764 3.74316 25.0835 3.33647 26.6183C2.54714 29.6119 2.10867 33.0879 2.10867 36.847C2.10867 43.9505 3.74316 47.6696 5.31759 51.2492C6.15066 53.1467 6.96783 55.0042 7.54987 57.2923H18.2649V54.502C18.2649 54.1632 18.4323 53.8323 18.7353 53.6291C21.4419 51.8114 22.2473 46.6253 22.2473 43.7673C22.2473 41.4513 21.8566 39.2469 21.4421 36.895C20.872 33.6503 20.4255 30.7483 20.4255 27.4358C20.4255 26.6784 20.1146 25.9848 19.6123 25.4866C19.11 24.9843 18.4203 24.6733 17.659 24.6733C16.9016 24.6733 16.212 24.9843 15.7098 25.4866C15.2075 25.9849 14.8964 26.6785 14.8964 27.4358V32.1594V38.9001C14.8964 39.4821 14.426 39.9524 13.8441 39.9524C13.2581 39.9524 12.7877 39.482 12.7877 38.9001V33.2156H12.788ZM56.5931 69.6895C57.1752 69.6895 57.6495 70.164 57.6495 70.7459C57.6495 71.3278 57.1752 71.8022 56.5931 71.8022H48.9912C48.4092 71.8022 47.9348 71.3278 47.9348 70.7459V62.036C47.9348 60.7324 48.4691 59.5445 49.3301 58.6836C49.952 58.0618 50.7412 57.6114 51.6261 57.412V55.0243C48.6245 52.5408 47.6478 47.3786 47.6478 43.7671C47.6478 41.2758 48.0504 38.9797 48.481 36.5362C48.6723 35.4678 48.8637 34.3677 49.031 33.2157H45.6708C44.3313 33.2157 43.1196 32.6695 42.2387 31.7887C41.3575 30.9077 40.8116 29.6918 40.8116 28.3564V24.3942C40.8116 23.8121 41.282 23.3378 41.868 23.3378H45.8304C46.5837 23.3378 47.2735 23.0308 47.7717 22.5287C48.27 22.0304 48.5809 21.3447 48.5809 20.5914C48.5809 19.834 48.27 19.1485 47.7717 18.6501C47.2735 18.1517 46.5839 17.8409 45.8304 17.8409H41.868C41.282 17.8409 40.8116 17.3705 40.8116 16.7886V12.8222C40.8116 11.4868 41.3577 10.2709 42.2387 9.394C43.1196 8.51313 44.3313 7.96694 45.6708 7.96694H48.5768V5.05685C48.5768 3.71754 49.1228 2.50563 50.0037 1.62476C50.8847 0.74374 52.1004 0.197693 53.4358 0.197693C54.7713 0.197693 55.9872 0.74374 56.868 1.62476C57.7491 2.50577 58.2951 3.71754 58.2951 5.05685V7.9668H61.201C62.5403 7.9668 63.7522 8.51285 64.6331 9.39386C65.5141 10.2708 66.0603 11.4866 66.0603 12.822V16.9039C67.8262 18.8053 69.3091 21.6275 70.3495 25.0398C71.3941 28.4799 72 32.5299 72 36.847C72 44.385 70.274 48.3153 68.6116 52.0983C67.8583 53.8124 67.1168 55.4906 66.5826 57.4717C67.368 57.699 68.0735 58.1215 68.6356 58.6836C69.4966 59.5445 70.0308 60.7325 70.0308 62.036V70.7459C70.0308 71.3278 69.5564 71.8022 68.9744 71.8022H61.3724C60.7905 71.8022 60.316 71.3278 60.316 70.7459C60.316 70.1638 60.7905 69.6895 61.3724 69.6895H67.9219V62.036C67.9219 61.3144 67.6229 60.6528 67.1446 60.1744C66.6664 59.6999 66.0085 59.401 65.287 59.401H52.6823C51.9569 59.401 51.2992 59.696 50.8209 60.1744C50.3425 60.6527 50.0475 61.3144 50.0475 62.036V69.6895H56.5931ZM15.407 71.8022C14.825 71.8022 14.3546 71.3278 14.3546 70.7459C14.3546 70.1638 14.825 69.6895 15.407 69.6895H21.9565V62.036C21.9565 61.3144 21.6575 60.6528 21.1791 60.1744C20.7007 59.696 20.043 59.401 19.3215 59.401H6.71695C6.01538 59.401 5.34966 59.68 4.85536 60.1744C4.37695 60.6527 4.08192 61.3144 4.08192 62.036V69.6895H10.6314C11.2134 69.6895 11.6838 70.164 11.6838 70.7459C11.6838 71.3278 11.2134 71.8022 10.6314 71.8022H3.02569C2.44364 71.8022 1.97325 71.3278 1.97325 70.7459V62.036C1.97325 60.7324 2.50734 59.5445 3.36459 58.6836C3.93061 58.1215 4.63219 57.6991 5.41744 57.4717C4.88334 55.4906 4.14591 53.8124 3.39244 52.0983C1.72603 48.3155 0 44.385 0 36.847C0 32.9125 0.462516 29.2573 1.30345 26.0803C2.12864 22.955 3.32845 20.2843 4.81542 18.2753V12.8222C4.81542 11.4868 5.36147 10.2709 6.24248 9.394C7.1235 8.51313 8.33527 7.96694 9.67472 7.96694H12.5847V5.05685C12.5847 3.71754 13.1307 2.50563 14.0078 1.62476C14.8887 0.74374 16.1047 0.197693 17.44 0.197693C18.7793 0.197693 19.9912 0.74374 20.8721 1.62476C21.7531 2.50577 22.2992 3.71754 22.2992 5.05685V7.9668H25.2052C26.5445 7.9668 27.7605 8.51285 28.6374 9.39386C29.5185 10.2708 30.0645 11.4866 30.0645 12.822V15.732H32.9746C34.31 15.732 35.5258 16.278 36.4067 17.159C37.2877 18.0401 37.8336 19.2518 37.8336 20.5911C37.8336 21.9265 37.2876 23.1423 36.4067 24.0232C35.5257 24.9002 34.3098 25.4463 32.9746 25.4463H30.0645V28.3563C30.0645 29.6917 29.5185 30.9075 28.6374 31.7885C27.7605 32.6694 26.5447 33.2156 25.2052 33.2156H22.9729C23.1363 34.3676 23.3317 35.4678 23.519 36.536C23.9496 38.9795 24.3561 41.2757 24.3561 43.767C24.3561 47.3785 23.3754 52.5407 20.3738 55.0241V57.4118C21.2587 57.6111 22.052 58.0615 22.6738 58.6835C23.5308 59.5444 24.065 60.7324 24.065 62.0358V70.7457C24.065 71.3276 23.5946 71.8021 23.0127 71.8021H15.407V71.8022Z" fill="white"/>
</g>
<defs>
<clipPath id="clip0">
<rect width="72" height="72" fill="white"/>
</clipPath>
</defs>
</svg>
