<svg width="72" height="72" viewBox="0 0 72 72" fill="none" xmlns="http://www.w3.org/2000/svg">
<g opacity="0.5" clip-path="url(#clip0)">
<path d="M27.9757 48.1978C27.7923 47.6477 28.0873 47.0537 28.6374 46.8664C29.1915 46.683 29.7855 46.982 29.9689 47.5321C30.3993 48.8077 31.2206 49.9039 32.2928 50.6772C33.3332 51.4226 34.6129 51.865 36.0001 51.865C37.3874 51.865 38.667 51.4226 39.7074 50.6772C40.7797 49.9039 41.6049 48.8075 42.0314 47.5321C42.2148 46.982 42.8127 46.6831 43.3628 46.8664C43.913 47.0537 44.2119 47.6477 44.0246 48.1978C43.4545 49.8999 42.3623 51.3548 40.9352 52.3834C39.544 53.3839 37.838 53.9738 36.0003 53.9738C34.1626 53.9738 32.4605 53.3839 31.0653 52.3834C29.638 51.3548 28.5457 49.8999 27.9757 48.1978ZM60.7667 19.5927L56.8363 18.2613L54.3209 19.4889V20.609C54.3209 21.494 54.6837 22.2992 55.2697 22.8852C55.8558 23.4711 56.6609 23.834 57.5459 23.834C58.4308 23.834 59.236 23.4711 59.822 22.8852C60.4041 22.2992 60.7667 21.494 60.7667 20.609V19.5927ZM54.3209 17.1531L56.2383 16.2124C56.4934 16.0648 56.8043 16.025 57.1033 16.1287L60.7667 17.3684V16.025C60.7667 15.6583 60.6192 15.3235 60.3761 15.0803C60.129 14.8372 59.7942 14.6857 59.4274 14.6857H55.6604C55.2936 14.6857 54.9588 14.8372 54.7156 15.0803C54.4725 15.3235 54.321 15.6583 54.321 16.025V17.1531H54.3209ZM11.2334 16.3519H17.6792V14.6856H12.5727C12.206 14.6856 11.8711 14.837 11.628 15.0802C11.3849 15.3233 11.2333 15.6582 11.2333 16.0249V16.3519H11.2334ZM17.6792 18.4605H11.2334V20.6091C11.2334 21.4941 11.5962 22.2993 12.1822 22.8853C12.7642 23.4713 13.5734 23.8341 14.4584 23.8341C15.3433 23.8341 16.1485 23.4713 16.7345 22.8853C17.3166 22.2993 17.6794 21.4941 17.6794 20.6091V18.4605H17.6792ZM39.225 13.5935C38.061 13.7132 36.3708 13.6055 34.9118 12.4056C34.3936 12.6807 33.6562 12.9517 32.7793 12.9397V14.6021C32.7793 15.491 33.1421 16.2962 33.724 16.8782C34.31 17.4642 35.1152 17.827 36.0001 17.827C36.8851 17.827 37.6903 17.4642 38.2763 16.8782C38.8623 16.2962 39.2251 15.4911 39.2251 14.6021V13.5935H39.225ZM32.7791 10.8389C33.696 10.8709 34.3259 10.2849 34.3298 10.2809L34.3498 10.2649C34.7882 9.8862 35.45 9.93402 35.8327 10.3726C36.9049 11.6044 38.3678 11.6163 39.225 11.4848V10.0178C39.225 9.65108 39.0735 9.31625 38.8304 9.07311C38.5871 8.82997 38.2522 8.67851 37.8855 8.67851H34.1186C33.7518 8.67851 33.417 8.82997 33.1737 9.07311C32.9266 9.31625 32.7791 9.65108 32.7791 10.0178V10.8389ZM19.7879 20.6091C19.7879 21.5818 19.5248 22.4987 19.0665 23.2879C20.1308 23.4634 21.0835 23.9775 21.817 24.711C22.7379 25.6318 23.312 26.9035 23.312 28.3067V30.0207L23.599 29.7337C23.6429 29.6859 23.6907 29.6501 23.7385 29.6141C24.0813 29.3431 24.4561 29.2036 24.8586 29.1995C25.297 29.1956 25.7037 29.359 26.0783 29.6938C26.0942 29.7057 26.1062 29.7218 26.1221 29.7337L27.1465 30.7542V22.2995C27.1465 20.9002 27.7166 19.6287 28.6414 18.704C29.3749 17.9705 30.3276 17.4603 31.3919 17.2808C30.9334 16.4915 30.6664 15.5787 30.6664 14.6021V10.0178C30.6664 9.06903 31.057 8.20812 31.6789 7.5822C32.3047 6.95642 33.1657 6.5697 34.1186 6.5697H37.8855C38.8343 6.5697 39.6953 6.95642 40.3211 7.5822C40.9469 8.20812 41.3336 9.06903 41.3336 10.0178V14.6021C41.3336 15.5787 41.0705 16.4915 40.6081 17.2808C41.6724 17.4601 42.6292 17.9705 43.3626 18.704C44.2834 19.6287 44.8574 20.9004 44.8574 22.2995V30.7542L45.8779 29.7337C45.9218 29.6859 45.9696 29.646 46.0215 29.6141C46.3683 29.331 46.7429 29.1956 47.1457 29.1995C47.58 29.2034 47.9787 29.3668 48.3455 29.6818C48.3614 29.6977 48.3813 29.7177 48.4013 29.7337L48.6882 30.0207V28.3067C48.6882 26.9035 49.2622 25.6318 50.1832 24.711C50.9165 23.9777 51.8732 23.4634 52.9376 23.2879C52.4752 22.4987 52.2121 21.5818 52.2121 20.6091V16.025C52.2121 15.0763 52.5988 14.2113 53.2246 13.5894C53.8505 12.9636 54.7114 12.5769 55.6602 12.5769H59.4273C60.3799 12.5769 61.2411 12.9636 61.8668 13.5894C62.4887 14.2113 62.8793 15.0763 62.8793 16.025V20.6091C62.8793 21.5818 62.6123 22.4987 62.1539 23.2879C63.2183 23.4634 64.1708 23.9775 64.9043 24.711C65.8292 25.6318 66.3992 26.9035 66.3992 28.3067V33.9471C67.2204 34.585 68.1971 35.717 68.9664 36.4823C69.2535 36.7693 69.4129 37.172 69.4129 37.5785C69.409 37.9852 69.2335 38.4395 68.9425 38.7305L68.1173 39.5557C68.3605 39.9702 68.5678 40.4207 68.7511 40.8791C68.9345 41.3415 69.0899 41.8039 69.2215 42.2384H70.4294C70.84 42.2384 71.2586 42.3898 71.5535 42.6849C71.8726 42.9997 72 43.4263 72 43.8568V47.2012C72 47.6198 71.8485 48.0344 71.5535 48.3294C71.2426 48.6403 70.8121 48.7759 70.3856 48.7759H69.2217C69.09 49.2104 68.9347 49.6728 68.7513 50.1352C68.5679 50.5936 68.3606 51.044 68.1175 51.4586L68.9666 52.3077C69.2416 52.5828 69.4091 53.0571 69.4131 53.4358C69.4131 53.8265 69.2816 54.1772 69.0064 54.4842C68.9944 54.5 68.9785 54.5161 68.9666 54.528V54.532L66.567 56.9277C65.8813 57.6133 64.9963 57.5775 64.3226 56.9077L63.4895 56.0746C63.0271 56.3297 62.6046 56.5291 62.1661 56.7045C61.7396 56.8759 61.3091 57.0193 60.8147 57.1749V58.3907C60.8147 58.8092 60.6632 59.2318 60.3643 59.5268C60.0733 59.8178 59.6985 59.9614 59.2401 59.9573V59.9653H55.8519C55.4293 59.9653 55.0226 59.8258 54.7197 59.5268C54.4088 59.2159 54.2772 58.7814 54.2772 58.3588V57.1749C53.7789 57.0195 53.3524 56.8759 52.9259 56.7045C52.7027 56.6128 52.4835 56.5172 52.2602 56.4135C52.2721 56.4972 52.2802 56.585 52.2802 56.6727C52.2841 57.139 52.0927 57.5896 51.7659 57.9164L48.4014 61.2848C48.0825 61.6037 47.5962 61.811 47.1458 61.8149C46.6635 61.8189 46.1891 61.5918 45.8542 61.2607L44.4471 59.8496C43.6897 60.2841 43.032 60.599 42.3463 60.874C41.6727 61.1451 40.995 61.3644 40.1698 61.6195V63.6484C40.1698 64.1229 40.0064 64.6051 39.6675 64.944C39.3407 65.2669 38.914 65.4303 38.3878 65.4263V65.4303H33.6163C33.1379 65.4303 32.6755 65.2828 32.3326 64.944C31.9898 64.6011 31.8303 64.1068 31.8303 63.6325V61.6195L31.8144 61.6155C30.9973 61.3644 30.3235 61.1412 29.658 60.8742C28.9723 60.5991 28.3106 60.2842 27.5532 59.8497L26.1221 61.2848C25.7992 61.6077 25.317 61.8189 24.8584 61.8149C24.42 61.811 24.0213 61.6475 23.6586 61.3326C23.6386 61.3167 23.6188 61.2967 23.6028 61.2808L23.5988 61.2848L20.2265 57.9084C19.9036 57.5855 19.7203 57.1311 19.7203 56.6727C19.7242 56.585 19.7283 56.4972 19.7442 56.4135C19.521 56.5172 19.3018 56.6128 19.0785 56.7045C18.6519 56.8759 18.2213 57.0193 17.7231 57.1749V58.3907C17.7231 58.8053 17.5795 59.2279 17.2807 59.5268C16.9897 59.8178 16.615 59.9614 16.1525 59.9573V59.9653H12.7602C12.3415 59.9653 11.9391 59.8258 11.636 59.5268C11.349 59.2398 11.2015 58.8691 11.1936 58.4068V58.3909H11.1895V57.175C10.6912 57.0196 10.2607 56.876 9.83813 56.7046C9.39966 56.5293 8.97708 56.3299 8.51077 56.0748L7.65773 56.9278C6.98808 57.5935 6.19481 57.5855 5.48916 56.9756C5.47327 56.9597 5.4533 56.9437 5.43727 56.9237L5.43333 56.9277L3.03764 54.532C2.75062 54.245 2.58722 53.8423 2.59116 53.4358C2.59116 53.101 2.70281 52.774 2.91403 52.4631C2.94989 52.4073 2.99377 52.3555 3.0375 52.3077L3.88266 51.4586C3.64345 51.044 3.43223 50.5936 3.24886 50.1352C3.06548 49.6728 2.91009 49.2104 2.78255 48.7759H1.57472C1.16016 48.7759 0.741516 48.6245 0.450563 48.3294C0.163547 48.0463 0.0160313 47.6757 0.00407812 47.2213V47.2013H0V43.8131C0 43.3945 0.151594 42.98 0.450563 42.685C0.745453 42.39 1.17197 42.2385 1.57866 42.2385H2.78255C2.91009 41.804 3.06563 41.3416 3.24886 40.8792C3.43223 40.4208 3.64345 39.9704 3.88266 39.5558L3.0375 38.7067C2.76652 38.4397 2.59102 37.9493 2.59102 37.5786C2.58708 37.1721 2.75048 36.7695 3.04144 36.4784L5.43319 34.0866C5.48902 34.031 5.54091 33.995 5.60067 33.9471V28.3067C5.60067 26.9035 6.1747 25.6318 7.09552 24.711C7.82902 23.9777 8.78161 23.4634 9.84994 23.2879C9.38756 22.4987 9.12445 21.5818 9.12445 20.6091V17.4043V16.025C9.12445 15.0763 9.51103 14.2113 10.137 13.5894C10.7627 12.9636 11.6239 12.5769 12.5726 12.5769H18.7353C19.3174 12.5769 19.7876 13.0473 19.7876 13.6294V17.4043V20.6091H19.7879ZM16.9418 25.3249C16.1963 25.7195 15.3513 25.9428 14.4584 25.9428C13.5615 25.9428 12.7163 25.7196 11.9749 25.3249H10.6913C9.87413 25.3249 9.12867 25.6597 8.58656 26.2018C8.04839 26.7439 7.70963 27.4854 7.70963 28.3065V34.1423L8.51091 34.9397C8.97722 34.6844 9.3998 34.4852 9.83827 34.3098C10.2607 34.1384 10.6913 33.995 11.1897 33.8394V32.6237C11.1897 32.5718 11.1936 32.524 11.2016 32.4723C11.2335 32.0736 11.3809 31.7427 11.6362 31.4876C11.9312 31.1967 12.3058 31.0532 12.7603 31.0572V31.0532H16.1525C16.5711 31.0532 16.9817 31.1886 17.2807 31.4876C17.5877 31.7946 17.7231 32.2331 17.7231 32.6516V33.8394C18.2213 33.9948 18.6518 34.1384 19.0785 34.3098C19.3016 34.4015 19.5209 34.4973 19.7442 34.6008C19.7281 34.5171 19.7242 34.4293 19.7203 34.3417C19.7203 33.8993 19.8717 33.5046 20.1828 33.1539C20.1987 33.138 20.2106 33.122 20.2267 33.1061L21.2033 32.1294V28.3067C21.2033 27.4856 20.8685 26.744 20.3264 26.2019C19.7843 25.6598 19.0388 25.325 18.2216 25.325H16.9418V25.3249ZM60.0293 25.3249C59.2878 25.7195 58.4387 25.9428 57.5459 25.9428C56.649 25.9428 55.8039 25.7196 55.0624 25.3249H53.7788C52.9616 25.3249 52.2162 25.6597 51.6741 26.2018C51.1359 26.7439 50.8011 27.4854 50.8011 28.3065V32.1293L51.7777 33.1059C52.1006 33.4288 52.284 33.8833 52.28 34.3417C52.28 34.4295 52.272 34.5171 52.26 34.6008C52.4832 34.4971 52.7025 34.4015 52.9258 34.3098C53.3523 34.1384 53.7788 33.995 54.277 33.8394C54.277 33.4488 54.2372 32.8389 54.2891 32.4721C54.321 32.0735 54.4645 31.7426 54.7196 31.4875C55.0105 31.1965 55.3892 31.0531 55.8517 31.057V31.0531H59.24C59.6586 31.0531 60.0652 31.1885 60.3641 31.4875C60.6511 31.7745 60.7987 32.1452 60.8106 32.6075V32.6236H60.8145V33.8393C61.309 33.9947 61.7394 34.1382 62.166 34.3097C62.6044 34.485 63.027 34.6843 63.4894 34.9395L64.2907 34.1422V28.3064C64.2907 27.4853 63.9558 26.7438 63.4137 26.2017C62.8755 25.6595 62.1302 25.3247 61.309 25.3247H60.0293V25.3249ZM38.4834 19.3216C37.7421 19.7122 36.8969 19.9354 36 19.9354C35.0992 19.9354 34.2501 19.7122 33.5046 19.3136L32.2369 19.3216C31.4158 19.3216 30.6703 19.6564 30.1321 20.1946C29.59 20.7367 29.2552 21.4821 29.2552 22.2993V30.3076C29.3868 30.2518 29.5222 30.196 29.6578 30.1401C30.3275 29.8731 31.0091 29.6499 31.8303 29.3947V27.3657C31.8303 26.8914 31.9937 26.4091 32.3326 26.0703C32.6595 25.7474 33.09 25.5839 33.6163 25.588V25.584H38.3878C38.8621 25.584 39.3247 25.7315 39.6675 26.0705C39.9904 26.3933 40.1579 26.8198 40.1657 27.35V27.3659H40.1697V29.3948L40.1856 29.3988C41.0027 29.6499 41.6804 29.8731 42.3461 30.1401C42.4817 30.196 42.6132 30.2518 42.7448 30.3076V22.2993C42.7448 21.4821 42.41 20.7367 41.8718 20.1946C41.3297 19.6564 40.5842 19.3216 39.7671 19.3216H38.4834ZM55.4451 49.1585C55.5366 49.2104 55.6284 49.2581 55.7201 49.3061C56.2702 49.5692 56.8882 49.7165 57.5457 49.7165C58.7057 49.7165 59.7582 49.2462 60.5195 48.4848C61.2849 47.7235 61.7553 46.671 61.7553 45.5071C61.7553 44.3431 61.2849 43.2907 60.5195 42.5293C59.7582 41.768 58.7059 41.2976 57.5457 41.2976C56.888 41.2976 56.2701 41.4451 55.7201 41.7082C55.6284 41.756 55.5327 41.8039 55.4411 41.8557C55.752 42.1747 55.9115 42.5892 55.9194 43.0994V43.1194H55.9235V47.8949C55.9235 48.3533 55.7679 48.8236 55.4451 49.1585ZM52.8022 41.3375C53.3602 40.7037 54.0418 40.1855 54.8072 39.8147C55.6402 39.4121 56.5691 39.1889 57.5457 39.1889C59.2878 39.1889 60.8704 39.8945 62.0144 41.0386C63.1544 42.1826 63.864 43.7611 63.864 45.5071C63.864 47.2531 63.1545 48.8316 62.0144 49.9756C60.8704 51.1196 59.2878 51.8252 57.5457 51.8252C56.5691 51.8252 55.6402 51.6021 54.8072 51.1993C54.0418 50.8286 53.3602 50.3104 52.8022 49.6766H52.1165C51.9211 50.3741 51.678 51.1196 51.3831 51.865C51.0881 52.5946 50.7452 53.312 50.3467 53.9539L50.562 54.1692C50.7932 54.0097 51.0563 53.9141 51.3314 53.8861C51.6942 53.8463 52.0727 53.918 52.3997 54.1053C52.89 54.3884 53.3005 54.5877 53.7072 54.7511C54.1257 54.9184 54.5642 55.062 55.0904 55.2254C55.4452 55.3171 55.8 55.5563 56.0272 55.8392C56.2624 56.1382 56.386 56.4969 56.386 56.8756V57.8523H58.7019V56.8756H58.7059C58.7019 56.4691 58.8414 56.1182 59.0646 55.8392C59.2958 55.5483 59.6226 55.341 59.9496 55.2373V55.2413L59.9535 55.2373C60.5036 55.07 60.95 54.9225 61.3806 54.7511C61.791 54.5877 62.1977 54.3882 62.692 54.1053C63.0188 53.918 63.3975 53.8463 63.7604 53.8861C64.0952 53.9219 64.4221 54.0575 64.6851 54.2928C64.7131 54.3167 64.7409 54.3406 64.7648 54.3645L65.4545 55.058L67.0929 53.4198L66.4031 52.7262H66.4071C66.144 52.467 65.9566 52.1044 65.9128 51.7098C65.8728 51.351 65.9447 50.9683 66.1759 50.6136C66.411 50.2388 66.6184 49.8084 66.7979 49.358C66.9812 48.9035 67.1366 48.4132 67.2682 47.9428C67.3599 47.62 67.5872 47.2773 67.8821 47.042C68.1691 46.8148 68.5439 46.6674 68.9145 46.6674H69.8912V44.3473H68.9145V44.3434C68.52 44.3473 68.1611 44.1959 67.8821 43.9727C67.5871 43.7376 67.3599 43.3948 67.2682 43.0719C67.1366 42.6015 66.9812 42.1113 66.7979 41.6568C66.6184 41.2063 66.411 40.7757 66.1759 40.4011C65.9447 40.0463 65.873 39.6637 65.9128 39.305C65.9566 38.9303 66.1359 38.5556 66.403 38.2885L67.0928 37.5948L65.4543 35.9565L64.7647 36.6502V36.6463C64.4857 36.9292 64.1309 37.0888 63.7602 37.1286C63.3974 37.1686 63.0188 37.0967 62.6919 36.9094C62.1976 36.6263 61.7909 36.4271 61.3804 36.2637C60.9618 36.0962 60.5273 35.9527 60.001 35.7893C59.6462 35.6976 59.2916 35.4584 59.0643 35.1755C58.8251 34.8765 58.7015 34.5178 58.7015 34.1391V33.1625H56.3856V34.1391H56.3816C56.3896 34.5456 56.25 34.8965 56.0268 35.1755C55.7956 35.4665 55.4687 35.6739 55.1378 35.7774V35.7734L55.1339 35.7774C54.5878 35.9447 54.1374 36.0922 53.7068 36.2637C53.3001 36.4271 52.8896 36.6263 52.3993 36.9094C52.0725 37.0969 51.6937 37.1686 51.3309 37.1286C51.0559 37.1008 50.7928 37.0052 50.5616 36.8456L50.3463 37.0609C50.745 37.7027 51.0877 38.4201 51.3827 39.1497C51.6777 39.8952 51.9209 40.6406 52.116 41.3381H52.8022V41.3375ZM21.4381 36.845C21.207 37.0045 20.9438 37.1001 20.6688 37.1281C20.31 37.168 19.9313 37.0962 19.6045 36.9088C19.1102 36.6258 18.7037 36.4265 18.2931 36.2631C17.8746 36.0956 17.44 35.9522 16.9138 35.7888C16.8938 35.7848 16.878 35.7807 16.8619 35.7768C16.531 35.6732 16.2082 35.4659 15.9729 35.1749C15.7695 34.9159 15.634 34.6009 15.6181 34.2342C15.6181 34.2022 15.6142 34.1705 15.6142 34.1385V33.1619H13.2982V34.1385H13.2943C13.3023 34.5451 13.1626 34.8959 12.9395 35.1749C12.7043 35.4659 12.3815 35.6733 12.0506 35.7768V35.7729L12.0466 35.7768C11.5006 35.9442 11.05 36.0917 10.6196 36.2631C10.213 36.4265 9.80241 36.6258 9.31219 36.9088C8.9813 37.0963 8.60259 37.168 8.24386 37.1281C7.90509 37.0922 7.58208 36.9567 7.31911 36.7215C7.29113 36.6975 7.26328 36.6737 7.23544 36.6498L6.54581 35.9561L4.90739 37.5944L5.59702 38.2881C5.86012 38.5471 6.0435 38.9099 6.08737 39.3045C6.12731 39.6633 6.05559 40.046 5.82834 40.4007C5.58914 40.7755 5.38186 41.2059 5.20242 41.6563C5.02312 42.1108 4.86366 42.6011 4.73203 43.0715C4.64428 43.3943 4.41323 43.7372 4.1182 43.9723C3.83119 44.2035 3.45642 44.3469 3.08573 44.3469H2.10909V46.667H3.08573V46.6709C3.48427 46.667 3.84314 46.8223 4.1182 47.0416C4.41323 47.2768 4.64442 47.6195 4.73203 47.9424C4.86366 48.4128 5.02298 48.903 5.20242 49.3575C5.38186 49.8081 5.58914 50.2385 5.82834 50.6132C6.05559 50.968 6.12731 51.3506 6.08737 51.7093C6.04758 52.084 5.86814 52.4587 5.59702 52.7258L4.90739 53.4193L6.54581 55.0576L7.23544 54.3641L7.23938 54.368C7.51444 54.089 7.87317 53.9255 8.24386 53.8857C8.60259 53.8459 8.9813 53.9176 9.31219 54.1049C9.80241 54.388 10.213 54.5872 10.6196 54.7506C11.0382 54.918 11.4727 55.0616 12.0029 55.225C12.3536 55.3167 12.7124 55.5559 12.9396 55.8388C13.1747 56.1378 13.2983 56.4965 13.2983 56.8752V57.8518H15.6143V56.8752H15.6182C15.6102 56.4687 15.7497 56.1178 15.973 55.8388C16.2082 55.5478 16.5312 55.3406 16.8621 55.2369V55.2409L16.866 55.2369C17.4161 55.0696 17.8626 54.9221 18.2931 54.7506C18.7037 54.5872 19.1102 54.3878 19.6045 54.1049C19.9313 53.9176 20.31 53.8459 20.6688 53.8857C20.9438 53.9136 21.207 54.0093 21.4381 54.1687L21.6534 53.9534C21.2548 53.3116 20.9119 52.5942 20.621 51.8646C20.322 51.1191 20.0828 50.3737 19.8835 49.6762H19.1978C18.6279 50.3219 17.9303 50.8521 17.1489 51.2228C16.3277 51.6095 15.4149 51.8248 14.4582 51.8248C12.7122 51.8248 11.1336 51.1191 9.98958 49.9752C8.84545 48.831 8.13994 47.2525 8.13994 45.5067C8.13994 43.7607 8.84545 42.1821 9.98958 41.0382C11.1336 39.894 12.7122 39.1885 14.4582 39.1885C15.4149 39.1885 16.3277 39.4038 17.1489 39.7904C17.9303 40.1611 18.6279 40.6912 19.1978 41.3371H19.8835C20.0828 40.6395 20.322 39.894 20.621 39.1487C20.9119 38.4192 21.2548 37.7017 21.6534 37.0599L21.4381 36.845ZM16.559 41.8557C16.4593 41.7999 16.3557 41.7441 16.252 41.6963C15.7099 41.4412 15.104 41.2977 14.4582 41.2977C13.2943 41.2977 12.2418 41.7681 11.4805 42.5295C10.719 43.2908 10.2486 44.3431 10.2486 45.5072C10.2486 46.6712 10.719 47.7236 11.4805 48.485C12.2418 49.2463 13.2941 49.7167 14.4582 49.7167C15.104 49.7167 15.7098 49.5731 16.252 49.3182C16.3557 49.2703 16.4552 49.2145 16.5549 49.1587C16.252 48.8438 16.0926 48.4291 16.0806 47.915V47.895H16.0767V43.1195C16.0767 42.661 16.2361 42.1906 16.559 41.8557ZM23.0088 33.3053L22.9968 33.3173L21.9444 34.3696L23.2241 35.6452H23.2201C23.5271 35.9481 23.7383 36.3667 23.7902 36.8211C23.8341 37.2357 23.7544 37.6782 23.4913 38.0887C23.1404 38.6388 22.8336 39.2687 22.5744 39.9264C22.3072 40.5882 22.084 41.2896 21.8967 41.9633C21.7931 42.334 21.526 42.7327 21.1791 43.0117C20.8482 43.2748 20.4178 43.4462 19.9913 43.4462H18.1855V47.5679H19.9913V47.5719C20.4456 47.5719 20.8562 47.7472 21.1791 48.0064C21.5259 48.2815 21.7929 48.68 21.8967 49.0508C22.084 49.7244 22.3072 50.4261 22.5744 51.0878C22.8334 51.7455 23.1404 52.3753 23.4913 52.9253C23.7544 53.336 23.8341 53.7784 23.7902 54.1929C23.7424 54.6116 23.559 55.0021 23.2879 55.2971C23.268 55.321 23.2481 55.3449 23.2241 55.3688L21.9444 56.6444L24.8624 59.5623L26.138 58.2827L26.1419 58.2867C26.4568 57.9638 26.8713 57.7765 27.2978 57.7287C27.7204 57.6808 28.159 57.7685 28.5417 57.9877C29.2511 58.3944 29.8412 58.6814 30.4391 58.9205C31.0451 59.1636 31.6749 59.3709 32.4363 59.6061C32.4522 59.6101 32.4682 59.6142 32.4882 59.622C32.8747 59.7417 33.2536 59.9808 33.5287 60.3236C33.7679 60.6265 33.9232 60.9972 33.9352 61.4278C33.9391 61.4597 33.9391 61.4876 33.9391 61.5155V63.3213H38.061V61.5155H38.0649C38.0569 61.0491 38.2164 60.6465 38.4754 60.3236C38.7465 59.9808 39.1292 59.7416 39.5159 59.622H39.5198C40.3012 59.3789 40.943 59.1677 41.5648 58.9205C42.1588 58.6812 42.7527 58.3942 43.4623 57.9877C43.841 57.7685 44.2835 57.6807 44.702 57.7287C45.1005 57.7765 45.4833 57.9359 45.7902 58.2189C45.8141 58.2388 45.838 58.2627 45.8619 58.2827L47.1416 59.5623L50.0555 56.6444L49.7963 56.3854L48.7799 55.369C48.477 55.0661 48.2617 54.6474 48.2098 54.1931C48.1659 53.7785 48.2497 53.3361 48.5127 52.9255C48.8635 52.3753 49.1664 51.7456 49.4295 51.0879C49.6927 50.4261 49.916 49.7246 50.1072 49.051C50.211 48.6803 50.478 48.2816 50.8248 48.0065C51.1557 47.7395 51.5822 47.5681 52.0088 47.5681H53.8145V43.4464H52.0088V43.4424C51.5583 43.4424 51.1438 43.2671 50.8248 43.0079C50.478 42.7328 50.211 42.3343 50.1072 41.9635C49.916 41.2897 49.6927 40.5883 49.4295 39.9265C49.1664 39.2688 48.8635 38.639 48.5127 38.0888C48.2496 37.6783 48.1659 37.2358 48.2098 36.8212C48.2576 36.4026 48.4449 36.0121 48.7121 35.717C48.732 35.6931 48.756 35.6692 48.7799 35.6453L50.0555 34.3697L49.0032 33.3174L48.9952 33.3055L47.1416 31.4519L45.8619 32.7314V32.7275C45.543 33.0504 45.1325 33.2378 44.7019 33.2856C44.1637 33.3454 43.785 33.2098 43.3305 32.9508C42.7206 32.6438 42.2063 32.3529 41.5647 32.0938C40.9548 31.8506 40.3289 31.6434 39.5675 31.4082C39.153 31.3006 38.7383 31.0216 38.4751 30.6907C38.232 30.3878 38.0766 30.017 38.0647 29.5865C38.0647 29.5546 38.0607 29.5267 38.0607 29.4989V27.6931H33.9389V29.4989H33.9349C33.9429 29.9652 33.7835 30.3678 33.5284 30.6908C33.2533 31.0337 32.8746 31.2727 32.4879 31.3963L32.484 31.3924V31.3963C31.6987 31.6355 31.0569 31.8468 30.439 32.094C29.9049 32.3091 29.3707 32.5603 28.7568 32.9031C28.3064 33.1862 27.84 33.3455 27.2977 33.2859C26.8992 33.242 26.5164 33.0786 26.2095 32.7956C26.1855 32.7756 26.1617 32.7517 26.1378 32.7317L24.8622 31.4522L23.0088 33.3053ZM44.0243 42.8165C44.2117 43.3666 43.9127 43.9605 43.3626 44.1479C42.8124 44.3313 42.2145 44.0323 42.0311 43.4822C41.6046 42.2066 40.7794 41.1104 39.7072 40.3371C38.6706 39.5917 37.3871 39.1493 35.9999 39.1493C34.6126 39.1493 33.333 39.5917 32.2926 40.3371C31.2203 41.1106 30.3992 42.2068 29.9686 43.4822C29.7852 44.0323 29.1914 44.3313 28.6372 44.1479C28.087 43.9606 27.7921 43.3666 27.9754 42.8165C28.5455 41.1183 29.6377 39.6593 31.0648 38.6309C32.4599 37.6304 34.162 37.0405 35.9997 37.0405C37.8374 37.0405 39.5436 37.6304 40.9347 38.6309C42.3622 39.6593 43.4544 41.1183 44.0243 42.8165Z" fill="white"/>
</g>
<defs>
<clipPath id="clip0">
<rect width="72" height="72" fill="white"/>
</clipPath>
</defs>
</svg>
