<svg width="84" height="85" viewBox="0 0 84 85" fill="none" xmlns="http://www.w3.org/2000/svg">
<g clip-path="url(#clip0)">
<path d="M52.9822 10.7772L82.3062 61.5682C83.3816 63.4308 84 65.5902 84 67.8954C84 74.896 78.3247 80.5715 71.3239 80.5715H42L31.8591 42.5L42 4.42865C46.6955 4.42865 50.7916 6.9836 52.9822 10.7772Z" fill="#3B4145"/>
<path d="M31.0178 10.7772L1.69362 61.5682C0.618352 63.4308 0 65.5902 0 67.8954C0 74.896 5.67525 80.5715 12.6761 80.5715H42V4.42865C37.3045 4.42865 33.2084 6.9836 31.0178 10.7772Z" fill="#525A61"/>
<path d="M77.9154 64.1034L48.5915 13.3129C47.2698 11.0228 44.8429 9.57774 42.218 9.50342L67.2981 75.5017H71.324C75.5173 75.5017 78.9296 72.0895 78.9296 67.8961C78.9296 66.5642 78.578 65.2527 77.9154 64.1034Z" fill="#FFB751"/>
<path d="M72.9837 64.1034C73.5566 65.2527 73.8592 66.5642 73.8592 67.8961C73.8592 72.0893 70.9167 75.5017 67.298 75.5017H12.6762C8.48289 75.5017 5.07056 72.0893 5.07056 67.8961C5.07056 66.5642 5.42214 65.2527 6.08463 64.1034L35.4085 13.313C36.7674 10.9603 39.2925 9.49835 42 9.49835C42.0727 9.49835 42.1454 9.49999 42.2181 9.50344C44.471 9.59138 46.5516 11.033 47.6856 13.313L72.9837 64.1034Z" fill="#FFD764"/>
<path d="M42 58.5996V67.0503C44.3341 67.0503 46.2254 65.159 46.2254 62.8249C46.2254 60.4909 44.3341 58.5996 42 58.5996Z" fill="#3B4145"/>
<path d="M42 58.5996C42.4664 58.5996 42.8451 60.4909 42.8451 62.825C42.8451 65.1592 42.4664 67.0505 42 67.0505C39.6658 67.0505 37.7745 65.1592 37.7745 62.825C37.7745 60.4909 39.6658 58.5996 42 58.5996Z" fill="#525A61"/>
<path d="M42 22.2622V53.5299C44.3341 53.5299 46.2254 51.637 46.2254 49.3045V26.4877C46.2254 24.1536 44.3341 22.2622 42 22.2622Z" fill="#3B4145"/>
<path d="M42 22.2622C42.4664 22.2622 42.8451 24.1536 42.8451 26.4877V49.3045C42.8451 51.6368 42.4664 53.5299 42 53.5299C39.6658 53.5299 37.7745 51.637 37.7745 49.3045V26.4877C37.7745 24.1536 39.6658 22.2622 42 22.2622Z" fill="#525A61"/>
</g>
<defs>
<clipPath id="clip0">
<rect width="84" height="84" fill="white" transform="translate(0 0.5)"/>
</clipPath>
</defs>
</svg>
