<svg width="60" height="60" viewBox="0 0 60 60" fill="none" xmlns="http://www.w3.org/2000/svg">
<path d="M49.6875 57.1875V2.8125H2.8125V53.4375C2.8125 55.5086 4.49143 57.1875 6.5625 57.1875H49.6875Z" fill="#949DFF"/>
<path d="M49.6875 53.4463V17.8125C43.5571 31.7225 25.3405 42.3243 2.8125 44.5673V53.4463C2.8125 55.5173 4.49143 57.1963 6.5625 57.1963H45.2232C47.6888 57.1963 49.6875 55.5173 49.6875 53.4463Z" fill="#949DFF"/>
<path d="M6.5625 57.1875C8.63357 57.1875 10.3125 55.5086 10.3125 53.4375V49.6875H57.1875V53.4375C57.1875 55.5086 55.5086 57.1875 53.4375 57.1875H6.5625Z" fill="#949DFF"/>
<path d="M18.75 7.5H33.75V12.1875H18.75V7.5Z" fill="#F5A947"/>
<path d="M18.75 40.3125H33.75V45H18.75V40.3125Z" fill="#F5A947"/>
<path d="M35.5416 27.438C35.591 27.048 35.625 26.6533 35.625 26.25C35.625 25.8467 35.591 25.452 35.5416 25.062L33.4614 24.2087C33.3006 23.6398 33.0778 23.0979 32.7947 22.5926L33.6602 20.5219C33.1726 19.8921 32.608 19.3275 31.9782 18.8399L29.9075 19.7053C29.4022 19.4223 28.8602 19.1994 28.2913 19.0386L27.438 16.9584C27.048 16.909 26.6533 16.875 26.25 16.875C25.8467 16.875 25.452 16.909 25.062 16.9584L24.2087 19.0386C23.6398 19.1994 23.0979 19.4223 22.5926 19.7053L20.5219 18.8398C19.8921 19.3274 19.3275 19.8919 18.8399 20.5218L19.7053 22.5926C19.4223 23.0979 19.1994 23.6398 19.0386 24.2087L16.9584 25.062C16.909 25.452 16.875 25.8467 16.875 26.25C16.875 26.6533 16.909 27.0481 16.9584 27.438L19.0386 28.2912C19.1994 28.8601 19.4223 29.4021 19.7053 29.9074L18.8398 31.9781C19.3274 32.6079 19.892 33.1724 20.5218 33.6601L22.5925 32.7947C23.0978 33.0777 23.6398 33.3005 24.2087 33.4614L25.062 35.5416C25.452 35.591 25.8467 35.625 26.25 35.625C26.6533 35.625 27.048 35.591 27.438 35.5416L28.2913 33.4614C28.8602 33.3006 29.4021 33.0778 29.9074 32.7947L31.9781 33.6602C32.6079 33.1725 33.1725 32.608 33.6601 31.9782L32.7947 29.9074C33.0777 29.4021 33.3006 28.8602 33.4614 28.2913L35.5416 27.438ZM26.25 30C24.1789 30 22.5 28.321 22.5 26.25C22.5 24.1789 24.1789 22.5 26.25 22.5C28.3211 22.5 30 24.1789 30 26.25C30 28.321 28.3211 30 26.25 30Z" fill="#E34E4B"/>
<path d="M57.1875 48.75H50.625V2.8125C50.625 2.29477 50.2057 1.875 49.6875 1.875H2.8125C2.29432 1.875 1.875 2.29477 1.875 2.8125V53.4375C1.875 56.022 3.97796 58.125 6.5625 58.125H53.4375C56.022 58.125 58.125 56.022 58.125 53.4375V49.6875C58.125 49.1698 57.7057 48.75 57.1875 48.75ZM9.375 49.6875V53.4375C9.375 54.9884 8.11341 56.25 6.5625 56.25C5.01159 56.25 3.75 54.9884 3.75 53.4375V3.75H48.75V48.75H10.3125C9.79432 48.75 9.375 49.1698 9.375 49.6875ZM56.25 53.4375C56.25 54.9884 54.9884 56.25 53.4375 56.25H10.3107C10.9003 55.4658 11.25 54.4917 11.25 53.4375V50.625H56.25V53.4375Z" fill="#0D0F23"/>
<path d="M21.5625 26.25C21.5625 28.8345 23.6655 30.9375 26.25 30.9375C28.8345 30.9375 30.9375 28.8345 30.9375 26.25C30.9375 23.6655 28.8345 21.5625 26.25 21.5625C23.6655 21.5625 21.5625 23.6655 21.5625 26.25ZM29.0625 26.25C29.0625 27.8009 27.8009 29.0625 26.25 29.0625C24.6991 29.0625 23.4375 27.8009 23.4375 26.25C23.4375 24.6991 24.6991 23.4375 26.25 23.4375C27.8009 23.4375 29.0625 24.6991 29.0625 26.25Z" fill="#0D0F23"/>
<path d="M18.75 13.125H25.3125V15.9906C25.1906 16.0028 25.0755 16.0114 24.9435 16.0281C24.6085 16.0707 24.3228 16.29 24.1946 16.6026L23.508 18.2753C23.1784 18.3884 22.858 18.5207 22.5485 18.6708L20.8832 17.9745C20.5728 17.845 20.2139 17.8908 19.9475 18.0986C19.2563 18.6342 18.6346 19.2558 18.0991 19.947C17.8922 20.2139 17.8445 20.5714 17.9745 20.8832L18.6713 22.5481C18.5211 22.8571 18.3884 23.178 18.2748 23.5084L16.6022 24.1946C16.29 24.3228 16.0712 24.6094 16.0281 24.944C15.9659 25.4329 15.9375 25.8476 15.9375 26.25C15.9375 26.6524 15.9659 27.0671 16.0281 27.556C16.0712 27.8906 16.29 28.1772 16.6022 28.3054L18.2748 28.9916C18.3884 29.3216 18.5202 29.6425 18.6703 29.9515L17.9745 31.6164C17.8445 31.9281 17.8922 32.2852 18.0991 32.552C18.6346 33.2442 19.2563 33.8663 19.9475 34.4014C20.2139 34.6079 20.5728 34.6546 20.8832 34.5255L22.5485 33.8292C22.858 33.9794 23.1784 34.1116 23.508 34.2247L24.1946 35.8974C24.3228 36.21 24.6085 36.4293 24.9435 36.4719C25.0751 36.4885 25.1905 36.4968 25.3125 36.5087V39.375H18.75C18.2318 39.375 17.8125 39.7948 17.8125 40.3125V45C17.8125 45.5177 18.2318 45.9375 18.75 45.9375H33.75C34.2682 45.9375 34.6875 45.5177 34.6875 45V40.3125C34.6875 39.7948 34.2682 39.375 33.75 39.375H27.1875V36.5087C27.3096 36.4968 27.4249 36.4885 27.5565 36.4719C27.8915 36.4293 28.1772 36.21 28.3054 35.8974L28.992 34.2247C29.3225 34.1116 29.6429 33.9793 29.9515 33.8292L31.6168 34.5255C31.9263 34.6545 32.2852 34.6079 32.5525 34.4014C33.2437 33.8663 33.8654 33.2442 34.4009 32.552C34.6078 32.2852 34.6555 31.9276 34.5255 31.6164L33.8287 29.9515C33.9789 29.6429 34.1116 29.322 34.2252 28.9915L35.8978 28.3054C36.21 28.1772 36.4288 27.8906 36.4719 27.556C36.5341 27.0671 36.5625 26.6524 36.5625 26.25C36.5625 25.8476 36.5341 25.4329 36.4719 24.944C36.4288 24.6094 36.21 24.3228 35.8978 24.1946L34.2252 23.5084C34.1116 23.1784 33.9798 22.8575 33.8297 22.5485L34.5255 20.8836C34.6555 20.5719 34.6078 20.2148 34.4009 19.948C33.8654 19.2558 33.2437 18.6337 32.5525 18.0986C32.2852 17.8908 31.9263 17.845 31.6168 17.9745L29.9515 18.6708C29.642 18.5206 29.3216 18.3884 28.992 18.2753L28.3054 16.6026C28.1772 16.29 27.8915 16.0707 27.5565 16.0281C27.4245 16.0114 27.3094 16.0028 27.1875 15.9906V13.125H33.75C34.2682 13.125 34.6875 12.7052 34.6875 12.1875V7.5C34.6875 6.98227 34.2682 6.5625 33.75 6.5625H18.75C18.2318 6.5625 17.8125 6.98227 17.8125 7.5V12.1875C17.8125 12.7052 18.2318 13.125 18.75 13.125ZM32.8125 44.0625H19.6875V41.25H32.8125V44.0625ZM28.0362 19.9402C28.5361 20.0821 29.0112 20.2785 29.4498 20.5234C29.7015 20.6639 30.0027 20.6804 30.2692 20.5705L31.8182 19.9228C32.0865 20.1594 32.3401 20.4135 32.5772 20.6822L31.9299 22.2308C31.8191 22.4968 31.8365 22.7989 31.9766 23.0502C32.222 23.4874 32.4179 23.963 32.5598 24.4643C32.6376 24.7412 32.839 24.9669 33.1055 25.0763L34.6664 25.7167C34.6811 25.9044 34.6875 26.0797 34.6875 26.25C34.6875 26.4203 34.6811 26.5956 34.6664 26.7833L33.1055 27.4237C32.8391 27.5331 32.6376 27.7588 32.5598 28.0357C32.417 28.5375 32.2211 29.0131 31.9766 29.4484C31.8356 29.7002 31.8182 30.0032 31.929 30.2692L32.5772 31.8178C32.3401 32.087 32.0865 32.3406 31.8182 32.5772L30.2692 31.9295C30.0028 31.8192 29.7006 31.8361 29.4489 31.9771C29.0131 32.2215 28.5379 32.4175 28.0362 32.5598C27.7588 32.6381 27.5336 32.8395 27.4246 33.1059L26.7838 34.6669C26.4084 34.6944 26.0916 34.6944 25.7163 34.6669L25.0754 33.1059C24.9664 32.8395 24.7412 32.6381 24.4638 32.5598C23.964 32.4179 23.4888 32.2215 23.0503 31.9766C22.7985 31.8361 22.4973 31.8192 22.2309 31.9295L20.6818 32.5772C20.4135 32.3406 20.1599 32.0865 19.9228 31.8178L20.5701 30.2692C20.6809 30.0032 20.6635 29.7011 20.5234 29.4498C20.278 29.0126 20.0821 28.537 19.9402 28.0358C19.8624 27.7588 19.661 27.5331 19.3946 27.4237L17.8336 26.7833C17.8189 26.5956 17.8125 26.4203 17.8125 26.25C17.8125 26.0797 17.8189 25.9044 17.8336 25.7167L19.3945 25.0763C19.6609 24.9669 19.8624 24.7412 19.9402 24.4643C20.083 23.9625 20.2789 23.4869 20.5234 23.0516C20.6644 22.7998 20.6818 22.4972 20.571 22.2308L19.9228 20.6818C20.1599 20.413 20.4135 20.1594 20.6818 19.9228L22.2308 20.5705C22.4972 20.6804 22.7985 20.6639 23.0502 20.5234C23.4888 20.2785 23.9639 20.0821 24.4638 19.9402C24.7412 19.8619 24.9664 19.6605 25.0754 19.3941L25.7162 17.8331C26.0916 17.8056 26.4084 17.8056 26.7837 17.8331L27.4246 19.3941C27.5336 19.6605 27.7588 19.8619 28.0362 19.9402ZM19.6875 8.4375H32.8125V11.25H19.6875V8.4375Z" fill="#0D0F23"/>
<path d="M37.1311 18.9102C38.5887 21.0613 39.3751 23.5946 39.3751 26.2502C39.3751 29.7557 38.01 33.0516 35.5308 35.5309L36.8564 36.8566C39.69 34.0235 41.2501 30.2565 41.2501 26.2502C41.2501 22.9542 40.1791 19.8294 38.2268 17.2441H40.1716V15.3691H36.1936C35.6754 15.3691 35.2561 15.7889 35.2561 16.3066V20.2842H37.1311V18.9102Z" fill="#0D0F23"/>
<path d="M12.3285 35.255V37.13H16.3065C16.8246 37.13 17.244 36.7102 17.244 36.1925V32.215H15.369V33.5889C13.9114 31.4379 13.125 28.9044 13.125 26.249C13.125 22.7434 14.49 19.4475 16.9693 16.9683L15.6436 15.6426C12.8101 18.4757 11.25 22.2426 11.25 26.249C11.25 29.545 12.321 32.6698 14.2732 35.255H12.3285Z" fill="#0D0F23"/>
</svg>
