<svg width="60" height="60" viewBox="0 0 60 60" fill="none" xmlns="http://www.w3.org/2000/svg">
<path d="M2.8125 2.8125H10.3125V10.3125H2.8125V2.8125Z" fill="#949DFF"/>
<path d="M2.8125 26.25H10.3125V33.75H2.8125V26.25Z" fill="#949DFF"/>
<path d="M26.25 14.0625H33.75V21.5625H26.25V14.0625Z" fill="#949DFF"/>
<path d="M26.25 37.5H33.75V45H26.25V37.5Z" fill="#949DFF"/>
<path d="M2.8125 49.6875H10.3125V57.1875H2.8125V49.6875Z" fill="#949DFF"/>
<path d="M52.5 20.625V13.125H51.5625L44.0625 16.875L51.5625 20.625H52.5Z" fill="#E34E4B"/>
<path d="M48.6031 19.1454L51.5624 20.625H52.4999V13.125H52.3308C51.8699 15.6523 50.4921 17.8023 48.6031 19.1454Z" fill="#DE4542"/>
<path d="M52.5 34.6875C55.0888 34.6875 57.1875 32.5888 57.1875 30C57.1875 27.4112 55.0888 25.3125 52.5 25.3125C49.9112 25.3125 47.8125 27.4112 47.8125 30C47.8125 32.5888 49.9112 34.6875 52.5 34.6875Z" fill="#949DFF"/>
<path d="M56.1138 27.0488C56.1957 27.396 56.25 27.7536 56.25 28.1258C56.25 30.7146 54.1513 32.8133 51.5625 32.8133C50.0989 32.8133 48.8084 32.1286 47.9487 31.0777C48.4371 33.1451 50.2834 34.6883 52.5 34.6883C55.0888 34.6883 57.1875 32.5896 57.1875 30.0008C57.1875 28.8755 56.7746 27.8568 56.1138 27.0488Z" fill="#949DFF"/>
<path d="M10.3125 3.13086C8.86767 5.8363 6.09205 7.97886 2.8125 8.36923V10.3119H10.3125V3.13086Z" fill="#949DFF"/>
<path d="M10.3125 26.5684C8.86767 29.2738 6.09205 31.4164 2.8125 31.8067V33.7494H10.3125V26.5684Z" fill="#949DFF"/>
<path d="M10.3125 50.0059C8.86767 52.7113 6.09205 54.8539 2.8125 55.2442V57.1869H10.3125V50.0059Z" fill="#949DFF"/>
<path d="M33.75 14.3809C32.3052 17.0863 29.5296 19.2289 26.25 19.6192V21.5619H33.75V14.3809Z" fill="#949DFF"/>
<path d="M33.75 37.8184C32.3052 40.5238 29.5296 42.6664 26.25 43.0567V44.9994H33.75V37.8184Z" fill="#949DFF"/>
<path d="M2.8125 58.125H10.3125C10.8302 58.125 11.25 57.7052 11.25 57.1875V54.375H17.8125C18.3302 54.375 18.75 53.9552 18.75 53.4375V42.1875H25.3125V45C25.3125 45.5177 25.7323 45.9375 26.25 45.9375H33.75C34.2677 45.9375 34.6875 45.5177 34.6875 45V42.1875H39.375C39.8927 42.1875 40.3125 41.7677 40.3125 41.25V30.9375H46.9673C47.1542 32.0511 47.665 33.12 48.5225 33.9775C49.6188 35.0743 51.0594 35.6227 52.5 35.6227C53.9406 35.6227 55.3812 35.0743 56.4775 33.9775C58.6707 31.7844 58.6707 28.2156 56.4775 26.0225L55.1518 27.3482C56.6139 28.8103 56.6139 31.1897 55.1518 32.6518C53.7355 34.0681 51.2645 34.0681 49.8482 32.6518C48.3861 31.1897 48.3861 28.8103 49.8482 27.3482L48.5225 26.0225C47.665 26.88 47.1542 27.9489 46.9673 29.0625H40.3125V17.8125C40.3125 17.2948 39.8927 16.875 39.375 16.875H34.6875V14.0625C34.6875 13.5448 34.2677 13.125 33.75 13.125H26.25C25.7323 13.125 25.3125 13.5448 25.3125 14.0625V16.875H18.75V6.5625C18.75 6.04477 18.3302 5.625 17.8125 5.625H11.25V2.8125C11.25 2.29477 10.8302 1.875 10.3125 1.875H2.8125C2.29477 1.875 1.875 2.29477 1.875 2.8125V10.3125C1.875 10.8302 2.29477 11.25 2.8125 11.25H10.3125C10.8302 11.25 11.25 10.8302 11.25 10.3125V7.5H16.875V29.0625H11.25V26.25C11.25 25.7323 10.8302 25.3125 10.3125 25.3125H2.8125C2.29477 25.3125 1.875 25.7323 1.875 26.25V33.75C1.875 34.2677 2.29477 34.6875 2.8125 34.6875H10.3125C10.8302 34.6875 11.25 34.2677 11.25 33.75V30.9375H16.875V52.5H11.25V49.6875C11.25 49.1698 10.8302 48.75 10.3125 48.75H2.8125C2.29477 48.75 1.875 49.1698 1.875 49.6875V57.1875C1.875 57.7052 2.29477 58.125 2.8125 58.125ZM9.375 9.375H3.75V3.75H9.375V9.375ZM9.375 32.8125H3.75V27.1875H9.375V32.8125ZM32.8125 44.0625H27.1875V38.4375H32.8125V44.0625ZM27.1875 15H32.8125V20.625H27.1875V15ZM25.3125 18.75V21.5625C25.3125 22.0802 25.7323 22.5 26.25 22.5H33.75C34.2677 22.5 34.6875 22.0802 34.6875 21.5625V18.75H38.4375V40.3125H34.6875V37.5C34.6875 36.9823 34.2677 36.5625 33.75 36.5625H26.25C25.7323 36.5625 25.3125 36.9823 25.3125 37.5V40.3125H18.75V18.75H25.3125ZM3.75 50.625H9.375V56.25H3.75V50.625Z" fill="#0D0F23"/>
<path d="M43.6432 17.7136L51.1432 21.4636C51.2732 21.5286 51.4169 21.5625 51.5625 21.5625V30H53.4375V13.125C53.4375 12.6073 53.0177 12.1875 52.5 12.1875H51.5625C51.4169 12.1875 51.2732 12.2214 51.1432 12.2864L43.6432 16.0364C43.3255 16.1952 43.125 16.5198 43.125 16.875C43.125 17.2302 43.3255 17.5548 43.6432 17.7136ZM51.5625 14.1733V19.5767L46.1586 16.875L51.5625 14.1733Z" fill="#0D0F23"/>
</svg>
