<svg width="60" height="60" viewBox="0 0 60 60" fill="none" xmlns="http://www.w3.org/2000/svg">
<path d="M53.4375 49.6875H6.5625C4.49143 49.6875 2.8125 48.0086 2.8125 45.9375V6.5625C2.8125 4.49143 4.49143 2.8125 6.5625 2.8125H53.4375C55.5086 2.8125 57.1875 4.49143 57.1875 6.5625V45.9375C57.1875 48.0086 55.5086 49.6875 53.4375 49.6875Z" fill="#949DFF"/>
<path d="M57.1876 45.9374V23.7461C48.3769 35.0742 27.9384 43.6596 2.83325 46.1424C2.94181 48.1161 4.56171 49.6874 6.5626 49.6874H53.4376C55.5087 49.6874 57.1876 48.0084 57.1876 45.9374Z" fill="#949DFF"/>
<path d="M53.4375 1.875H6.5625C3.97796 1.875 1.875 3.97796 1.875 6.5625V45.9375C1.875 48.522 3.97796 50.625 6.5625 50.625H23.9868L20.8997 53.7122C20.7239 53.8879 20.625 54.1264 20.625 54.375V58.125H22.5V54.7632L26.6382 50.625H29.0625V58.125H30.9375V50.625H33.3618L37.5 54.7632V58.125H39.375V54.375C39.375 54.1264 39.2761 53.8879 39.1003 53.7122L36.0132 50.625H53.4375C56.022 50.625 58.125 48.522 58.125 45.9375V6.5625C58.125 3.97796 56.022 1.875 53.4375 1.875ZM56.25 45.9375C56.25 47.4884 54.9884 48.75 53.4375 48.75H6.5625C5.01159 48.75 3.75 47.4884 3.75 45.9375V6.5625C3.75 5.01159 5.01159 3.75 6.5625 3.75H53.4375C54.9884 3.75 56.25 5.01159 56.25 6.5625V45.9375Z" fill="#0D0F23"/>
<path d="M12.462 38.7109L10.3124 40.8606L8.16272 38.7109L6.83704 40.0366L8.9867 42.1863L6.83704 44.3359L8.16272 45.6616L10.3124 43.512L12.462 45.6616L13.7877 44.3359L11.6381 42.1863L13.7877 40.0366L12.462 38.7109Z" fill="#0D0F23"/>
<path d="M51.8373 6.83594L49.6876 8.9856L47.538 6.83594L46.2123 8.16162L48.3619 10.3113L46.2123 12.4609L47.538 13.7866L49.6876 11.637L51.8373 13.7866L53.163 12.4609L51.0133 10.3113L53.163 8.16162L51.8373 6.83594Z" fill="#0D0F23"/>
<path d="M25.8104 25.3125H29.5192V27.1875H25.8104V25.3125Z" fill="#0D0F23"/>
<path d="M12.7354 12.9701L11.5059 11.5547C10.4622 12.4615 9.63268 13.6137 9.10718 14.8863L10.8403 15.6022C11.255 14.597 11.9105 13.687 12.7354 12.9701Z" fill="#0D0F23"/>
<path d="M17.1931 9.37695C15.7892 9.40076 14.4502 9.74133 13.2129 10.39L14.0836 12.0507C15.0591 11.539 16.116 11.2703 17.2243 11.252L17.1931 9.37695Z" fill="#0D0F23"/>
<path d="M30.7751 41.25H34.4839V43.125H30.7751V41.25Z" fill="#0D0F23"/>
<path d="M30.1875 9.375H33.8963V11.25H30.1875V9.375Z" fill="#0D0F23"/>
<path d="M20.248 25.3125H23.9568V27.1875H20.248V25.3125Z" fill="#0D0F23"/>
<path d="M19.65 41.25H23.3588V43.125H19.65V41.25Z" fill="#0D0F23"/>
<path d="M14.0878 41.25H17.7965V43.125H14.0878V41.25Z" fill="#0D0F23"/>
<path d="M24.6251 9.375H28.3339V11.25H24.6251V9.375Z" fill="#0D0F23"/>
<path d="M25.2131 41.25H28.9219V43.125H25.2131V41.25Z" fill="#0D0F23"/>
<path d="M31.3724 25.3125H35.0812V27.1875H31.3724V25.3125Z" fill="#0D0F23"/>
<path d="M15.0416 24.9277L14.4282 26.6993C15.3648 27.0234 16.3453 27.1877 17.3437 27.1877H18.3938V25.3127H17.3437C16.5545 25.3127 15.78 25.1832 15.0416 24.9277Z" fill="#0D0F23"/>
<path d="M9.70227 22.8575C10.4123 24.0399 11.4024 25.0571 12.5665 25.7982L13.5736 24.2171C12.6535 23.6307 11.8707 22.8269 11.3099 21.8926L9.70227 22.8575Z" fill="#0D0F23"/>
<path d="M19.0631 9.375H22.7719V11.25H19.0631V9.375Z" fill="#0D0F23"/>
<path d="M10.6393 20.4069C10.4224 19.7221 10.3125 19.0075 10.3125 18.282C10.3125 17.9089 10.3418 17.5358 10.3995 17.1728L8.54736 16.8789C8.47458 17.3385 8.4375 17.8105 8.4375 18.282C8.4375 19.1998 8.57712 20.1052 8.85223 20.9736L10.6393 20.4069Z" fill="#0D0F23"/>
<path d="M46.642 40.011L47.7067 41.5546C48.8429 40.7709 49.7955 39.7185 50.4615 38.5109L48.8191 37.6055C48.2931 38.5599 47.5406 39.3917 46.642 40.011Z" fill="#0D0F23"/>
<path d="M50.7619 30.5251C50.1906 29.2722 49.3195 28.1511 48.2433 27.2832L47.0659 28.7426C47.9169 29.4287 48.6049 30.3141 49.0563 31.3033L50.7619 30.5251Z" fill="#0D0F23"/>
<path d="M42.4978 25.3125V27.1875H42.6562C43.7177 27.1875 44.7367 27.4178 45.6852 27.8714L46.4945 26.1804C45.2915 25.6045 44.0002 25.3125 42.6562 25.3125H42.4978Z" fill="#0D0F23"/>
<path d="M49.5556 32.8549C49.6431 33.3007 49.6875 33.7598 49.6875 34.219C49.6875 34.8571 49.6023 35.4884 49.4343 36.0958L51.2416 36.5957C51.4544 35.8257 51.5625 35.026 51.5625 34.219C51.5625 33.639 51.5062 33.0586 51.3958 32.4941L49.5556 32.8549Z" fill="#0D0F23"/>
<path d="M35.7507 9.375H39.4585V11.25H35.7507V9.375Z" fill="#0D0F23"/>
<path d="M36.3374 41.25H40.0462V43.125H36.3374V41.25Z" fill="#0D0F23"/>
<path d="M42.6563 41.2501H41.9005V43.1251H42.6563C43.7673 43.1251 44.8522 42.9228 45.8808 42.5231L45.2014 40.7754C44.3907 41.0903 43.5343 41.2501 42.6563 41.2501Z" fill="#0D0F23"/>
<path d="M36.9355 25.3125H40.6443V27.1875H36.9355V25.3125Z" fill="#0D0F23"/>
<path d="M41.3127 9.375H45.0215V11.25H41.3127V9.375Z" fill="#0D0F23"/>
</svg>
