<svg width="60" height="60" viewBox="0 0 60 60" fill="none" xmlns="http://www.w3.org/2000/svg">
<g clip-path="url(#clip0)">
<path d="M36.807 7.33323C36.807 8.57 37.3558 9.82459 38.2103 10.5922C39.1957 10.4215 39.9487 8.68625 39.9487 8.68625H42.0432C42.0432 9.73348 41.4944 10.8718 40.6399 11.6384C40.7593 11.6489 40.8744 11.5975 40.9959 11.5975C43.3061 11.5975 45.1848 9.68112 45.1848 7.36988C45.1848 5.05864 43.3061 3.16211 40.9959 3.16211C38.6857 3.16316 36.807 5.02199 36.807 7.33323Z" fill="#949DFF"/>
<path d="M4.34277 19.8984C4.34277 22.2086 6.2215 24.0873 8.53169 24.0873C8.65317 24.0873 8.76837 24.215 8.88775 24.2046C8.03321 23.437 7.48446 22.2986 7.48446 21.2514H9.57893C9.57893 21.2514 10.3319 22.9866 11.3173 23.1563C12.1719 22.3887 12.7206 21.2105 12.7206 19.9738C12.7206 17.6636 10.8419 15.7461 8.53169 15.7461C6.2215 15.7471 4.34277 17.5871 4.34277 19.8984Z" fill="#E34E4B"/>
<path d="M53.5627 3.78481L55.4876 3.14286L53.5627 2.50195V3.78481Z" fill="#E34E4B"/>
<path d="M42.5909 16.7578H41.4955L42.0432 18.1265L42.5909 16.7578Z" fill="#949DFF"/>
<path d="M19.0041 40.1027H13.7679C13.1888 40.1027 12.7207 39.3278 12.7207 38.7497V33.5135C12.7207 33.2098 12.8527 32.9219 13.082 32.7218C13.3114 32.5239 13.6161 32.4318 13.9167 32.4768L20.9226 33.4779L27.9474 29.9666L27.6301 29.4901L26.9945 28.5371L20.465 31.3353C20.2304 31.4358 19.9644 31.6023 19.7215 31.5196L13.5983 29.6304H10.6263V36.961H8.53179V29.6304H5.3901C3.65798 29.6304 2.24841 30.7332 2.24841 32.4663V43.2444H4.34287V33.8193H6.43733V57.9056H9.57902V43.9858C9.57902 43.4067 10.0471 43.2444 10.6263 43.2444H17.9569C18.536 43.2444 19.0041 43.4067 19.0041 43.9858V51.6222H22.1458V42.9386C22.1458 41.2054 20.7362 40.1027 19.0041 40.1027Z" fill="#E34E4B"/>
<path d="M53.5626 15.7116C53.5626 16.2897 53.0945 17.0646 52.5154 17.0646H44.8465L43.0159 21.4892C42.8567 21.8871 42.4724 22.0714 42.043 22.0714C41.6147 22.0714 41.2304 21.9259 41.0702 21.5279L39.2396 17.0646H37.186L31.3613 21.7656L28.5903 27.2322L29.4763 28.5224L32.7939 23.5271C32.8588 23.4276 32.9426 23.3313 33.0369 23.2611L37.2258 20.1142C37.5421 19.8764 37.9683 19.8366 38.3222 20.0126C38.6773 20.1906 38.9014 20.5509 38.9014 20.9478V45.3398H42.043V39.7979V31.4201C42.043 30.8409 42.5112 30.6786 43.0903 30.6786H50.4209C51 30.6786 51.4681 30.8409 51.4681 31.4201V39.0565H54.6098V30.3728C54.6098 28.6397 53.2002 27.5369 51.4681 27.5369H46.232C45.6529 27.5369 45.1847 26.762 45.1847 26.1839V19.9005C45.1847 19.3214 45.6529 19.1591 46.232 19.1591H52.5154C54.2475 19.1591 55.657 17.4437 55.657 15.7116V10.7812H53.5626V15.7116Z" fill="#949DFF"/>
<path d="M40.9959 13.6156C44.4612 13.6156 47.2793 10.7975 47.2793 7.33221C47.2793 3.86692 44.4612 1.04883 40.9959 1.04883C37.5306 1.04883 34.7125 3.86692 34.7125 7.33221C34.7125 10.7975 37.5306 13.6156 40.9959 13.6156ZM40.9959 3.14224C43.3061 3.14224 45.1848 5.02097 45.1848 7.33116C45.1848 9.64135 43.3061 11.5201 40.9959 11.5201C40.8734 11.5201 40.7592 11.6478 40.6398 11.6374C41.4944 10.8708 42.0431 9.73246 42.0431 8.68523H39.9487C39.9487 8.68523 39.1957 10.4205 38.2103 10.5901C37.3557 9.82357 36.807 8.64543 36.807 7.40866C36.807 5.09847 38.6857 3.14224 40.9959 3.14224Z" fill="black"/>
<path d="M8.53179 26.182C11.9971 26.182 14.8152 23.3639 14.8152 19.8986C14.8152 16.4333 11.9971 13.6152 8.53179 13.6152C5.06651 13.6152 2.24841 16.4333 2.24841 19.8986C2.24841 23.3639 5.06651 26.182 8.53179 26.182ZM8.53179 15.7097C10.842 15.7097 12.7207 17.5884 12.7207 19.8986C12.7207 21.1354 12.172 22.39 11.3174 23.1576C10.332 22.9869 9.57902 21.2516 9.57902 21.2516H7.48456C7.48456 22.2989 8.03331 23.4372 8.88785 24.2038C8.76847 24.2143 8.65327 24.1629 8.53179 24.1629C6.2216 24.1629 4.34287 22.2465 4.34287 19.9353C4.34287 17.624 6.2216 15.7097 8.53179 15.7097Z" fill="black"/>
<path d="M59.1297 2.15014L52.8464 0.0556816C52.5249 -0.0542776 52.1761 0.00122561 51.9028 0.199152C51.6295 0.397079 51.4682 0.712295 51.4682 1.04846V9.4263V14.9693H36.807C36.5619 14.9693 36.3242 14.9023 36.1357 15.0583L29.8523 20.218C29.7424 20.3112 29.6513 20.3877 29.5863 20.5165L26.6164 26.4385L20.0042 29.2619L14.0988 27.4428C13.992 27.4062 13.88 27.536 13.7679 27.536H5.39008C2.50287 27.536 0.153931 29.5792 0.153931 32.4664V43.9859C0.153931 44.564 0.622043 45.339 1.20116 45.339H4.34285V57.9057H0.153931V60.0002H5.39008H10.6262H14.8152C15.3943 60.0002 15.8624 59.2252 15.8624 58.6472V53.7168H17.9568H23.193H30.5236C31.1027 53.7168 31.5708 52.9418 31.5708 52.3638V47.4334H37.8542H43.0904C43.6695 47.4334 44.1376 46.6585 44.1376 46.0804V41.15H50.421H55.6571H58.7988V39.0556H56.7044V30.3719C56.7044 27.4847 54.3554 25.4416 51.4682 25.4416H47.2793V21.2527H52.5154C55.4026 21.2527 57.7516 18.5969 57.7516 15.7107V9.42734C57.7516 8.84823 57.2835 8.68591 56.7044 8.68591H53.5627V5.99243L59.1297 4.13674C59.5581 3.99431 59.846 3.59427 59.846 3.14292C59.846 2.69156 59.5581 2.29257 59.1297 2.15014ZM42.5908 16.758L42.0431 18.1267L41.4954 16.7569H42.5908V16.758ZM14.8152 51.6223C14.236 51.6223 13.7679 51.7847 13.7679 52.3638V57.9057H11.6735V45.339H16.9096V51.6223H14.8152ZM19.0041 51.6223V43.9859C19.0041 43.4068 18.536 43.2445 17.9568 43.2445H10.6262C10.0471 43.2445 9.579 43.4068 9.579 43.9859V57.9057H6.43731V33.8194H4.34285V43.2445H2.24839V32.4664C2.24839 30.7332 3.65796 29.6305 5.39008 29.6305H8.53177V36.9611H10.6262V29.6305H13.5983L19.7204 31.5176C19.9633 31.6003 20.2293 31.5103 20.4639 31.4108L26.9934 28.5749L27.6291 29.509L27.9464 29.9761L20.9216 33.4833L13.9156 32.48C13.615 32.435 13.3103 32.5261 13.0809 32.724C12.8526 32.922 12.7207 33.2089 12.7207 33.5136V38.7498C12.7207 39.3279 13.1888 40.1028 13.7679 40.1028H19.0041C20.7362 40.1028 22.1458 41.2055 22.1458 42.9387V51.6223H19.0041ZM30.5236 45.339C29.9445 45.339 29.4764 45.5013 29.4764 46.0804V51.6223H24.2402V42.9387C24.2402 40.0515 21.8913 38.0084 19.0041 38.0084H14.8152V34.7211L20.9498 35.5976C21.1614 35.6269 21.375 35.5913 21.5666 35.4971L29.9445 31.3082C30.0974 31.2317 30.2178 31.1155 30.3152 30.9804C30.3236 30.9689 30.3393 30.9647 30.3477 30.9532L34.4371 24.8195L36.807 23.0413V45.339H30.5236ZM49.3737 39.0556H44.1376V32.7722H49.3737V39.0556ZM55.6571 15.7107C55.6571 17.4428 54.2476 19.1582 52.5154 19.1582H46.2321C45.6529 19.1582 45.1848 19.3205 45.1848 19.8996V26.183C45.1848 26.7611 45.6529 27.536 46.2321 27.536H51.4682C53.2003 27.536 54.6099 28.6388 54.6099 30.3719V39.0556H51.4682V31.4192C51.4682 30.8401 51.0001 30.6777 50.421 30.6777H43.0904C42.5112 30.6777 42.0431 30.8401 42.0431 31.4192V39.797V45.339H38.9014V20.9469C38.9014 20.55 38.6773 20.1876 38.3223 20.0096C37.9684 19.8337 37.5421 19.8703 37.2259 20.1091L33.037 23.2508C32.9417 23.3209 32.8589 23.4079 32.794 23.5074L29.4764 28.4838L28.5904 27.1538L31.3614 21.7637L37.1861 17.0637H39.2397L41.0703 21.4883C41.2294 21.8862 41.6148 22.0706 42.0431 22.0706C42.4715 22.0706 42.8558 21.925 43.016 21.527L44.8466 17.0637H52.5154C53.0946 17.0637 53.5627 16.2888 53.5627 15.7107V10.7804H55.6571V15.7107ZM53.5627 3.78487V2.50201L55.4875 3.14292L53.5627 3.78487Z" fill="black"/>
<path d="M27.3819 5.23828H25.2875V7.33274H27.3819V5.23828Z" fill="black"/>
<path d="M23.193 5.23828H21.0985V7.33274H23.193V5.23828Z" fill="black"/>
<path d="M19.0041 5.23828H16.9097V7.33274H19.0041V5.23828Z" fill="black"/>
</g>
<defs>
<clipPath id="clip0">
<rect width="60" height="60" fill="white"/>
</clipPath>
</defs>
</svg>
