<svg width="60" height="60" viewBox="0 0 60 60" fill="none" xmlns="http://www.w3.org/2000/svg">
<path d="M10.3125 2.8125H57.1875V45.9375H10.3125V2.8125Z" fill="#DED8D0"/>
<path d="M57.1875 26.8711C48.262 34.4878 31.0062 40.1063 10.3125 41.714V45.9385H57.1875V26.8711Z" fill="#C9C4BD"/>
<path d="M11.25 34.6875C13.8388 34.6875 15.9375 32.5888 15.9375 30C15.9375 27.4112 13.8388 25.3125 11.25 25.3125C8.66117 25.3125 6.5625 27.4112 6.5625 30C6.5625 32.5888 8.66117 34.6875 11.25 34.6875Z" fill="#949DFF"/>
<path d="M14.8638 27.0488C14.9458 27.396 15 27.7536 15 28.1258C15 30.7146 12.9013 32.8133 10.3125 32.8133C8.84891 32.8133 7.55836 32.1286 6.69873 31.0777C7.18706 33.1451 9.03339 34.6883 11.25 34.6883C13.8388 34.6883 15.9375 32.5896 15.9375 30.0008C15.9375 28.8755 15.5246 27.8568 14.8638 27.0488Z" fill="#949DFF"/>
<path d="M6.5625 38.4377V57.0656C6.5625 57.1331 6.61716 57.1877 6.68458 57.1877H11.1279C11.1953 57.1877 11.25 57.1331 11.25 57.0656V45.9377V57.0656C11.25 57.1331 11.3047 57.1877 11.3721 57.1877H15.8154C15.8828 57.1877 15.9375 57.1331 15.9375 57.0656V38.5598C15.9375 38.4924 15.9922 38.4377 16.0596 38.4377H22.4494C22.4818 38.4377 22.5129 38.4249 22.5358 38.402L28.9762 31.9615C29.0239 31.9139 29.0239 31.8366 28.9762 31.7889L26.3363 29.149C26.2887 29.1014 26.2114 29.1014 26.1637 29.149L20.6608 34.652C20.6379 34.6749 20.6068 34.6877 20.5744 34.6877H6.5625C4.49143 34.6877 2.8125 36.3667 2.8125 38.4377V45.0002H6.5625V38.4377Z" fill="#949DFF"/>
<path d="M15 19.6875V10.3125L24.375 15L15 19.6875Z" fill="#E34E4B"/>
<path d="M29.0625 19.6875V10.3125L38.4375 15L29.0625 19.6875Z" fill="#E34E4B"/>
<path d="M44.0625 19.6875V10.3125L53.4375 15L44.0625 19.6875Z" fill="#E34E4B"/>
<path d="M10.3125 45.9375H12.1875V57.1875H10.3125V45.9375Z" fill="#949DFF"/>
<path d="M15 16.6225V19.6879L24.375 15.0004L21.2569 13.4414C19.9468 14.9778 17.697 16.1372 15 16.6225Z" fill="#DE4542"/>
<path d="M29.0625 16.6225V19.6879L38.4375 15.0004L35.3194 13.4414C34.0093 14.9778 31.7595 16.1372 29.0625 16.6225Z" fill="#DE4542"/>
<path d="M43.125 16.6225V19.6879L52.5 15.0004L49.3819 13.4414C48.0718 14.9778 45.822 16.1372 43.125 16.6225Z" fill="#DE4542"/>
<path d="M29.0625 31.875L26.25 29.0625L20.625 34.6875H16.3542L6.5625 47.2768V57.1875H11.25H15.9375V38.4375H22.5L29.0625 31.875Z" fill="#949DFF"/>
<path d="M14.5074 20.4847C14.6576 20.5776 14.8288 20.6247 15 20.6247C15.1437 20.6247 15.2866 20.5918 15.4193 20.5259L24.5966 15.9372H28.125V19.6872C28.125 20.0123 28.2935 20.3139 28.5699 20.4847C28.7201 20.5776 28.8913 20.6247 29.0625 20.6247C29.2062 20.6247 29.3491 20.5918 29.4818 20.5259L38.6591 15.9372H43.125V19.6872C43.125 20.0123 43.2935 20.3139 43.5699 20.4847C43.7201 20.5776 43.8913 20.6247 44.0625 20.6247C44.2062 20.6247 44.3491 20.5918 44.4818 20.5259L53.8568 15.8384C54.1745 15.6795 54.375 15.355 54.375 14.9997C54.375 14.6445 54.1745 14.32 53.8568 14.1611L44.4818 9.47362C44.1907 9.32896 43.8464 9.34407 43.5699 9.51482C43.2934 9.68557 43.125 9.98723 43.125 10.3122V14.0622H38.6591L29.4818 9.47362C29.1907 9.32896 28.8464 9.34407 28.5699 9.51482C28.2934 9.68557 28.125 9.98723 28.125 10.3122V14.0622H24.5966L15.4193 9.47362C15.1291 9.32896 14.783 9.34407 14.5074 9.51482C14.231 9.68556 14.0625 9.98723 14.0625 10.3122V19.6872C14.0625 20.0123 14.231 20.3139 14.5074 20.4847ZM45 11.8293L51.3409 14.9997L45 18.1702V11.8293ZM30 11.8293L36.3409 14.9997L30 18.1702V11.8293ZM15.9375 11.8293L22.2784 14.9997L15.9375 18.1702V11.8293Z" fill="#0D0F23"/>
<path d="M57.1875 1.875H10.3125C9.79432 1.875 9.375 2.29477 9.375 2.8125V24.7032C7.19381 25.4778 5.625 27.5564 5.625 30C5.625 31.4414 6.17454 32.7536 7.06919 33.75H6.5625C3.97796 33.75 1.875 35.853 1.875 38.4375V45C1.875 45.5177 2.29432 45.9375 2.8125 45.9375H5.625V57.1875C5.625 57.7052 6.04432 58.125 6.5625 58.125H11.25H15.9375C16.4557 58.125 16.875 57.7052 16.875 57.1875V46.875H57.1875C57.7057 46.875 58.125 46.4552 58.125 45.9375V2.8125C58.125 2.29477 57.7057 1.875 57.1875 1.875ZM7.5 30C7.5 27.9323 9.18183 26.25 11.25 26.25C13.3182 26.25 15 27.9323 15 30C15 32.0677 13.3182 33.75 11.25 33.75C9.18183 33.75 7.5 32.0677 7.5 30ZM15 38.4375V56.25H12.1875V45.9375H10.3125V56.25H7.5V38.4375H5.625V44.0625H3.75V38.4375C3.75 36.8866 5.01159 35.625 6.5625 35.625H20.625C20.874 35.625 21.1121 35.5261 21.2878 35.3503L26.25 30.3882L27.7368 31.875L22.1118 37.5H15.9375C15.4193 37.5 15 37.9198 15 38.4375ZM56.25 45H16.875V39.375H22.5C22.749 39.375 22.9871 39.2761 23.1628 39.1003L29.7253 32.5378C30.0915 32.1716 30.0915 31.5784 29.7253 31.2122L26.9128 28.3997C26.5466 28.0335 25.9534 28.0335 25.5872 28.3997L20.2368 33.75H15.4308C16.3255 32.7536 16.875 31.4414 16.875 30C16.875 26.8982 14.3518 24.375 11.25 24.375V3.75H56.25V45Z" fill="#0D0F23"/>
<path d="M33.75 25.3125H37.5V27.1875H33.75V25.3125Z" fill="#0D0F23"/>
<path d="M39.375 25.3125H52.5V27.1875H39.375V25.3125Z" fill="#0D0F23"/>
<path d="M33.75 30H37.5V31.875H33.75V30Z" fill="#0D0F23"/>
<path d="M39.375 30H52.5V31.875H39.375V30Z" fill="#0D0F23"/>
<path d="M33.75 34.6875H37.5V36.5625H33.75V34.6875Z" fill="#0D0F23"/>
<path d="M39.375 34.6875H52.5V36.5625H39.375V34.6875Z" fill="#0D0F23"/>
<path d="M18.75 41.25H20.625V43.125H18.75V41.25Z" fill="#0D0F23"/>
<path d="M22.5 41.25H24.375V43.125H22.5V41.25Z" fill="#0D0F23"/>
<path d="M26.25 41.25H28.125V43.125H26.25V41.25Z" fill="#0D0F23"/>
<path d="M30 41.25H31.875V43.125H30V41.25Z" fill="#0D0F23"/>
<path d="M33.75 41.25H35.625V43.125H33.75V41.25Z" fill="#0D0F23"/>
<path d="M37.5 41.25H39.375V43.125H37.5V41.25Z" fill="#0D0F23"/>
<path d="M41.25 41.25H43.125V43.125H41.25V41.25Z" fill="#0D0F23"/>
<path d="M45 41.25H46.875V43.125H45V41.25Z" fill="#0D0F23"/>
<path d="M48.75 41.25H50.625V43.125H48.75V41.25Z" fill="#0D0F23"/>
<path d="M52.5 41.25H54.375V43.125H52.5V41.25Z" fill="#0D0F23"/>
</svg>
