<svg width="60" height="60" viewBox="0 0 60 60" fill="none" xmlns="http://www.w3.org/2000/svg">
<path d="M30.0004 10C18.9546 10 10.0007 18.9538 10.0007 29.9997C10.0007 41.0455 18.9546 49.9994 30.0004 49.9994C41.0463 49.9994 50.0001 41.0455 50.0001 29.9997C50.0001 18.9549 41.0462 10 30.0004 10ZM30.0004 31.9996C28.8955 31.9996 28.0005 31.1046 28.0005 29.9997C28.0005 28.8947 28.8955 27.9998 30.0004 27.9998C31.1054 27.9998 32.0003 28.8947 32.0003 29.9997C32.0003 31.1046 31.1054 31.9996 30.0004 31.9996Z" fill="#949DFF"/>
<path d="M29.9993 31.9979C31.1038 31.9979 31.9992 31.1025 31.9992 29.998C31.9992 28.8934 31.1038 27.998 29.9993 27.998C28.8948 27.998 27.9994 28.8934 27.9994 29.998C27.9994 31.1025 28.8948 31.9979 29.9993 31.9979Z" fill="#949DFF"/>
<path d="M0.984022 29.9864H1.01906C1.55801 29.9864 2.00109 29.5594 2.01902 29.0204C2.55996 13.5667 15.5268 1.4769 30.9816 2.01795C36.9254 2.22596 42.6493 4.32186 47.3232 8.00084H42.0013C41.4493 8.00084 41.0013 8.44885 41.0013 9.0008C41.0013 9.55275 41.4493 10.0008 42.0013 10.0008H50.0012H50.0152C50.0932 9.99479 50.1702 9.97873 50.2452 9.95471C50.2962 9.94768 50.3471 9.93666 50.3963 9.92166C50.4243 9.90971 50.4452 9.88463 50.4723 9.86963C50.5623 9.82568 50.6443 9.76768 50.7163 9.69865L50.7263 9.69162C50.7512 9.65658 50.7743 9.62061 50.7953 9.58264C50.8473 9.51865 50.8913 9.44869 50.9263 9.37369C50.9543 9.29365 50.9702 9.21068 50.9763 9.12666C50.9883 9.08564 50.9964 9.04369 51.0013 9.00068V1.00088C51.0013 0.448927 50.5533 0.000918689 50.0013 0.000918689C49.4494 0.000918689 49.0014 0.448927 49.0014 1.00088V6.79275C36.1875 -3.70396 17.2917 -1.82803 6.79394 10.9848C2.62699 16.0697 0.24703 22.3835 0.0191002 28.9535C0.00105333 29.5054 0.433006 29.9674 0.984022 29.9864Z" fill="#231F20"/>
<path d="M15.7607 54.1118C14.9297 53.6198 14.1237 53.0858 13.3467 52.5118C12.9128 52.1698 12.2848 52.2438 11.9427 52.6778C11.6007 53.1118 11.6747 53.7398 12.1087 54.0819C12.1248 54.0949 12.1418 54.1068 12.1588 54.1189C12.9898 54.7339 13.8518 55.3068 14.7417 55.8338C15.2167 56.1158 15.8307 55.9589 16.1127 55.4838C16.3927 55.0087 16.2356 54.3948 15.7607 54.1118Z" fill="#949DFF"/>
<path d="M9.07983 48.6088C8.7128 48.1948 8.07987 48.1568 7.66585 48.5228C7.25182 48.8899 7.21385 49.5228 7.57983 49.9377C8.26784 50.7107 8.99581 51.4477 9.75881 52.1457C10.1738 52.5097 10.8058 52.4687 11.1698 52.0537C11.5238 51.6507 11.4967 51.0397 11.1078 50.6697C10.3968 50.0188 9.72085 49.3308 9.07983 48.6088Z" fill="#949DFF"/>
<path d="M7.2688 46.3506C6.70478 45.5666 6.18177 44.7547 5.70083 43.9177C5.42486 43.4388 4.8129 43.2738 4.33384 43.5497C3.85489 43.8257 3.68989 44.4387 3.96587 44.9177C4.48091 45.8126 5.04189 46.6806 5.64587 47.5186C5.97786 47.9607 6.60388 48.0496 7.04579 47.7176C7.47482 47.3956 7.57384 46.7925 7.2688 46.3506Z" fill="#949DFF"/>
<path d="M21.0135 56.5267C20.0996 56.2167 19.2016 55.8607 18.3246 55.4577C17.8296 55.2126 17.2296 55.4147 16.9846 55.9097C16.7396 56.4047 16.9416 57.0047 17.4366 57.2496C17.4536 57.2575 17.4706 57.2656 17.4887 57.2736C18.4297 57.7066 19.3917 58.0896 20.3726 58.4216C20.8957 58.5985 21.4637 58.3176 21.6406 57.7946C21.8176 57.2716 21.5366 56.7036 21.0135 56.5267Z" fill="#949DFF"/>
<path d="M4.39183 41.3377C4.0009 40.4558 3.65484 39.5547 3.35683 38.6377C3.21187 38.1048 2.66179 37.7907 2.12883 37.9358C1.59586 38.0807 1.28179 38.6308 1.42687 39.1638C1.43484 39.1948 1.44492 39.2258 1.45687 39.2558C1.77586 40.2407 2.14582 41.2087 2.56488 42.1557C2.72484 42.5177 3.0839 42.7507 3.47988 42.7507C4.03183 42.7507 4.47984 42.3027 4.47984 41.7507C4.47984 41.6117 4.4509 41.4737 4.39383 41.3457L4.39183 41.3377Z" fill="#949DFF"/>
<path d="M1.83997 37.0246C2.37997 36.9097 2.72391 36.3796 2.61001 35.8396C2.41102 34.8946 2.25997 33.9407 2.15801 32.9807C2.10001 32.4307 1.607 32.0328 1.05798 32.0917C0.508952 32.1507 0.110046 32.6427 0.167937 33.1918C0.276921 34.2197 0.439929 35.2417 0.653913 36.2538C0.768991 36.7946 1.29891 37.1396 1.83997 37.0246Z" fill="#949DFF"/>
<path d="M59.0169 30.0463C58.4738 30.0182 58.0109 30.4363 57.9829 30.9802C57.9819 30.9902 57.9819 31.0003 57.9819 31.0102C57.9479 31.9753 57.8639 32.9382 57.7309 33.8942C57.6559 34.4402 58.0368 34.9452 58.5828 35.0212C58.6289 35.0282 58.6759 35.0312 58.7228 35.0312C59.2209 35.0301 59.6429 34.6632 59.7118 34.1691C59.8538 33.1452 59.9438 32.1141 59.9807 31.0802C59.9998 30.5292 59.5689 30.0663 59.0169 30.0463Z" fill="#949DFF"/>
<path d="M56.5571 41.7091C56.0602 41.4691 55.4621 41.6771 55.2221 42.1741C54.8021 43.043 54.3362 43.8901 53.8282 44.7111C53.5452 45.1851 53.7012 45.7991 54.1752 46.0821C54.6382 46.3581 55.2362 46.2171 55.5281 45.764C56.0721 44.8841 56.5711 43.977 57.0211 43.045C57.2621 42.548 57.0541 41.95 56.5571 41.7091Z" fill="#949DFF"/>
<path d="M52.1801 47.089C51.59 47.854 50.9611 48.589 50.2951 49.2889C49.9141 49.6889 49.9301 50.3229 50.3301 50.7039C50.7301 51.0848 51.3641 51.0689 51.7451 50.6688C52.4571 49.9188 53.131 49.1328 53.763 48.3138C54.107 47.8819 54.035 47.2528 53.6031 46.9089C53.1711 46.5649 52.542 46.6369 52.1981 47.0688C52.1921 47.0759 52.1861 47.0838 52.1801 47.0918V47.089Z" fill="#949DFF"/>
<path d="M26.6514 57.7981C25.6934 57.684 24.7415 57.5201 23.7994 57.3081C23.2605 57.1861 22.7254 57.5241 22.6034 58.0632C22.4814 58.6022 22.8194 59.1372 23.3584 59.2592C24.3674 59.4872 25.3884 59.6622 26.4154 59.7842C26.4554 59.7892 26.4954 59.7912 26.5354 59.7912C27.0873 59.7902 27.5344 59.3412 27.5334 58.7892C27.5324 58.2831 27.1534 57.8581 26.6514 57.7981Z" fill="#949DFF"/>
<path d="M48.2003 51.2831C47.4643 51.9111 46.6963 52.5011 45.9003 53.0511C45.4453 53.3661 45.3314 53.9902 45.6453 54.4461C45.9593 54.9021 46.5844 55.0151 47.0403 54.7011C47.8923 54.1102 48.7133 53.4751 49.5003 52.8012C49.9203 52.4422 49.9693 51.8112 49.6104 51.3912C49.2514 50.9712 48.6204 50.9222 48.2004 51.2811V51.2831H48.2003Z" fill="#949DFF"/>
<path d="M58.3999 36.0043C57.8639 35.8713 57.3219 36.1982 57.1889 36.7342C56.9569 37.6713 56.6769 38.5962 56.35 39.5051C56.1629 40.0251 56.432 40.5981 56.9519 40.785C57.4719 40.9721 58.045 40.703 58.2319 40.1831C58.5828 39.21 58.8829 38.2191 59.1319 37.215C59.2649 36.679 58.9369 36.137 58.4009 36.004C58.401 36.0052 58.401 36.0043 58.3999 36.0043Z" fill="#949DFF"/>
<path d="M38.1112 56.8074C37.1872 57.0853 36.2492 57.3163 35.3013 57.4974C34.7593 57.6013 34.4044 58.1263 34.5083 58.6683C34.5983 59.1383 35.0093 59.4783 35.4883 59.4792C35.5514 59.4792 35.6154 59.4742 35.6774 59.4622C36.6934 59.2683 37.6993 59.0202 38.6893 58.7213C39.2143 58.5483 39.4993 57.9833 39.3264 57.4583C39.1592 56.9533 38.6253 56.6663 38.1112 56.8074Z" fill="#949DFF"/>
<path d="M32.4355 57.8974C31.6354 57.9654 30.8165 57.9974 30.0006 57.9974H29.5435C28.9985 58.0054 28.5526 58.4344 28.5246 58.9794C28.5146 59.5314 28.9536 59.9874 29.5066 59.9975H30.0006C30.8745 59.9975 31.7505 59.9584 32.6005 59.8854C33.1515 59.8534 33.5735 59.3805 33.5415 58.8294C33.5095 58.2784 33.0365 57.8564 32.4855 57.8884C32.4675 57.8895 32.4485 57.8915 32.4306 57.8935L32.4355 57.8974Z" fill="#949DFF"/>
<path d="M43.4403 54.5682C42.5933 55.0321 41.7243 55.4512 40.8344 55.8262C40.3224 56.0342 40.0765 56.6172 40.2834 57.1292C40.4914 57.6412 41.0744 57.8872 41.5864 57.6802C41.5934 57.6772 41.6014 57.6743 41.6084 57.6712C42.5614 57.2702 43.4934 56.8202 44.4004 56.3232C44.8844 56.0582 45.0624 55.4503 44.7975 54.9652C44.5313 54.4811 43.9243 54.3031 43.4403 54.5682Z" fill="#949DFF"/>
<path d="M30.0005 9.00195C18.4027 9.00195 9.00085 18.4038 9.00085 30.0016C9.00085 41.5994 18.4027 51.0012 30.0005 51.0012C41.5983 51.0012 51.0001 41.5994 51.0001 30.0016C50.9871 18.4098 41.5933 9.0159 30.0005 9.00195ZM31.0005 48.9502V46.0013C31.0005 45.4494 30.5525 45.0014 30.0005 45.0014C29.4485 45.0014 29.0005 45.4494 29.0005 46.0013V48.9502C19.3107 48.4312 11.5708 40.6913 11.0519 31.0016H14.0008C14.5527 31.0016 15.0007 30.5536 15.0007 30.0016C15.0007 29.4496 14.5527 29.0016 14.0008 29.0016H11.0518C11.5708 19.3118 19.3107 11.5719 29.0004 11.053V14.0019C29.0004 14.5538 29.4484 15.0018 30.0004 15.0018C30.5523 15.0018 31.0003 14.5538 31.0003 14.0019V11.0529C40.6902 11.5719 48.4301 19.3118 48.949 29.0015H46.0001C45.4482 29.0015 45.0001 29.4495 45.0001 30.0015C45.0001 30.5534 45.4482 31.0014 46.0001 31.0014H48.949C48.4301 40.6914 40.6903 48.4312 31.0005 48.9502Z" fill="#231F20"/>
<path d="M31.0005 27.1858V18.0019C31.0005 17.45 30.5524 17.002 30.0005 17.002C29.4485 17.002 29.0005 17.45 29.0005 18.0019V27.1858C28.1535 27.4888 27.4875 28.1548 27.1846 29.0017H22.0007C21.4487 29.0017 21.0007 29.4497 21.0007 30.0017C21.0007 30.5536 21.4487 31.0016 22.0007 31.0016H27.1846C27.7326 32.5616 29.4406 33.3805 31.0006 32.8326C32.5606 32.2846 33.3795 30.5766 32.8315 29.0166C32.5314 28.1608 31.8574 27.4868 31.0005 27.1858ZM30.0005 31.0018C29.4485 31.0018 29.0005 30.5538 29.0005 30.0018C29.0005 29.4498 29.4485 29.0018 30.0005 29.0018C30.5524 29.0018 31.0005 29.4498 31.0005 30.0018C31.0005 30.5538 30.5524 31.0018 30.0005 31.0018Z" fill="#231F20"/>
</svg>
